<svg width="348" height="279" viewBox="0 0 348 279" fill="none" xmlns="http://www.w3.org/2000/svg">
<rect x="0.833496" y="99.8984" width="41" height="26" rx="3" fill="#C8E3DA"/>
<path opacity="0.8" d="M13.798 117.041C13.3067 117.041 12.8575 116.92 12.4505 116.678C12.0435 116.433 11.7172 116.106 11.4715 115.699C11.2295 115.289 11.1085 114.836 11.1085 114.341C11.1085 114.077 11.1397 113.839 11.202 113.626C11.2643 113.413 11.3597 113.19 11.488 112.955L13.655 109.198H14.986L13.4845 111.794C13.7888 111.736 14.0858 111.734 14.3755 111.789C14.6688 111.84 14.9438 111.941 15.2005 112.091C15.4572 112.238 15.6827 112.425 15.877 112.652C16.075 112.876 16.229 113.131 16.339 113.417C16.449 113.703 16.504 114.011 16.504 114.341C16.504 114.711 16.4325 115.06 16.2895 115.386C16.1502 115.712 15.9558 116 15.7065 116.249C15.4608 116.495 15.173 116.689 14.843 116.832C14.5167 116.972 14.1683 117.041 13.798 117.041ZM13.798 115.897C14.0987 115.897 14.3663 115.824 14.601 115.677C14.8357 115.531 15.0208 115.338 15.1565 115.1C15.2922 114.862 15.36 114.609 15.36 114.341C15.36 114.059 15.2903 113.8 15.151 113.565C15.0153 113.331 14.8302 113.144 14.5955 113.004C14.3608 112.861 14.0987 112.79 13.809 112.79C13.5083 112.79 13.2407 112.863 13.006 113.01C12.7713 113.157 12.5862 113.347 12.4505 113.582C12.3185 113.817 12.2525 114.07 12.2525 114.341C12.2525 114.638 12.324 114.904 12.467 115.138C12.6137 115.373 12.8043 115.558 13.039 115.694C13.2737 115.83 13.5267 115.897 13.798 115.897ZM19.8249 117.041C19.3372 117.041 18.8954 116.924 18.4994 116.689C18.107 116.451 17.7954 116.136 17.5644 115.743C17.337 115.347 17.2234 114.915 17.2234 114.445H18.3674C18.3674 114.713 18.4334 114.957 18.5654 115.177C18.6974 115.397 18.8734 115.573 19.0934 115.705C19.3134 115.833 19.5572 115.897 19.8249 115.897C20.0889 115.897 20.3309 115.833 20.5509 115.705C20.7709 115.573 20.9469 115.397 21.0789 115.177C21.2109 114.957 21.2769 114.713 21.2769 114.445C21.2769 114.178 21.2164 113.934 21.0954 113.714C20.9744 113.49 20.7929 113.312 20.5509 113.18C20.3089 113.045 20.0009 112.977 19.6269 112.977H17.6854L18.4664 109.198H22.1899V110.342H19.3959L19.0934 111.833L19.7589 111.844C20.2832 111.855 20.7434 111.976 21.1394 112.207C21.539 112.434 21.8525 112.742 22.0799 113.131C22.3072 113.516 22.4209 113.954 22.4209 114.445C22.4209 114.801 22.353 115.137 22.2174 115.452C22.0817 115.764 21.8947 116.039 21.6564 116.277C21.4217 116.515 21.1467 116.702 20.8314 116.838C20.5197 116.974 20.1842 117.041 19.8249 117.041ZM24.1246 116.898L28.5686 109.198H29.8886L25.4446 116.898H24.1246ZM25.0541 112.427C24.7754 112.427 24.5188 112.359 24.2841 112.223C24.0531 112.084 23.8679 111.899 23.7286 111.668C23.5893 111.433 23.5196 111.175 23.5196 110.892C23.5196 110.599 23.5893 110.337 23.7286 110.106C23.8716 109.875 24.0586 109.693 24.2896 109.561C24.5243 109.426 24.7791 109.358 25.0541 109.358C25.3364 109.358 25.5931 109.428 25.8241 109.567C26.0551 109.703 26.2403 109.886 26.3796 110.117C26.5189 110.348 26.5886 110.606 26.5886 110.892C26.5886 111.182 26.5171 111.442 26.3741 111.673C26.2348 111.904 26.0478 112.088 25.8131 112.223C25.5821 112.359 25.3291 112.427 25.0541 112.427ZM25.0541 111.618C25.2594 111.618 25.4318 111.549 25.5711 111.409C25.7104 111.266 25.7801 111.094 25.7801 110.892C25.7801 110.687 25.7104 110.515 25.5711 110.375C25.4318 110.232 25.2594 110.161 25.0541 110.161C24.8524 110.161 24.6801 110.232 24.5371 110.375C24.3978 110.515 24.3281 110.687 24.3281 110.892C24.3281 111.094 24.3978 111.266 24.5371 111.409C24.6801 111.549 24.8524 111.618 25.0541 111.618ZM28.9701 116.75C28.6841 116.75 28.4238 116.678 28.1891 116.535C27.9581 116.389 27.7729 116.2 27.6336 115.969C27.4979 115.734 27.4301 115.481 27.4301 115.21C27.4301 114.924 27.5016 114.665 27.6446 114.434C27.7876 114.2 27.9746 114.015 28.2056 113.879C28.4403 113.74 28.6951 113.67 28.9701 113.67C29.2598 113.67 29.5201 113.741 29.7511 113.884C29.9821 114.027 30.1654 114.216 30.3011 114.451C30.4368 114.686 30.5046 114.939 30.5046 115.21C30.5046 115.492 30.4349 115.751 30.2956 115.985C30.1599 116.216 29.9748 116.402 29.7401 116.541C29.5091 116.68 29.2524 116.75 28.9701 116.75ZM28.9701 115.941C29.1681 115.941 29.3386 115.87 29.4816 115.727C29.6246 115.584 29.6961 115.412 29.6961 115.21C29.6961 115.008 29.6246 114.836 29.4816 114.693C29.3386 114.55 29.1681 114.478 28.9701 114.478C28.7684 114.478 28.5943 114.55 28.4476 114.693C28.3046 114.836 28.2331 115.008 28.2331 115.21C28.2331 115.412 28.3046 115.584 28.4476 115.727C28.5943 115.87 28.7684 115.941 28.9701 115.941Z" fill="#3A3B4C"/>
<path d="M286.833 112.898C286.833 175.03 236.466 225.398 174.333 225.398C112.201 225.398 61.8335 175.03 61.8335 112.898C61.8335 50.7664 112.201 0.398438 174.333 0.398438C236.466 0.398438 286.833 50.7664 286.833 112.898ZM76.1778 112.898C76.1778 167.108 120.124 211.054 174.333 211.054C228.543 211.054 272.489 167.108 272.489 112.898C272.489 58.6885 228.543 14.7427 174.333 14.7427C120.124 14.7427 76.1778 58.6885 76.1778 112.898Z" fill="#C8E3DA"/>
<path d="M286.044 126.199C284.175 141.904 279.015 157.038 270.901 170.613C262.787 184.189 251.903 195.901 238.957 204.986C226.011 214.071 211.295 220.324 195.77 223.337C180.244 226.351 164.258 226.057 148.853 222.475L152.102 208.503C165.542 211.629 179.49 211.885 193.036 209.256C206.583 206.627 219.422 201.171 230.717 193.244C242.012 185.318 251.509 175.099 258.588 163.254C265.667 151.41 270.169 138.205 271.801 124.503L286.044 126.199Z" fill="#E0E1FF"/>
<path d="M245.379 25.6702C260.509 37.9931 272.173 54.0396 279.227 72.2334C286.28 90.4273 288.48 110.143 285.61 129.444L271.422 127.334C273.926 110.494 272.006 93.2925 265.852 77.4184C259.698 61.5443 249.521 47.5439 236.32 36.7922L245.379 25.6702Z" fill="#FFECEB"/>
<rect x="306.833" y="56.3984" width="38" height="26" rx="3" fill="#FFECEB"/>
<path opacity="0.8" d="M318.192 73.3984V66.8424H317.273L317.587 65.6984H319.336V73.3984H318.192ZM323.204 73.5414C322.716 73.5414 322.274 73.4241 321.878 73.1894C321.486 72.9511 321.174 72.6358 320.943 72.2434C320.716 71.8474 320.602 71.4148 320.602 70.9454H321.746C321.746 71.2131 321.812 71.4569 321.944 71.6769C322.076 71.8969 322.252 72.0729 322.472 72.2049C322.692 72.3333 322.936 72.3974 323.204 72.3974C323.468 72.3974 323.71 72.3333 323.93 72.2049C324.15 72.0729 324.326 71.8969 324.458 71.6769C324.59 71.4569 324.656 71.2131 324.656 70.9454C324.656 70.6778 324.595 70.4339 324.474 70.2139C324.353 69.9903 324.172 69.8124 323.93 69.6804C323.688 69.5448 323.38 69.4769 323.006 69.4769H321.064L321.845 65.6984H325.569V66.8424H322.775L322.472 68.3329L323.138 68.3439C323.662 68.3549 324.122 68.4759 324.518 68.7069C324.918 68.9343 325.231 69.2423 325.459 69.6309C325.686 70.0159 325.8 70.4541 325.8 70.9454C325.8 71.3011 325.732 71.6366 325.596 71.9519C325.461 72.2636 325.274 72.5386 325.035 72.7769C324.801 73.0153 324.526 73.2023 324.21 73.3379C323.899 73.4736 323.563 73.5414 323.204 73.5414ZM327.503 73.3984L331.947 65.6984H333.267L328.823 73.3984H327.503ZM328.433 68.9269C328.154 68.9269 327.898 68.8591 327.663 68.7234C327.432 68.5841 327.247 68.3989 327.107 68.1679C326.968 67.9333 326.898 67.6748 326.898 67.3924C326.898 67.0991 326.968 66.8369 327.107 66.6059C327.25 66.3749 327.437 66.1934 327.668 66.0614C327.903 65.9258 328.158 65.8579 328.433 65.8579C328.715 65.8579 328.972 65.9276 329.203 66.0669C329.434 66.2026 329.619 66.3859 329.758 66.6169C329.898 66.8479 329.967 67.1064 329.967 67.3924C329.967 67.6821 329.896 67.9424 329.753 68.1734C329.614 68.4044 329.427 68.5878 329.192 68.7234C328.961 68.8591 328.708 68.9269 328.433 68.9269ZM328.433 68.1184C328.638 68.1184 328.811 68.0488 328.95 67.9094C329.089 67.7664 329.159 67.5941 329.159 67.3924C329.159 67.1871 329.089 67.0148 328.95 66.8754C328.811 66.7324 328.638 66.6609 328.433 66.6609C328.231 66.6609 328.059 66.7324 327.916 66.8754C327.777 67.0148 327.707 67.1871 327.707 67.3924C327.707 67.5941 327.777 67.7664 327.916 67.9094C328.059 68.0488 328.231 68.1184 328.433 68.1184ZM332.349 73.2499C332.063 73.2499 331.803 73.1784 331.568 73.0354C331.337 72.8888 331.152 72.6999 331.012 72.4689C330.877 72.2343 330.809 71.9813 330.809 71.7099C330.809 71.4239 330.88 71.1654 331.023 70.9344C331.166 70.6998 331.353 70.5146 331.584 70.3789C331.819 70.2396 332.074 70.1699 332.349 70.1699C332.639 70.1699 332.899 70.2414 333.13 70.3844C333.361 70.5274 333.544 70.7163 333.68 70.9509C333.816 71.1856 333.883 71.4386 333.883 71.7099C333.883 71.9923 333.814 72.2508 333.674 72.4854C333.539 72.7164 333.354 72.9016 333.119 73.0409C332.888 73.1803 332.631 73.2499 332.349 73.2499ZM332.349 72.4414C332.547 72.4414 332.717 72.3699 332.86 72.2269C333.003 72.0839 333.075 71.9116 333.075 71.7099C333.075 71.5083 333.003 71.3359 332.86 71.1929C332.717 71.0499 332.547 70.9784 332.349 70.9784C332.147 70.9784 331.973 71.0499 331.826 71.1929C331.683 71.3359 331.612 71.5083 331.612 71.7099C331.612 71.9116 331.683 72.0839 331.826 72.2269C331.973 72.3699 332.147 72.4414 332.349 72.4414Z" fill="#3A3B4C"/>
<rect x="306.833" y="143.398" width="41" height="26" rx="3" fill="#E0E1FF"/>
<path opacity="0.8" d="M317.273 160.398V159.381C317.534 159.165 317.833 158.913 318.17 158.627C318.507 158.338 318.85 158.032 319.198 157.709C319.547 157.383 319.868 157.058 320.161 156.735C320.454 156.409 320.691 156.101 320.87 155.811C321.054 155.518 321.145 155.263 321.145 155.047C321.145 154.801 321.085 154.578 320.964 154.376C320.847 154.171 320.687 154.007 320.485 153.886C320.284 153.762 320.06 153.699 319.814 153.699C319.569 153.699 319.343 153.762 319.138 153.886C318.936 154.007 318.773 154.171 318.648 154.376C318.527 154.578 318.467 154.801 318.467 155.047H317.323C317.323 154.581 317.437 154.161 317.664 153.787C317.895 153.41 318.197 153.111 318.571 152.891C318.949 152.667 319.363 152.555 319.814 152.555C320.269 152.555 320.683 152.667 321.057 152.891C321.431 153.115 321.73 153.415 321.954 153.793C322.178 154.167 322.289 154.585 322.289 155.047C322.289 155.304 322.236 155.568 322.13 155.839C322.024 156.11 321.875 156.387 321.684 156.669C321.497 156.952 321.279 157.238 321.03 157.527C320.781 157.817 320.513 158.107 320.227 158.396C319.941 158.686 319.649 158.972 319.352 159.254H322.355V160.398H317.273ZM326.047 160.541C325.593 160.541 325.182 160.439 324.815 160.233C324.452 160.024 324.139 159.737 323.875 159.37C323.611 159.003 323.409 158.58 323.27 158.099C323.131 157.615 323.061 157.098 323.061 156.548C323.061 155.998 323.131 155.481 323.27 154.997C323.409 154.513 323.611 154.09 323.875 153.727C324.139 153.36 324.452 153.074 324.815 152.869C325.182 152.66 325.593 152.555 326.047 152.555C326.495 152.555 326.902 152.66 327.268 152.869C327.635 153.074 327.947 153.36 328.203 153.727C328.464 154.09 328.664 154.513 328.803 154.997C328.942 155.481 329.012 155.998 329.012 156.548C329.012 157.098 328.942 157.615 328.803 158.099C328.664 158.58 328.464 159.003 328.203 159.37C327.947 159.737 327.635 160.024 327.268 160.233C326.902 160.439 326.495 160.541 326.047 160.541ZM326.047 159.397C326.469 159.397 326.819 159.265 327.098 159.001C327.38 158.734 327.591 158.384 327.73 157.951C327.87 157.518 327.939 157.051 327.939 156.548C327.939 156.02 327.866 155.542 327.719 155.113C327.576 154.68 327.364 154.337 327.081 154.084C326.803 153.828 326.458 153.699 326.047 153.699C325.721 153.699 325.437 153.776 325.195 153.93C324.957 154.084 324.759 154.295 324.601 154.563C324.447 154.831 324.33 155.135 324.249 155.476C324.172 155.817 324.133 156.174 324.133 156.548C324.133 157.051 324.205 157.518 324.348 157.951C324.491 158.384 324.704 158.734 324.986 159.001C325.272 159.265 325.626 159.397 326.047 159.397ZM330.382 160.398L334.826 152.698H336.146L331.702 160.398H330.382ZM331.312 155.927C331.033 155.927 330.777 155.859 330.542 155.723C330.311 155.584 330.126 155.399 329.986 155.168C329.847 154.933 329.777 154.675 329.777 154.392C329.777 154.099 329.847 153.837 329.986 153.606C330.129 153.375 330.316 153.193 330.547 153.061C330.782 152.926 331.037 152.858 331.312 152.858C331.594 152.858 331.851 152.928 332.082 153.067C332.313 153.203 332.498 153.386 332.637 153.617C332.777 153.848 332.846 154.106 332.846 154.392C332.846 154.682 332.775 154.942 332.632 155.173C332.493 155.404 332.306 155.588 332.071 155.723C331.84 155.859 331.587 155.927 331.312 155.927ZM331.312 155.118C331.517 155.118 331.69 155.049 331.829 154.909C331.968 154.766 332.038 154.594 332.038 154.392C332.038 154.187 331.968 154.015 331.829 153.875C331.69 153.732 331.517 153.661 331.312 153.661C331.11 153.661 330.938 153.732 330.795 153.875C330.656 154.015 330.586 154.187 330.586 154.392C330.586 154.594 330.656 154.766 330.795 154.909C330.938 155.049 331.11 155.118 331.312 155.118ZM335.228 160.25C334.942 160.25 334.682 160.178 334.447 160.035C334.216 159.889 334.031 159.7 333.891 159.469C333.756 159.234 333.688 158.981 333.688 158.71C333.688 158.424 333.759 158.165 333.902 157.934C334.045 157.7 334.232 157.515 334.463 157.379C334.698 157.24 334.953 157.17 335.228 157.17C335.518 157.17 335.778 157.241 336.009 157.384C336.24 157.527 336.423 157.716 336.559 157.951C336.695 158.186 336.762 158.439 336.762 158.71C336.762 158.992 336.693 159.251 336.553 159.485C336.418 159.716 336.233 159.902 335.998 160.041C335.767 160.18 335.51 160.25 335.228 160.25ZM335.228 159.441C335.426 159.441 335.596 159.37 335.739 159.227C335.882 159.084 335.954 158.912 335.954 158.71C335.954 158.508 335.882 158.336 335.739 158.193C335.596 158.05 335.426 157.978 335.228 157.978C335.026 157.978 334.852 158.05 334.705 158.193C334.562 158.336 334.491 158.508 334.491 158.71C334.491 158.912 334.562 159.084 334.705 159.227C334.852 159.37 335.026 159.441 335.228 159.441Z" fill="#3A3B4C"/>
<rect x="44.8335" y="259.898" width="18" height="18" fill="#C8E3DA"/>
<path d="M69.7335 274.398V263.898H73.206C73.931 263.898 74.611 264.036 75.246 264.311C75.881 264.581 76.4385 264.958 76.9185 265.443C77.3985 265.923 77.7735 266.481 78.0435 267.116C78.3185 267.746 78.456 268.423 78.456 269.148C78.456 269.873 78.3185 270.553 78.0435 271.188C77.7735 271.818 77.3985 272.376 76.9185 272.861C76.4385 273.341 75.881 273.718 75.246 273.993C74.611 274.263 73.931 274.398 73.206 274.398H69.7335ZM70.9935 273.138H73.206C73.756 273.138 74.271 273.036 74.751 272.831C75.236 272.621 75.661 272.333 76.026 271.968C76.391 271.603 76.676 271.181 76.881 270.701C77.091 270.216 77.196 269.698 77.196 269.148C77.196 268.598 77.091 268.083 76.881 267.603C76.676 267.118 76.3885 266.693 76.0185 266.328C75.6535 265.963 75.231 265.678 74.751 265.473C74.271 265.263 73.756 265.158 73.206 265.158H70.9935V273.138ZM82.9798 274.593C82.2898 274.593 81.6598 274.416 81.0898 274.061C80.5248 273.706 80.0723 273.231 79.7323 272.636C79.3973 272.036 79.2298 271.373 79.2298 270.648C79.2298 270.098 79.3273 269.586 79.5223 269.111C79.7173 268.631 79.9848 268.211 80.3248 267.851C80.6698 267.486 81.0698 267.201 81.5248 266.996C81.9798 266.791 82.4648 266.688 82.9798 266.688C83.5448 266.688 84.0623 266.803 84.5323 267.033C85.0073 267.258 85.4123 267.573 85.7473 267.978C86.0873 268.383 86.3398 268.853 86.5048 269.388C86.6748 269.923 86.7373 270.496 86.6923 271.106H80.5723C80.6323 271.531 80.7723 271.911 80.9923 272.246C81.2123 272.576 81.4923 272.838 81.8323 273.033C82.1773 273.228 82.5598 273.328 82.9798 273.333C83.4298 273.333 83.8373 273.218 84.2023 272.988C84.5673 272.753 84.8623 272.433 85.0873 272.028L86.3698 272.328C86.0698 272.993 85.6173 273.538 85.0123 273.963C84.4073 274.383 83.7298 274.593 82.9798 274.593ZM80.5348 270.116H85.4248C85.3848 269.696 85.2498 269.313 85.0198 268.968C84.7898 268.618 84.4973 268.338 84.1423 268.128C83.7873 267.918 83.3998 267.813 82.9798 267.813C82.5598 267.813 82.1748 267.916 81.8248 268.121C81.4748 268.326 81.1848 268.603 80.9548 268.953C80.7298 269.298 80.5898 269.686 80.5348 270.116ZM87.8829 274.398V263.148H89.1429V274.398H87.8829ZM90.9444 266.898H92.2044V274.398H90.9444V266.898ZM91.5894 265.676C91.3894 265.676 91.2219 265.611 91.0869 265.481C90.9519 265.351 90.8844 265.188 90.8844 264.993C90.8844 264.798 90.9519 264.636 91.0869 264.506C91.2219 264.376 91.3869 264.311 91.5819 264.311C91.7769 264.311 91.9419 264.376 92.0769 264.506C92.2119 264.636 92.2794 264.798 92.2794 264.993C92.2794 265.188 92.2119 265.351 92.0769 265.481C91.9469 265.611 91.7844 265.676 91.5894 265.676ZM97.7741 274.398H96.1616L93.4241 266.883H94.7666L96.9641 272.936L99.1616 266.883H100.504L97.7741 274.398ZM104.733 274.593C104.043 274.593 103.413 274.416 102.843 274.061C102.278 273.706 101.825 273.231 101.485 272.636C101.15 272.036 100.983 271.373 100.983 270.648C100.983 270.098 101.08 269.586 101.275 269.111C101.47 268.631 101.738 268.211 102.078 267.851C102.423 267.486 102.823 267.201 103.278 266.996C103.733 266.791 104.218 266.688 104.733 266.688C105.298 266.688 105.815 266.803 106.285 267.033C106.76 267.258 107.165 267.573 107.5 267.978C107.84 268.383 108.093 268.853 108.258 269.388C108.428 269.923 108.49 270.496 108.445 271.106H102.325C102.385 271.531 102.525 271.911 102.745 272.246C102.965 272.576 103.245 272.838 103.585 273.033C103.93 273.228 104.313 273.328 104.733 273.333C105.183 273.333 105.59 273.218 105.955 272.988C106.32 272.753 106.615 272.433 106.84 272.028L108.123 272.328C107.823 272.993 107.37 273.538 106.765 273.963C106.16 274.383 105.483 274.593 104.733 274.593ZM102.288 270.116H107.178C107.138 269.696 107.003 269.313 106.773 268.968C106.543 268.618 106.25 268.338 105.895 268.128C105.54 267.918 105.153 267.813 104.733 267.813C104.313 267.813 103.928 267.916 103.578 268.121C103.228 268.326 102.938 268.603 102.708 268.953C102.483 269.298 102.343 269.686 102.288 270.116ZM109.709 274.398V266.898H110.969V267.836C111.234 267.486 111.569 267.208 111.974 267.003C112.379 266.793 112.819 266.688 113.294 266.688C113.584 266.688 113.864 266.726 114.134 266.801L113.624 268.061C113.419 267.996 113.219 267.963 113.024 267.963C112.649 267.963 112.304 268.056 111.989 268.241C111.679 268.421 111.432 268.666 111.247 268.976C111.062 269.286 110.969 269.631 110.969 270.011V274.398H109.709ZM117.975 274.593C117.285 274.593 116.655 274.416 116.085 274.061C115.52 273.706 115.067 273.231 114.727 272.636C114.392 272.036 114.225 271.373 114.225 270.648C114.225 270.098 114.322 269.586 114.517 269.111C114.712 268.631 114.98 268.211 115.32 267.851C115.665 267.486 116.065 267.201 116.52 266.996C116.975 266.791 117.46 266.688 117.975 266.688C118.54 266.688 119.057 266.803 119.527 267.033C120.002 267.258 120.407 267.573 120.742 267.978C121.082 268.383 121.335 268.853 121.5 269.388C121.67 269.923 121.732 270.496 121.687 271.106H115.567C115.627 271.531 115.767 271.911 115.987 272.246C116.207 272.576 116.487 272.838 116.827 273.033C117.172 273.228 117.555 273.328 117.975 273.333C118.425 273.333 118.832 273.218 119.197 272.988C119.562 272.753 119.857 272.433 120.082 272.028L121.365 272.328C121.065 272.993 120.612 273.538 120.007 273.963C119.402 274.383 118.725 274.593 117.975 274.593ZM115.53 270.116H120.42C120.38 269.696 120.245 269.313 120.015 268.968C119.785 268.618 119.492 268.338 119.137 268.128C118.782 267.918 118.395 267.813 117.975 267.813C117.555 267.813 117.17 267.916 116.82 268.121C116.47 268.326 116.18 268.603 115.95 268.953C115.725 269.298 115.585 269.686 115.53 270.116ZM128.945 263.148H130.205V274.398H128.945V273.123C128.69 273.563 128.347 273.918 127.917 274.188C127.487 274.458 126.982 274.593 126.402 274.593C125.857 274.593 125.347 274.491 124.872 274.286C124.397 274.081 123.977 273.798 123.612 273.438C123.252 273.073 122.97 272.653 122.765 272.178C122.56 271.703 122.457 271.193 122.457 270.648C122.457 270.103 122.56 269.593 122.765 269.118C122.97 268.638 123.252 268.218 123.612 267.858C123.977 267.493 124.397 267.208 124.872 267.003C125.347 266.798 125.857 266.696 126.402 266.696C126.982 266.696 127.487 266.831 127.917 267.101C128.347 267.371 128.69 267.726 128.945 268.166V263.148ZM126.417 273.371C126.912 273.371 127.34 273.251 127.7 273.011C128.065 272.766 128.345 272.436 128.54 272.021C128.74 271.606 128.84 271.148 128.84 270.648C128.84 270.138 128.74 269.678 128.54 269.268C128.34 268.853 128.057 268.526 127.692 268.286C127.332 268.041 126.907 267.918 126.417 267.918C125.922 267.918 125.472 268.041 125.067 268.286C124.667 268.531 124.347 268.861 124.107 269.276C123.867 269.686 123.747 270.143 123.747 270.648C123.747 271.153 123.87 271.613 124.115 272.028C124.36 272.438 124.685 272.766 125.09 273.011C125.495 273.251 125.937 273.371 126.417 273.371Z" fill="#3A3B4C"/>
<rect x="146.833" y="259.898" width="18" height="18" fill="#FFECEB"/>
<path d="M171.958 274.398V263.898H173.218V274.398H171.958ZM181.879 269.733V274.398H180.619V270.011C180.619 269.631 180.527 269.286 180.342 268.976C180.157 268.666 179.909 268.421 179.599 268.241C179.289 268.056 178.944 267.963 178.564 267.963C178.189 267.963 177.844 268.056 177.529 268.241C177.219 268.421 176.972 268.666 176.787 268.976C176.602 269.286 176.509 269.631 176.509 270.011V274.398H175.249V266.898H176.509V267.836C176.774 267.486 177.109 267.208 177.514 267.003C177.919 266.793 178.359 266.688 178.834 266.688C179.394 266.688 179.904 266.826 180.364 267.101C180.829 267.371 181.197 267.736 181.467 268.196C181.742 268.656 181.879 269.168 181.879 269.733ZM190.478 274.608C189.753 274.608 189.09 274.431 188.49 274.076C187.895 273.721 187.42 273.243 187.065 272.643C186.71 272.043 186.533 271.378 186.533 270.648C186.533 270.103 186.635 269.593 186.84 269.118C187.045 268.643 187.328 268.226 187.688 267.866C188.053 267.501 188.473 267.216 188.948 267.011C189.423 266.806 189.933 266.703 190.478 266.703C191.058 266.703 191.56 266.841 191.985 267.116C192.415 267.386 192.758 267.741 193.013 268.181V266.898H194.273V278.148H193.013V273.131C192.758 273.571 192.415 273.928 191.985 274.203C191.56 274.473 191.058 274.608 190.478 274.608ZM190.493 267.926C189.998 267.926 189.548 268.048 189.143 268.293C188.738 268.538 188.415 268.868 188.175 269.283C187.94 269.693 187.823 270.148 187.823 270.648C187.823 271.158 187.943 271.621 188.183 272.036C188.428 272.446 188.753 272.773 189.158 273.018C189.563 273.258 190.008 273.378 190.493 273.378C190.988 273.378 191.415 273.256 191.775 273.011C192.135 272.766 192.413 272.436 192.608 272.021C192.808 271.606 192.908 271.148 192.908 270.648C192.908 270.143 192.808 269.686 192.608 269.276C192.413 268.866 192.133 268.538 191.768 268.293C191.408 268.048 190.983 267.926 190.493 267.926ZM195.647 271.548V266.898H196.907V271.271C196.907 271.651 197 271.996 197.185 272.306C197.37 272.616 197.617 272.863 197.927 273.048C198.242 273.228 198.587 273.318 198.962 273.318C199.342 273.318 199.685 273.228 199.99 273.048C200.3 272.863 200.547 272.616 200.732 272.306C200.917 271.996 201.01 271.651 201.01 271.271V266.898H202.27L202.277 274.398H201.017L201.01 273.446C200.745 273.796 200.41 274.076 200.005 274.286C199.6 274.491 199.162 274.593 198.692 274.593C198.132 274.593 197.62 274.458 197.155 274.188C196.695 273.913 196.327 273.546 196.052 273.086C195.782 272.626 195.647 272.113 195.647 271.548ZM207.011 274.593C206.321 274.593 205.691 274.416 205.121 274.061C204.556 273.706 204.104 273.231 203.764 272.636C203.429 272.036 203.261 271.373 203.261 270.648C203.261 270.098 203.359 269.586 203.554 269.111C203.749 268.631 204.016 268.211 204.356 267.851C204.701 267.486 205.101 267.201 205.556 266.996C206.011 266.791 206.496 266.688 207.011 266.688C207.576 266.688 208.094 266.803 208.564 267.033C209.039 267.258 209.444 267.573 209.779 267.978C210.119 268.383 210.371 268.853 210.536 269.388C210.706 269.923 210.769 270.496 210.724 271.106H204.604C204.664 271.531 204.804 271.911 205.024 272.246C205.244 272.576 205.524 272.838 205.864 273.033C206.209 273.228 206.591 273.328 207.011 273.333C207.461 273.333 207.869 273.218 208.234 272.988C208.599 272.753 208.894 272.433 209.119 272.028L210.401 272.328C210.101 272.993 209.649 273.538 209.044 273.963C208.439 274.383 207.761 274.593 207.011 274.593ZM204.566 270.116H209.456C209.416 269.696 209.281 269.313 209.051 268.968C208.821 268.618 208.529 268.338 208.174 268.128C207.819 267.918 207.431 267.813 207.011 267.813C206.591 267.813 206.206 267.916 205.856 268.121C205.506 268.326 205.216 268.603 204.986 268.953C204.761 269.298 204.621 269.686 204.566 270.116ZM211.585 271.548V266.898H212.845V271.271C212.845 271.651 212.937 271.996 213.122 272.306C213.307 272.616 213.555 272.863 213.865 273.048C214.18 273.228 214.525 273.318 214.9 273.318C215.28 273.318 215.622 273.228 215.927 273.048C216.237 272.863 216.485 272.616 216.67 272.306C216.855 271.996 216.947 271.651 216.947 271.271V266.898H218.207L218.215 274.398H216.955L216.947 273.446C216.682 273.796 216.347 274.076 215.942 274.286C215.537 274.491 215.1 274.593 214.63 274.593C214.07 274.593 213.557 274.458 213.092 274.188C212.632 273.913 212.265 273.546 211.99 273.086C211.72 272.626 211.585 272.113 211.585 271.548ZM222.949 274.593C222.259 274.593 221.629 274.416 221.059 274.061C220.494 273.706 220.041 273.231 219.701 272.636C219.366 272.036 219.199 271.373 219.199 270.648C219.199 270.098 219.296 269.586 219.491 269.111C219.686 268.631 219.954 268.211 220.294 267.851C220.639 267.486 221.039 267.201 221.494 266.996C221.949 266.791 222.434 266.688 222.949 266.688C223.514 266.688 224.031 266.803 224.501 267.033C224.976 267.258 225.381 267.573 225.716 267.978C226.056 268.383 226.309 268.853 226.474 269.388C226.644 269.923 226.706 270.496 226.661 271.106H220.541C220.601 271.531 220.741 271.911 220.961 272.246C221.181 272.576 221.461 272.838 221.801 273.033C222.146 273.228 222.529 273.328 222.949 273.333C223.399 273.333 223.806 273.218 224.171 272.988C224.536 272.753 224.831 272.433 225.056 272.028L226.339 272.328C226.039 272.993 225.586 273.538 224.981 273.963C224.376 274.383 223.699 274.593 222.949 274.593ZM220.504 270.116H225.394C225.354 269.696 225.219 269.313 224.989 268.968C224.759 268.618 224.466 268.338 224.111 268.128C223.756 267.918 223.369 267.813 222.949 267.813C222.529 267.813 222.144 267.916 221.794 268.121C221.444 268.326 221.154 268.603 220.924 268.953C220.699 269.298 220.559 269.686 220.504 270.116Z" fill="#3A3B4C"/>
<rect x="242.833" y="259.898" width="18" height="18" fill="#E0E1FF"/>
<path d="M272.608 274.593C271.898 274.593 271.231 274.453 270.606 274.173C269.981 273.888 269.431 273.496 268.956 272.996C268.481 272.496 268.108 271.918 267.838 271.263C267.568 270.603 267.433 269.898 267.433 269.148C267.433 268.398 267.568 267.696 267.838 267.041C268.108 266.381 268.481 265.801 268.956 265.301C269.431 264.801 269.981 264.411 270.606 264.131C271.231 263.846 271.898 263.703 272.608 263.703C273.323 263.703 273.993 263.846 274.618 264.131C275.243 264.411 275.793 264.801 276.268 265.301C276.743 265.801 277.113 266.381 277.378 267.041C277.648 267.696 277.783 268.398 277.783 269.148C277.783 269.898 277.648 270.603 277.378 271.263C277.113 271.918 276.743 272.496 276.268 272.996C275.793 273.496 275.243 273.888 274.618 274.173C273.993 274.453 273.323 274.593 272.608 274.593ZM272.608 273.333C273.153 273.333 273.661 273.223 274.131 273.003C274.606 272.783 275.021 272.481 275.376 272.096C275.736 271.706 276.016 271.261 276.216 270.761C276.421 270.256 276.523 269.718 276.523 269.148C276.523 268.578 276.421 268.041 276.216 267.536C276.011 267.026 275.728 266.581 275.368 266.201C275.013 265.816 274.598 265.513 274.123 265.293C273.653 265.073 273.148 264.963 272.608 264.963C272.063 264.963 271.553 265.073 271.078 265.293C270.608 265.513 270.193 265.818 269.833 266.208C269.478 266.593 269.198 267.038 268.993 267.543C268.793 268.043 268.693 268.578 268.693 269.148C268.693 269.723 268.796 270.263 269.001 270.768C269.206 271.273 269.486 271.718 269.841 272.103C270.201 272.488 270.616 272.791 271.086 273.011C271.561 273.226 272.068 273.333 272.608 273.333ZM280.536 278.148H279.276V266.898H280.536V268.181C280.791 267.741 281.131 267.386 281.556 267.116C281.981 266.841 282.486 266.703 283.071 266.703C283.616 266.703 284.126 266.806 284.601 267.011C285.081 267.216 285.501 267.501 285.861 267.866C286.221 268.226 286.504 268.643 286.709 269.118C286.914 269.593 287.016 270.103 287.016 270.648C287.016 271.193 286.914 271.706 286.709 272.186C286.504 272.666 286.221 273.088 285.861 273.453C285.501 273.813 285.081 274.096 284.601 274.301C284.126 274.506 283.616 274.608 283.071 274.608C282.486 274.608 281.981 274.473 281.556 274.203C281.131 273.928 280.791 273.571 280.536 273.131V278.148ZM283.056 267.926C282.571 267.926 282.146 268.048 281.781 268.293C281.416 268.538 281.134 268.866 280.934 269.276C280.739 269.686 280.641 270.143 280.641 270.648C280.641 271.148 280.739 271.606 280.934 272.021C281.134 272.436 281.414 272.766 281.774 273.011C282.139 273.256 282.566 273.378 283.056 273.378C283.541 273.378 283.986 273.258 284.391 273.018C284.796 272.773 285.121 272.446 285.366 272.036C285.611 271.621 285.734 271.158 285.734 270.648C285.734 270.148 285.614 269.693 285.374 269.283C285.134 268.868 284.811 268.538 284.406 268.293C284.001 268.048 283.551 267.926 283.056 267.926ZM291.527 274.593C290.837 274.593 290.207 274.416 289.637 274.061C289.072 273.706 288.619 273.231 288.279 272.636C287.944 272.036 287.777 271.373 287.777 270.648C287.777 270.098 287.874 269.586 288.069 269.111C288.264 268.631 288.532 268.211 288.872 267.851C289.217 267.486 289.617 267.201 290.072 266.996C290.527 266.791 291.012 266.688 291.527 266.688C292.092 266.688 292.609 266.803 293.079 267.033C293.554 267.258 293.959 267.573 294.294 267.978C294.634 268.383 294.887 268.853 295.052 269.388C295.222 269.923 295.284 270.496 295.239 271.106H289.119C289.179 271.531 289.319 271.911 289.539 272.246C289.759 272.576 290.039 272.838 290.379 273.033C290.724 273.228 291.107 273.328 291.527 273.333C291.977 273.333 292.384 273.218 292.749 272.988C293.114 272.753 293.409 272.433 293.634 272.028L294.917 272.328C294.617 272.993 294.164 273.538 293.559 273.963C292.954 274.383 292.277 274.593 291.527 274.593ZM289.082 270.116H293.972C293.932 269.696 293.797 269.313 293.567 268.968C293.337 268.618 293.044 268.338 292.689 268.128C292.334 267.918 291.947 267.813 291.527 267.813C291.107 267.813 290.722 267.916 290.372 268.121C290.022 268.326 289.732 268.603 289.502 268.953C289.277 269.298 289.137 269.686 289.082 270.116ZM303.133 269.733V274.398H301.873V270.011C301.873 269.631 301.781 269.286 301.596 268.976C301.411 268.666 301.163 268.421 300.853 268.241C300.543 268.056 300.198 267.963 299.818 267.963C299.443 267.963 299.098 268.056 298.783 268.241C298.473 268.421 298.226 268.666 298.041 268.976C297.856 269.286 297.763 269.631 297.763 270.011V274.398H296.503V266.898H297.763V267.836C298.028 267.486 298.363 267.208 298.768 267.003C299.173 266.793 299.613 266.688 300.088 266.688C300.648 266.688 301.158 266.826 301.618 267.101C302.083 267.371 302.451 267.736 302.721 268.196C302.996 268.656 303.133 269.168 303.133 269.733Z" fill="#3A3B4C"/>
</svg>
