<svg width="17" height="16" viewBox="0 0 17 16" fill="none" xmlns="http://www.w3.org/2000/svg">
<path opacity="0.7" d="M8.53906 16C4.12066 16 0.539062 12.4184 0.539062 8C0.539062 3.5816 4.12066 0 8.53906 0C12.9575 0 16.5391 3.5816 16.5391 8C16.5391 12.4184 12.9575 16 8.53906 16ZM8.53906 14.4C10.2364 14.4 11.8643 13.7257 13.0645 12.5255C14.2648 11.3253 14.9391 9.69739 14.9391 8C14.9391 6.30261 14.2648 4.67475 13.0645 3.47452C11.8643 2.27428 10.2364 1.6 8.53906 1.6C6.84168 1.6 5.21381 2.27428 4.01358 3.47452C2.81335 4.67475 2.13906 6.30261 2.13906 8C2.13906 9.69739 2.81335 11.3253 4.01358 12.5255C5.21381 13.7257 6.84168 14.4 8.53906 14.4ZM7.73906 10.4H9.33906V12H7.73906V10.4ZM7.73906 4H9.33906V8.8H7.73906V4Z" fill="#FD4539"/>
</svg>
