<svg width="14" height="16" viewBox="0 0 14 16" fill="none" xmlns="http://www.w3.org/2000/svg">
<path d="M4.64642 0.258183V0.255859H13.1633C13.5907 0.255859 13.9392 0.608211 13.9392 1.02406V14.9757C13.939 15.1795 13.8579 15.3749 13.7137 15.5189C13.5695 15.6629 13.3741 15.7439 13.1702 15.7439H0.768998C0.667302 15.7431 0.566741 15.7224 0.473058 15.6828C0.379375 15.6433 0.294404 15.5856 0.222997 15.5132C0.15159 15.4408 0.0951459 15.355 0.0568872 15.2608C0.0186286 15.1666 -0.000695259 15.0657 1.91068e-05 14.964V4.90226L4.64642 0.258183ZM2.19157 4.90226H4.64642V2.44741L2.19157 4.90226ZM6.19522 1.80466V5.67666C6.19522 5.88204 6.11363 6.07901 5.9684 6.22424C5.82317 6.36947 5.6262 6.45106 5.42082 6.45106H1.54882V14.1951H12.3904V1.80466H6.19522Z" fill="#626BCC"/>
</svg>
