<svg width="22" height="22" viewBox="0 0 22 22" fill="none" xmlns="http://www.w3.org/2000/svg">
<path d="M5.04167 6.41667C6.81083 6.41667 8.25 4.9775 8.25 3.20833C8.25 1.43917 6.81083 0 5.04167 0C3.2725 0 1.83333 1.43917 1.83333 3.20833C1.83333 4.9775 3.2725 6.41667 5.04167 6.41667ZM5.04167 1.83333C5.79975 1.83333 6.41667 2.45025 6.41667 3.20833C6.41667 3.96642 5.79975 4.58333 5.04167 4.58333C4.28358 4.58333 3.66667 3.96642 3.66667 3.20833C3.66667 2.45025 4.28358 1.83333 5.04167 1.83333ZM16.0417 15.5833C18.3159 15.5833 20.1667 13.7326 20.1667 11.4583C20.1667 9.18408 18.3159 7.33333 16.0417 7.33333C13.7674 7.33333 11.9167 9.18408 11.9167 11.4583C11.9167 13.7326 13.7674 15.5833 16.0417 15.5833ZM16.0417 9.16667C17.3057 9.16667 18.3333 10.1942 18.3333 11.4583C18.3333 12.7224 17.3057 13.75 16.0417 13.75C14.7776 13.75 13.75 12.7224 13.75 11.4583C13.75 10.1942 14.7776 9.16667 16.0417 9.16667ZM7.73025 17.0564C8.42692 17.7549 8.42692 18.9108 7.71833 19.6213L5.70258 21.7186C5.52292 21.9056 5.28275 22 5.04167 22C4.8125 22 4.58425 21.9147 4.40642 21.7442C4.04158 21.3932 4.02967 20.8129 4.38075 20.4481L5.53208 19.25H3.66667C1.6445 19.25 0 17.6055 0 15.5833V14.6667C0 14.1597 0.410667 13.75 0.916667 13.75C1.42267 13.75 1.83333 14.1597 1.83333 14.6667V15.5833C1.83333 16.5944 2.65558 17.4167 3.66667 17.4167H5.52658L4.38075 16.2186C4.02967 15.8538 4.04067 15.2735 4.40642 14.9224C4.77125 14.5722 5.3515 14.5823 5.70258 14.9472L7.73025 17.0564ZM21.3428 21.9624C21.2557 21.9881 21.1695 22 21.0842 22C20.6873 22 20.3225 21.7415 20.2052 21.3418C19.6845 19.5699 17.9722 18.3333 16.0426 18.3333C14.113 18.3333 12.4007 19.5708 11.88 21.3418C11.737 21.8267 11.2292 22.1082 10.7415 21.9624C10.2557 21.8203 9.97792 21.3107 10.1209 20.8248C10.8698 18.2792 13.3045 16.5 16.0417 16.5C18.7788 16.5 21.2144 18.2783 21.9624 20.8248C22.1054 21.3107 21.8277 21.8203 21.3418 21.9624H21.3428ZM9.48933 11.8589C9.383 11.8983 9.27483 11.9167 9.16758 11.9167C8.79633 11.9167 8.44708 11.6902 8.30867 11.3217C7.82558 10.0329 6.51292 9.16667 5.04258 9.16667C3.57225 9.16667 2.25867 10.032 1.7765 11.3217C1.59867 11.7975 1.06975 12.034 0.595833 11.8589C0.121917 11.6811 -0.11825 11.1522 0.0595833 10.6792C0.809417 8.67808 2.81233 7.33425 5.0435 7.33425C7.27467 7.33425 9.27667 8.679 10.0274 10.6792C10.2053 11.1531 9.96508 11.6811 9.49117 11.8589H9.48933Z" fill="#626BCC"/>
</svg>
