<svg width="16" height="17" viewBox="0 0 16 17" fill="none" xmlns="http://www.w3.org/2000/svg">
<path d="M16 12.4289V15.572C16.0001 15.797 15.9148 16.0138 15.7614 16.1784C15.608 16.343 15.3978 16.4434 15.1733 16.4591C14.7849 16.4858 14.4676 16.5 14.2222 16.5C6.36711 16.5 0 10.1329 0 2.27778C0 2.03244 0.0133333 1.71511 0.0408889 1.32667C0.0566421 1.10217 0.156961 0.89201 0.321603 0.738586C0.486245 0.585162 0.702954 0.499898 0.928 0.5H4.07111C4.18137 0.499889 4.28773 0.540764 4.36954 0.614685C4.45134 0.688606 4.50275 0.790296 4.51378 0.9C4.53422 1.10444 4.55289 1.26711 4.57067 1.39067C4.74732 2.62349 5.10934 3.82252 5.64444 4.94711C5.72889 5.12489 5.67378 5.33733 5.51378 5.45111L3.59556 6.82178C4.7684 9.55462 6.94627 11.7325 9.67911 12.9053L11.048 10.9907C11.104 10.9124 11.1856 10.8563 11.2787 10.8321C11.3717 10.8079 11.4704 10.8172 11.5573 10.8582C12.6818 11.3923 13.8805 11.7534 15.1129 11.9293C15.2364 11.9471 15.3991 11.9667 15.6018 11.9862C15.7113 11.9975 15.8128 12.049 15.8865 12.1307C15.9603 12.2125 16.001 12.3188 16.0009 12.4289H16Z" fill="#68698A"/>
</svg>
