<svg width="13" height="17" viewBox="0 0 13 17" fill="none" xmlns="http://www.w3.org/2000/svg">
<path d="M12.9524 17H11.3333V15.381C11.3333 14.7369 11.0775 14.1191 10.622 13.6637C10.1666 13.2082 9.54886 12.9524 8.90476 12.9524H4.04762C3.40352 12.9524 2.78581 13.2082 2.33036 13.6637C1.87491 14.1191 1.61905 14.7369 1.61905 15.381V17H0V15.381C0 14.3075 0.426444 13.2779 1.18552 12.5189C1.9446 11.7598 2.97412 11.3333 4.04762 11.3333H8.90476C9.97826 11.3333 11.0078 11.7598 11.7669 12.5189C12.5259 13.2779 12.9524 14.3075 12.9524 15.381V17ZM6.47619 9.71429C5.83834 9.71429 5.20674 9.58865 4.61744 9.34456C4.02815 9.10046 3.4927 8.74269 3.04167 8.29166C2.59064 7.84063 2.23287 7.30519 1.98878 6.71589C1.74468 6.1266 1.61905 5.49499 1.61905 4.85714C1.61905 4.21929 1.74468 3.58769 1.98878 2.99839C2.23287 2.4091 2.59064 1.87365 3.04167 1.42262C3.4927 0.971597 4.02815 0.613822 4.61744 0.369728C5.20674 0.125634 5.83834 -9.50469e-09 6.47619 0C7.76438 1.91956e-08 8.99982 0.511733 9.91071 1.42262C10.8216 2.33352 11.3333 3.56895 11.3333 4.85714C11.3333 6.14534 10.8216 7.38077 9.91071 8.29166C8.99982 9.20255 7.76438 9.71429 6.47619 9.71429ZM6.47619 8.09524C7.33499 8.09524 8.15861 7.75408 8.76587 7.14682C9.37313 6.53956 9.71429 5.71594 9.71429 4.85714C9.71429 3.99835 9.37313 3.17472 8.76587 2.56746C8.15861 1.9602 7.33499 1.61905 6.47619 1.61905C5.61739 1.61905 4.79377 1.9602 4.18651 2.56746C3.57925 3.17472 3.2381 3.99835 3.2381 4.85714C3.2381 5.71594 3.57925 6.53956 4.18651 7.14682C4.79377 7.75408 5.61739 8.09524 6.47619 8.09524Z" fill="#68698A"/>
</svg>
