<svg width="15" height="17" viewBox="0 0 15 17" fill="none" xmlns="http://www.w3.org/2000/svg">
<path d="M3.2 3.7V1.3C3.2 1.08783 3.28428 0.884343 3.43431 0.734314C3.58434 0.584285 3.78782 0.5 4 0.5H13.6C13.8122 0.5 14.0156 0.584285 14.1657 0.734314C14.3157 0.884343 14.4 1.08783 14.4 1.3V12.5C14.4 12.7122 14.3157 12.9156 14.1657 13.0657C14.0156 13.2157 13.8122 13.3 13.6 13.3H11.2V15.7C11.2 16.1416 10.84 16.5 10.3944 16.5H0.805599C0.700101 16.5006 0.595517 16.4804 0.497857 16.4405C0.400198 16.4006 0.311386 16.3418 0.236527 16.2674C0.161667 16.1931 0.102234 16.1047 0.0616434 16.0073C0.0210525 15.9099 0.000103499 15.8055 0 15.7L0.00240001 4.5C0.00240001 4.0584 0.3624 3.7 0.807999 3.7H3.2ZM1.6024 5.3L1.6 14.9H9.59999V5.3H1.6024ZM4.8 3.7H11.2V11.7H12.8V2.1H4.8V3.7Z" fill="#68698A"/>
</svg>
