<svg width="16" height="17" viewBox="0 0 16 17" fill="none" xmlns="http://www.w3.org/2000/svg">
<path d="M8.67345 5.30026L9.80051 6.42731C10.3183 6.94506 10.7291 7.55973 11.0093 8.23622C11.2895 8.91272 11.4338 9.63779 11.4338 10.37C11.4338 11.1023 11.2895 11.8273 11.0093 12.5038C10.7291 13.1803 10.3183 13.795 9.80051 14.3127L9.51855 14.5939C8.47287 15.6396 7.05464 16.227 5.57584 16.227C4.09703 16.227 2.6788 15.6396 1.63312 14.5939C0.587453 13.5482 1.10179e-08 12.13 0 10.6512C-1.10179e-08 9.17239 0.587453 7.75415 1.63312 6.70848L2.76018 7.83554C2.38771 8.20476 2.09184 8.64392 1.88954 9.1278C1.68725 9.61167 1.58252 10.1307 1.58137 10.6552C1.58023 11.1797 1.68268 11.6992 1.88285 12.1839C2.08302 12.6687 2.37697 13.1092 2.74782 13.48C3.11867 13.8509 3.55912 14.1448 4.04388 14.345C4.52864 14.5451 5.04816 14.6476 5.57262 14.6464C6.09708 14.6453 6.61615 14.5406 7.10003 14.3383C7.58391 14.136 8.02306 13.8401 8.39229 13.4676L8.67425 13.1857C9.42086 12.4388 9.84028 11.4261 9.84028 10.37C9.84028 9.314 9.42086 8.30121 8.67425 7.55437L7.54719 6.42731L8.67425 5.30105L8.67345 5.30026ZM14.0244 10.0881L12.8981 8.9618C13.2706 8.59258 13.5665 8.15342 13.7688 7.66954C13.9711 7.18567 14.0758 6.6666 14.0769 6.14214C14.0781 5.61768 13.9756 5.09815 13.7755 4.61339C13.5753 4.12864 13.2813 3.68819 12.9105 3.31734C12.5396 2.94649 12.0992 2.65254 11.6144 2.45237C11.1297 2.25219 10.6101 2.14974 10.0857 2.15089C9.56123 2.15204 9.04216 2.25677 8.55828 2.45906C8.0744 2.66135 7.63525 2.95723 7.26602 3.3297L6.98406 3.61166C6.23745 4.3585 5.81803 5.37129 5.81803 6.42731C5.81803 7.48334 6.23745 8.49613 6.98406 9.24297L8.11112 10.37L6.98406 11.4963L5.8578 10.37C5.34 9.85228 4.92926 9.23761 4.64902 8.56112C4.36879 7.88462 4.22456 7.15955 4.22456 6.42731C4.22456 5.69507 4.36879 4.97001 4.64902 4.29351C4.92926 3.61702 5.34 3.00235 5.8578 2.4846L6.13976 2.20344C7.18543 1.15776 8.60367 0.570313 10.0825 0.570312C11.5613 0.570313 12.9795 1.15776 14.0252 2.20344C15.0709 3.24911 15.6583 4.66734 15.6583 6.14615C15.6583 7.62495 15.0709 9.04319 14.0252 10.0889L14.0244 10.0881Z" fill="#626BCC"/>
</svg>
