<svg width="14" height="16" viewBox="0 0 14 16" fill="none" xmlns="http://www.w3.org/2000/svg">
<path d="M6.9696 11.0975H3.872V4.90226H6.9696C7.79113 4.90226 8.57902 5.22861 9.15993 5.80953C9.74085 6.39044 10.0672 7.17832 10.0672 7.99986C10.0672 8.82139 9.74085 9.60928 9.15993 10.1902C8.57902 10.7711 7.79113 11.0975 6.9696 11.0975ZM5.4208 6.45106V9.54866H6.9696C7.38037 9.54866 7.77431 9.38548 8.06477 9.09503C8.35522 8.80457 8.5184 8.41063 8.5184 7.99986C8.5184 7.58909 8.35522 7.19515 8.06477 6.90469C7.77431 6.61424 7.38037 6.45106 6.9696 6.45106H5.4208ZM9.2928 1.80466H1.5488V14.1951H12.3904V4.90226H9.2928V1.80466ZM0 1.02406C0 0.599693 0.346157 0.255859 0.773626 0.255859H10.0672L13.9392 4.12786V14.964C13.9399 15.0657 13.9206 15.1666 13.8823 15.2608C13.8441 15.355 13.7876 15.4408 13.7162 15.5132C13.6448 15.5856 13.5598 15.6433 13.4662 15.6828C13.3725 15.7224 13.2719 15.7431 13.1702 15.7439H0.768979C0.565605 15.7424 0.370951 15.6611 0.227068 15.5173C0.0831844 15.3736 0.0016221 15.179 0 14.9757V1.02406Z" fill="#626BCC"/>
</svg>
