<svg width="20" height="22" viewBox="0 0 20 22" fill="none" xmlns="http://www.w3.org/2000/svg">
<path d="M10.7385 9.26108C9.9905 9.06492 9.2205 9.17583 8.5715 9.57458C7.92159 9.97333 7.45684 10.6288 7.2955 11.3722C7.18825 11.8672 7.50359 12.3548 7.99859 12.4621C8.49084 12.5648 8.98125 12.254 9.08759 11.7599C9.1435 11.5023 9.30484 11.275 9.53034 11.1366C9.68525 11.0422 9.94192 10.9487 10.2728 11.0339C10.5863 11.1164 10.8522 11.3997 10.92 11.7242C11.0218 12.2155 10.7523 12.6023 10.4406 12.7664C9.83375 13.0863 9.30209 13.7518 9.116 14.4219C8.98125 14.9096 9.26725 15.4147 9.75492 15.5494C9.8365 15.5714 9.919 15.5833 9.99967 15.5833C10.4012 15.5833 10.7706 15.3166 10.8824 14.9105C10.9319 14.7299 11.1363 14.4714 11.294 14.388C12.4004 13.8059 12.9706 12.5849 12.7139 11.3502C12.504 10.34 11.7276 9.51958 10.7376 9.26017L10.7385 9.26108ZM19.1663 9.61125V17.4167C19.1663 19.9439 17.1103 22 14.583 22H5.41634C2.88909 22 0.833008 19.9439 0.833008 17.4167V4.58333C0.833008 2.05608 2.88909 0 5.41634 0H9.55509C11.2702 0 12.8808 0.667333 14.0926 1.87917L17.2872 5.07375C18.499 6.2865 19.1663 7.898 19.1663 9.61125ZM11.833 6.41667C11.833 6.92175 12.2446 7.33333 12.7497 7.33333H16.7069C16.508 6.98867 16.2797 6.65958 15.991 6.36992L12.7964 3.17533C12.5077 2.88658 12.1786 2.65833 11.8339 2.45942V6.41667H11.833ZM17.333 9.61125C17.333 9.46 17.3037 9.31517 17.2899 9.16667H12.7497C11.2335 9.16667 9.99967 7.93283 9.99967 6.41667V1.87642C9.85117 1.86175 9.70634 1.83333 9.55509 1.83333H5.41634C3.90017 1.83333 2.66634 3.06717 2.66634 4.58333V17.4167C2.66634 18.9328 3.90017 20.1667 5.41634 20.1667H14.583C16.0992 20.1667 17.333 18.9328 17.333 17.4167V9.61125ZM8.62467 17.875C8.62467 17.116 9.24067 16.5 9.99967 16.5C10.7587 16.5 11.3747 17.116 11.3747 17.875C11.3747 18.634 10.7587 19.25 9.99967 19.25C9.24067 19.25 8.62467 18.634 8.62467 17.875Z" fill="#626BCC"/>
</svg>
