<svg width="16" height="17" viewBox="0 0 16 17" fill="none" xmlns="http://www.w3.org/2000/svg">
<path d="M6.22222 5.07335H9.77778V3.74002C9.77778 3.1247 9.96024 2.5232 10.3021 2.01158C10.6439 1.49996 11.1298 1.1012 11.6983 0.865727C12.2668 0.630254 12.8923 0.568644 13.4958 0.688687C14.0993 0.80873 14.6537 1.10503 15.0888 1.54013C15.5239 1.97523 15.8202 2.52957 15.9402 3.13307C16.0603 3.73657 15.9987 4.36211 15.7632 4.93059C15.5277 5.49907 15.1289 5.98496 14.6173 6.32681C14.1057 6.66867 13.5042 6.85113 12.8889 6.85113H11.5556V10.4067H12.8889C13.5042 10.4067 14.1057 10.5891 14.6173 10.931C15.1289 11.2729 15.5277 11.7587 15.7632 12.3272C15.9987 12.8957 16.0603 13.5212 15.9402 14.1247C15.8202 14.7282 15.5239 15.2826 15.0888 15.7177C14.6537 16.1528 14.0993 16.4491 13.4958 16.5691C12.8923 16.6892 12.2668 16.6276 11.6983 16.3921C11.1298 16.1566 10.6439 15.7579 10.3021 15.2462C9.96024 14.7346 9.77778 14.1331 9.77778 13.5178V12.1845H6.22222V13.5178C6.22222 14.1331 6.03976 14.7346 5.69791 15.2462C5.35605 15.7579 4.87016 16.1566 4.30168 16.3921C3.7332 16.6276 3.10766 16.6892 2.50416 16.5691C1.90067 16.4491 1.34632 16.1528 0.911225 15.7177C0.476128 15.2826 0.179823 14.7282 0.0597805 14.1247C-0.0602624 13.5212 0.00134799 12.8957 0.236821 12.3272C0.472293 11.7587 0.871052 11.2729 1.38267 10.931C1.89429 10.5891 2.49579 10.4067 3.11111 10.4067H4.44444V6.85113H3.11111C2.49579 6.85113 1.89429 6.66867 1.38267 6.32681C0.871052 5.98496 0.472293 5.49907 0.236821 4.93059C0.00134799 4.36211 -0.0602624 3.73657 0.0597805 3.13307C0.179823 2.52957 0.476128 1.97523 0.911225 1.54013C1.34632 1.10503 1.90067 0.80873 2.50416 0.688687C3.10766 0.568644 3.7332 0.630254 4.30168 0.865727C4.87016 1.1012 5.35605 1.49996 5.69791 2.01158C6.03976 2.5232 6.22222 3.1247 6.22222 3.74002V5.07335ZM4.44444 5.07335V3.74002C4.44444 3.47631 4.36625 3.21852 4.21974 2.99926C4.07323 2.77999 3.86499 2.6091 3.62136 2.50818C3.37772 2.40726 3.10963 2.38086 2.85099 2.4323C2.59235 2.48375 2.35477 2.61074 2.1683 2.79721C1.98183 2.98368 1.85485 3.22126 1.8034 3.4799C1.75195 3.73854 1.77836 4.00663 1.87927 4.25026C1.98019 4.4939 2.15109 4.70214 2.37035 4.84864C2.58962 4.99515 2.8474 5.07335 3.11111 5.07335H4.44444ZM4.44444 12.1845H3.11111C2.8474 12.1845 2.58962 12.2627 2.37035 12.4092C2.15109 12.5557 1.98019 12.7639 1.87927 13.0076C1.77836 13.2512 1.75195 13.5193 1.8034 13.7779C1.85485 14.0366 1.98183 14.2741 2.1683 14.4606C2.35477 14.6471 2.59235 14.7741 2.85099 14.8255C3.10963 14.877 3.37772 14.8505 3.62136 14.7496C3.86499 14.6487 4.07323 14.4778 4.21974 14.2586C4.36625 14.0393 4.44444 13.7815 4.44444 13.5178V12.1845ZM11.5556 5.07335H12.8889C13.1526 5.07335 13.4104 4.99515 13.6296 4.84864C13.8489 4.70214 14.0198 4.4939 14.1207 4.25026C14.2216 4.00663 14.248 3.73854 14.1966 3.4799C14.1452 3.22126 14.0182 2.98368 13.8317 2.79721C13.6452 2.61074 13.4076 2.48375 13.149 2.4323C12.8904 2.38086 12.6223 2.40726 12.3786 2.50818C12.135 2.6091 11.9268 2.77999 11.7803 2.99926C11.6338 3.21852 11.5556 3.47631 11.5556 3.74002V5.07335ZM11.5556 12.1845V13.5178C11.5556 13.7815 11.6338 14.0393 11.7803 14.2586C11.9268 14.4778 12.135 14.6487 12.3786 14.7496C12.6223 14.8505 12.8904 14.877 13.149 14.8255C13.4076 14.7741 13.6452 14.6471 13.8317 14.4606C14.0182 14.2741 14.1452 14.0366 14.1966 13.7779C14.248 13.5193 14.2216 13.2512 14.1207 13.0076C14.0198 12.7639 13.8489 12.5557 13.6296 12.4092C13.4104 12.2627 13.1526 12.1845 12.8889 12.1845H11.5556ZM6.22222 6.85113V10.4067H9.77778V6.85113H6.22222Z" fill="#68698A"/>
</svg>
