<svg width="18" height="22" viewBox="0 0 18 22" fill="none" xmlns="http://www.w3.org/2000/svg">
<path d="M15.9071 2.86185L14.3891 1.34202C13.9644 0.915138 13.4592 0.576729 12.9028 0.346375C12.3465 0.116022 11.7499 -0.00170133 11.1478 1.85766e-05H5.33333C4.1182 0.00147411 2.95326 0.484827 2.09404 1.34405C1.23481 2.20328 0.751456 3.36822 0.75 4.58335V17.4167C0.751456 18.6318 1.23481 19.7968 2.09404 20.656C2.95326 21.5152 4.1182 21.9986 5.33333 22H12.6667C13.8818 21.9986 15.0467 21.5152 15.906 20.656C16.7652 19.7968 17.2485 18.6318 17.25 17.4167V6.10227C17.2515 5.50019 17.1336 4.90379 16.903 4.34758C16.6725 3.79137 16.334 3.28639 15.9071 2.86185ZM14.6109 4.15802C14.7409 4.28756 14.8574 4.43008 14.9583 4.58335H12.6667V2.29169C12.8197 2.39373 12.9624 2.51039 13.0929 2.64002L14.6109 4.15802ZM15.4167 17.4167C15.4167 18.146 15.1269 18.8455 14.6112 19.3612C14.0955 19.877 13.396 20.1667 12.6667 20.1667H5.33333C4.60399 20.1667 3.90452 19.877 3.38879 19.3612C2.87306 18.8455 2.58333 18.146 2.58333 17.4167V4.58335C2.58333 3.85401 2.87306 3.15453 3.38879 2.63881C3.90452 2.12308 4.60399 1.83335 5.33333 1.83335H10.8333V4.58335C10.8333 5.06958 11.0265 5.5359 11.3703 5.87971C11.7141 6.22353 12.1804 6.41669 12.6667 6.41669H15.4167V17.4167ZM12.6667 8.25002C12.9098 8.25002 13.1429 8.3466 13.3148 8.51851C13.4868 8.69041 13.5833 8.92357 13.5833 9.16669C13.5833 9.4098 13.4868 9.64296 13.3148 9.81487C13.1429 9.98678 12.9098 10.0834 12.6667 10.0834H5.33333C5.09022 10.0834 4.85706 9.98678 4.68515 9.81487C4.51324 9.64296 4.41667 9.4098 4.41667 9.16669C4.41667 8.92357 4.51324 8.69041 4.68515 8.51851C4.85706 8.3466 5.09022 8.25002 5.33333 8.25002H12.6667ZM13.5833 12.8334C13.5833 13.0765 13.4868 13.3096 13.3148 13.4815C13.1429 13.6534 12.9098 13.75 12.6667 13.75H5.33333C5.09022 13.75 4.85706 13.6534 4.68515 13.4815C4.51324 13.3096 4.41667 13.0765 4.41667 12.8334C4.41667 12.5902 4.51324 12.3571 4.68515 12.1852C4.85706 12.0133 5.09022 11.9167 5.33333 11.9167H12.6667C12.9098 11.9167 13.1429 12.0133 13.3148 12.1852C13.4868 12.3571 13.5833 12.5902 13.5833 12.8334ZM13.4073 15.9619C13.5498 16.158 13.6089 16.4024 13.5716 16.6419C13.5343 16.8814 13.4038 17.0963 13.2084 17.2398C12.2797 17.9016 11.1797 18.2813 10.0404 18.3334C9.37481 18.3301 8.72942 18.1043 8.20708 17.6917C7.90642 17.4854 7.79183 17.4167 7.56542 17.4167C6.95256 17.5115 6.37432 17.7621 5.88608 18.1445C5.69244 18.2826 5.45272 18.34 5.21755 18.3046C4.98239 18.2692 4.77018 18.1438 4.62574 17.9548C4.48131 17.7659 4.41595 17.5282 4.44348 17.292C4.471 17.0558 4.58925 16.8395 4.77325 16.6889C5.581 16.0618 6.55092 15.6783 7.56908 15.5834C8.17971 15.5931 8.77003 15.8042 9.24842 16.1838C9.46648 16.3799 9.74724 16.492 10.0404 16.5C10.79 16.4439 11.5107 16.1878 12.1277 15.7584C12.3244 15.6158 12.5697 15.5572 12.8096 15.5953C13.0496 15.6335 13.2646 15.7654 13.4073 15.9619Z" fill="#626BCC"/>
</svg>
