<svg width="17" height="17" viewBox="0 0 17 17" fill="none" xmlns="http://www.w3.org/2000/svg">
<path d="M3.65538 13.7571L0 16.6289V1.44942C0 1.23181 0.0864466 1.0231 0.240323 0.869229C0.394199 0.715353 0.602899 0.628906 0.820513 0.628906H15.5897C15.8074 0.628906 16.0161 0.715353 16.1699 0.869229C16.3238 1.0231 16.4103 1.23181 16.4103 1.44942V12.9366C16.4103 13.1542 16.3238 13.3629 16.1699 13.5168C16.0161 13.6707 15.8074 13.7571 15.5897 13.7571H3.65538ZM1.64103 13.2525L3.08759 12.1161H14.7692V2.26993H1.64103V13.2525ZM7.38462 8.83403H9.02564V10.4751H7.38462V8.83403ZM7.38462 3.91096H9.02564V8.01352H7.38462V3.91096Z" fill="#68698A"/>
</svg>
