    <svg width="19" height="22" viewBox="0 0 19 22" fill="none" xmlns="http://www.w3.org/2000/svg">
    <path d="M1.49805 0.734375C1.67402 0.734511 1.84683 0.781079 1.99905 0.869375L18.003 10.1354C18.1546 10.2233 18.2804 10.3495 18.3678 10.5013C18.4552 10.6531 18.5013 10.8252 18.5013 11.0004C18.5013 11.1756 18.4552 11.3477 18.3678 11.4995C18.2804 11.6513 18.1546 11.7775 18.003 11.8654L1.99905 21.1314C1.84708 21.2194 1.67462 21.2658 1.49902 21.2659C1.32343 21.2661 1.15088 21.22 0.998741 21.1324C0.846599 21.0447 0.720227 20.9185 0.632334 20.7665C0.544441 20.6145 0.498125 20.442 0.498047 20.2664V1.73438C0.498047 1.46916 0.603404 1.2148 0.79094 1.02727C0.978476 0.839732 1.23283 0.734375 1.49805 0.734375ZM9.79005 12.4144L5.29205 16.9124L10.991 13.6134L9.79105 12.4134L9.79005 12.4144ZM2.49805 5.11837V16.8784L8.37805 10.9984L2.49805 5.11837ZM12.782 9.42037L11.204 11.0004L12.782 12.5774L15.506 11.0004L12.781 9.42137L12.782 9.42037ZM5.29205 5.08438L9.79205 9.58437L10.991 8.38437L5.29205 5.08438Z" fill="#68698A"/>
    </svg>
