<svg width="20" height="20" viewBox="0 0 20 20" fill="none" xmlns="http://www.w3.org/2000/svg">
<path d="M4.01397 2.81136C5.7378 1.31764 7.94315 0.496827 10.2241 0.500009C15.471 0.500009 19.7241 4.75316 19.7241 10C19.7241 12.0292 19.0876 13.9102 18.0046 15.453L14.9741 10H17.8241C17.8242 8.51004 17.3864 7.05292 16.565 5.8098C15.7437 4.56668 14.575 3.59241 13.2044 3.00812C11.8338 2.42384 10.3217 2.25532 8.85607 2.52352C7.39045 2.79172 6.036 3.48481 4.96112 4.51661L4.01397 2.81136ZM16.4343 17.1886C14.7104 18.6824 12.5051 19.5032 10.2241 19.5C4.97727 19.5 0.724121 15.2468 0.724121 10C0.724121 7.9708 1.36062 6.0898 2.44362 4.54701L5.47412 10H2.62412C2.624 11.49 3.06183 12.9471 3.88319 14.1902C4.70454 15.4333 5.87318 16.4076 7.24379 16.9919C8.61441 17.5762 10.1265 17.7447 11.5922 17.4765C13.0578 17.2083 14.4122 16.5152 15.4871 15.4834L16.4343 17.1886Z" fill="#68698A"/>
</svg>
