<svg width="20" height="23" viewBox="0 0 20 23" fill="none" xmlns="http://www.w3.org/2000/svg">
<path d="M19.9624 7.19407C20.0081 7.12525 20.0081 7.08025 19.9852 7.03437C19.9624 6.98849 19.9395 6.9435 19.8717 6.89762C19.8031 6.85174 19.7582 6.8288 19.6895 6.80674C19.6666 6.80674 19.6438 6.7838 19.6209 6.7838H19.5522C19.5293 6.7838 19.5293 6.7838 19.5065 6.76086C19.4378 6.69204 19.3472 6.69204 19.2785 6.76086C19.2785 6.73792 19.3014 6.71498 19.3243 6.71498C19.3929 6.69204 19.4149 6.64616 19.3929 6.57823C19.3929 6.53235 19.37 6.48735 19.3472 6.44147C19.3014 6.3506 19.2336 6.32766 19.1192 6.39559C19.1192 6.37265 19.1421 6.37265 19.165 6.34972C19.2556 6.32678 19.2336 6.25884 19.2107 6.2359C19.1879 6.14502 19.1201 6.09914 19.0743 6.07621C19.0057 6.05327 18.9379 6.05327 18.8693 6.09914C18.8006 6.14502 18.71 6.19002 18.6413 6.2359L18.5498 6.32766C18.5269 6.37354 18.5269 6.37354 18.4591 6.3506C18.3685 6.30472 18.2769 6.28178 18.1863 6.28178C18.1634 6.28178 18.1176 6.28178 18.0956 6.25884C17.9363 6.19002 17.8457 6.25884 17.7999 6.32766C17.7542 6.37354 17.7313 6.41853 17.6864 6.48735C17.6406 6.57823 17.55 6.62411 17.4584 6.64705C17.3678 6.66999 17.2763 6.69292 17.2085 6.73792C17.1627 6.76086 17.1178 6.80674 17.0949 6.85174C17.0492 6.94261 17.0043 7.01143 16.9128 7.05731C16.8221 7.10319 16.7763 7.17113 16.8221 7.26289V7.28583C16.7992 7.35464 16.7535 7.3767 16.6857 7.3767C16.5264 7.3767 16.4129 7.42258 16.3213 7.49052C16.2527 7.51346 16.2307 7.51346 16.1849 7.51346C16.1162 7.51346 16.0942 7.55933 16.0714 7.60433C16.0485 7.67315 16.0485 7.76403 16.0942 7.80991C16.1171 7.85578 16.1849 7.90078 16.2764 7.90078H16.3671H16.39V7.94666C16.3671 8.01548 16.3671 8.08342 16.4128 8.15224C16.3671 8.17517 16.3442 8.17517 16.2993 8.19811C16.2535 8.22105 16.2087 8.22105 16.1629 8.22105C16.0942 8.22105 16.0265 8.19811 15.9578 8.22105C15.7756 8.28987 15.5934 8.26693 15.4113 8.22105C15.2977 8.17517 15.2062 8.22105 15.1384 8.28987C15.0927 8.35869 15.002 8.38075 14.9105 8.35869C14.7741 8.33575 14.6377 8.28987 14.4783 8.22193C14.3877 8.199 14.3419 8.13106 14.3419 8.0393C14.3419 7.97048 14.3648 7.90255 14.3648 7.83373C14.3877 7.69697 14.3877 7.58315 14.3648 7.46846C14.3419 7.37758 14.2742 7.3317 14.2055 7.30876C14.1369 7.28582 14.0691 7.3317 14.0004 7.37758C13.9098 7.46846 13.8411 7.53728 13.7505 7.58316C13.6818 7.62904 13.6369 7.69697 13.6818 7.83373C13.7047 7.87961 13.7276 7.90255 13.7276 7.92461L13.7505 7.97048C13.7734 7.99342 13.7734 8.0393 13.7505 8.06136C13.6598 8.17518 13.6818 8.24399 13.7505 8.35781C13.7734 8.38075 13.7734 8.42663 13.7734 8.44868C13.7734 8.5175 13.7505 8.5625 13.7047 8.58544C13.6589 8.60838 13.6141 8.60838 13.5454 8.60838H13.5225H13.4996H13.4768C13.4081 8.60838 13.3175 8.58544 13.2488 8.65426C13.1582 8.54044 13.0895 8.5175 12.9531 8.58544C12.8844 8.60838 12.8396 8.63132 12.7938 8.60838C12.7709 8.60838 12.7251 8.58544 12.7031 8.58544C12.6803 8.58544 12.6345 8.5625 12.6125 8.5625C12.5218 8.53956 12.4303 8.51662 12.3397 8.58544H12.3168L12.2939 8.5625C12.2939 8.5625 12.2939 8.53956 12.271 8.53956V8.51662C12.2481 8.42575 12.2024 8.37987 12.1346 8.35693C12.0659 8.33399 12.0211 8.35693 11.9295 8.4028C11.8838 8.42574 11.8389 8.42574 11.7931 8.37987C11.7473 8.33399 11.6796 8.26605 11.588 8.26605V8.24311C11.6109 8.15224 11.588 8.08342 11.5423 8.03754C11.4965 7.99166 11.4287 7.94666 11.3601 7.94666H11.2914H11.2457C11.2228 7.94666 11.177 7.94666 11.155 7.92372C11.0864 7.90078 10.9957 7.90078 10.9271 7.94666C10.9042 7.9696 10.8584 7.9696 10.8135 7.94666C10.7906 7.94666 10.7906 7.94666 10.7678 7.92372C10.7449 7.90078 10.6991 7.90078 10.6771 7.87784C10.6313 7.8549 10.5865 7.8549 10.5636 7.87784C10.5407 7.90078 10.5178 7.92372 10.5178 7.94666C10.4949 7.94666 10.4949 7.92372 10.472 7.92372L10.4492 7.90078C10.4034 7.87785 10.3805 7.87785 10.3356 7.85491C10.2899 7.85491 10.267 7.83197 10.245 7.78609C10.2899 7.78697 10.245 7.74109 10.1534 7.74109H10.0628C10.017 7.74109 9.97214 7.74109 9.94925 7.69521C9.92637 7.67227 9.8806 7.64933 9.8586 7.62639C9.78995 7.58051 9.72218 7.58051 9.6993 7.62639C9.67642 7.64933 9.65353 7.64933 9.60865 7.62639C9.58576 7.60345 9.54 7.58052 9.51799 7.55757C9.47223 7.53464 9.44934 7.48876 9.40446 7.4667C9.38158 7.44376 9.33581 7.42082 9.29092 7.42082C9.26804 7.42082 9.24516 7.39788 9.24516 7.37494C9.22227 7.30612 9.19939 7.26112 9.13162 7.23819L9.04097 7.19231C8.97232 7.16937 8.92743 7.14643 8.85879 7.12349C8.8359 7.10055 8.79014 7.10055 8.76813 7.07761C8.69948 7.00879 8.6546 6.94086 8.56306 6.91792C8.56306 6.87204 8.60883 6.8491 8.63171 6.8041C8.70036 6.73528 8.72237 6.66735 8.70036 6.57559C8.67748 6.52971 8.70036 6.50677 8.72325 6.50677C8.74613 6.48383 8.76901 6.46089 8.76901 6.4159C8.76901 6.32502 8.81478 6.2562 8.90543 6.18739C8.92831 6.16445 8.92831 6.16445 8.9512 6.14151C8.97408 6.11857 8.99696 6.09563 9.04185 6.07269L9.06473 6.04975C9.08761 6.04975 9.08761 6.02681 9.1105 6.02681C9.15626 6.00387 9.17915 5.95799 9.15626 5.913C9.15626 5.86712 9.13338 5.84418 9.08761 5.82212C9.06473 5.79918 9.04184 5.77624 8.99696 5.7533C8.97408 5.73036 8.97408 5.73036 8.95119 5.70742H8.92831C8.90543 5.68449 8.88255 5.66155 8.85966 5.66155C8.8139 5.63861 8.74613 5.61567 8.70036 5.61567L8.65459 5.59273V5.56979C8.65459 5.45597 8.60883 5.4101 8.49529 5.4101H8.47241C8.42664 5.31922 8.35887 5.27334 8.24446 5.29628C8.1987 5.29628 8.17581 5.29628 8.13092 5.2504V5.22746C8.10804 5.20452 8.08516 5.15864 8.04027 5.13659C8.01739 5.11365 7.99451 5.09071 7.99451 5.06777C7.94874 4.95395 7.88097 4.90807 7.76656 4.93101C7.74368 4.93101 7.7208 4.95395 7.69791 4.95395C7.72079 4.93101 7.74368 4.86308 7.67503 4.79426C7.65215 4.77132 7.65215 4.74838 7.67503 4.72544C7.72079 4.61162 7.69791 4.54281 7.60638 4.47486C7.56061 4.42899 7.53773 4.38399 7.53773 4.31517C7.53773 4.29223 7.56061 4.22429 7.51485 4.20135L7.56061 4.15547L7.58349 4.17841C7.60638 4.20135 7.60638 4.22429 7.62926 4.24723C7.69791 4.33811 7.78856 4.33811 7.87922 4.29311L7.9021 4.27017C7.92498 4.24723 7.94787 4.24723 7.97075 4.22429C7.99363 4.22429 7.99363 4.20136 8.01652 4.20136L8.0394 4.17842C8.10805 4.17842 8.15294 4.13254 8.15294 4.08754C8.17582 4.04166 8.15294 3.99667 8.13005 3.95079C8.08429 3.90491 8.08429 3.88197 8.08429 3.81403V3.79109V3.76815C8.08429 3.69933 8.08429 3.65434 8.03852 3.60846C8.01564 3.58552 7.96987 3.56258 7.9021 3.56258C7.87922 3.56258 7.87922 3.56258 7.87922 3.53964C7.87922 3.5167 7.85634 3.49376 7.83345 3.44877L7.81057 3.42583C7.81057 3.37995 7.78769 3.31201 7.7648 3.28907C7.7648 3.28907 7.76481 3.26613 7.74192 3.26613C7.78769 3.22026 7.81057 3.17526 7.81057 3.10644C7.85634 3.0835 7.87922 3.0835 7.92411 3.0835C8.08341 3.0835 8.15206 3.03762 8.19694 2.87793C8.21982 2.78705 8.26559 2.74117 8.33336 2.69529C8.35624 2.67235 8.37912 2.67235 8.37912 2.64941C8.40201 2.62647 8.42489 2.62647 8.44777 2.60353C8.58419 2.53472 8.65284 2.4209 8.65284 2.26121V2.23827V2.19239C8.65284 2.16946 8.67572 2.12358 8.67572 2.10152C8.72149 2.0327 8.74437 1.96476 8.69861 1.89595C8.7655 1.85536 8.71973 1.80948 8.62908 1.80948C8.58331 1.80948 8.51554 1.78654 8.46978 1.7636C8.37913 1.71772 8.31048 1.62685 8.24183 1.53509C8.17318 1.46628 8.10541 1.44422 8.01388 1.46628C7.96812 1.46628 7.94523 1.48921 7.90035 1.51215C7.87746 1.51215 7.85458 1.53509 7.8317 1.53509H7.80881C7.78593 1.53509 7.74016 1.55803 7.71816 1.55803C7.58174 1.58097 7.4682 1.62685 7.37668 1.69479C7.28603 1.76361 7.1945 1.78566 7.10385 1.76361H7.0352H6.98944L6.92079 1.74067C6.80725 1.71773 6.69284 1.69479 6.5793 1.64979C6.53354 1.62685 6.48865 1.60391 6.46577 1.55892C6.42 1.46804 6.37512 1.4451 6.28358 1.46804H6.23782C6.19205 1.46804 6.14717 1.46804 6.12428 1.4451C6.1014 1.42216 6.1014 1.37628 6.1014 1.33129C6.1014 1.28541 6.12428 1.21747 6.14717 1.14865C6.17005 1.07983 6.17005 1.0119 6.14717 0.96602C6.1014 0.852204 6.03363 0.783387 5.91922 0.737511C5.89634 0.737511 5.89634 0.714572 5.87345 0.714572C5.75991 0.668694 5.66838 0.645753 5.60062 0.554878C5.57774 0.509 5.50997 0.486059 5.4642 0.509C5.44132 0.509 5.44132 0.509 5.41844 0.531939C5.39555 0.531939 5.39556 0.554878 5.37267 0.554878H5.32691C5.25826 0.509 5.14472 0.486059 5.07695 0.531939C5.01006 0.622814 4.9194 0.645755 4.85076 0.668694H4.57793H4.44151H4.41863C4.32798 0.668694 4.21356 0.668694 4.12291 0.737513H4.07714H4.05426H3.98561H3.93984C3.84919 0.737513 3.78054 0.783391 3.73477 0.874269C3.73477 0.897208 3.71189 0.920147 3.68901 0.943088C3.57547 1.01191 3.52971 1.10278 3.52971 1.21659C3.52971 1.33041 3.59836 1.42216 3.71189 1.49009C3.73477 1.49009 3.75766 1.51303 3.75766 1.51303C3.78054 1.51303 3.82631 1.53597 3.84831 1.55891C3.96185 1.62773 4.07626 1.69567 4.14403 1.80949C4.16691 1.83242 4.1898 1.85537 4.21268 1.87831C4.21268 1.87831 4.23556 1.87831 4.23556 1.90124C4.23556 1.90124 4.25845 1.92418 4.28133 1.92418C4.28133 1.92418 4.30421 1.92418 4.30421 1.94712C4.34998 2.01594 4.41775 2.06094 4.53216 2.08388C4.55504 2.08388 4.57792 2.10682 4.60081 2.10682C4.62369 2.10682 4.64657 2.12976 4.66946 2.12976C4.69234 2.12976 4.71523 2.15269 4.69234 2.19857C4.69234 2.24445 4.66946 2.26739 4.66946 2.31239C4.66946 2.33533 4.64658 2.38121 4.64658 2.40327C4.60081 2.56296 4.60081 2.69972 4.66946 2.83648C4.69234 2.88235 4.69234 2.95029 4.69234 2.99617V3.04205V3.38437V3.40731C4.69234 3.45319 4.69234 3.49819 4.64658 3.52113C4.62369 3.54407 4.60081 3.58995 4.62369 3.612C4.64658 3.65788 4.69234 3.74876 4.80588 3.7717H4.82876V3.79464C4.80588 3.86345 4.85164 3.93139 4.89741 3.95433C4.92029 3.97727 4.96606 3.97727 4.98806 4.00021C4.98806 4.00021 5.01094 4.00021 5.01094 4.02315V4.04609V4.13696C5.01094 4.1599 5.01094 4.18284 5.03383 4.20578C5.05671 4.22872 5.07959 4.22872 5.10248 4.22872H5.19313H5.26178C5.33043 4.22872 5.37532 4.25166 5.42108 4.29754C5.3982 4.29754 5.37531 4.32048 5.35243 4.32048C5.28378 4.34342 5.21601 4.3893 5.12448 4.43429C5.01095 4.48017 4.91941 4.54811 4.85165 4.59399C4.80589 4.61693 4.80589 4.63987 4.80589 4.66281C4.80589 4.68575 4.80589 4.70868 4.85165 4.73163C4.94231 4.77751 4.94231 4.8225 4.89742 4.89132C4.85165 4.96014 4.80677 5.02808 4.761 5.09689C4.73812 5.11983 4.71523 5.14277 4.69235 5.16571C4.53305 5.34835 4.37374 5.55393 4.32798 5.80449C4.12291 5.82743 4.03226 5.9183 3.94071 6.10094C3.91783 6.16975 3.89494 6.23769 3.87206 6.30651C3.8263 6.42033 3.75853 6.51208 3.64411 6.55709C3.57546 6.58002 3.53058 6.62591 3.46193 6.64796C3.34839 6.71678 3.25686 6.80766 3.21197 6.89854C3.18909 6.94442 3.14332 7.01235 3.12132 7.08117C3.03067 7.21793 2.91625 7.28674 2.77984 7.28674C2.64342 7.28674 2.52988 7.30968 2.41547 7.35556H2.3697C2.27905 7.3785 2.25616 7.35556 2.2104 7.28674V7.26381C2.18752 7.24087 2.18752 7.21793 2.16463 7.19499C2.11887 7.12617 2.0511 7.10411 1.95956 7.12617C1.93668 7.12617 1.89091 7.14911 1.89091 7.19499C1.89091 7.21793 1.86803 7.24087 1.86803 7.24087C1.75449 7.28674 1.73161 7.37762 1.70873 7.46938C1.68585 7.56025 1.66296 7.60613 1.57231 7.62907C1.43589 7.67495 1.36724 7.78876 1.34436 7.92552C1.32148 8.03934 1.32148 8.13109 1.39013 8.19902C1.43589 8.26784 1.52655 8.31284 1.64009 8.33578H1.66297C1.68585 8.33578 1.70874 8.33578 1.73162 8.35871C1.73162 8.35871 1.7545 8.35872 1.7545 8.38165C1.7545 8.40459 1.73162 8.42753 1.73162 8.45047C1.70874 8.51929 1.68586 8.58723 1.68586 8.67898C1.66297 8.86162 1.73162 8.99838 1.93582 9.04425H1.9587C1.98158 9.04425 2.00447 9.04425 2.02735 9.06719C2.07311 9.06719 2.096 9.11307 2.096 9.15807V9.18101C2.096 9.24983 2.11888 9.3407 2.14176 9.40952C2.18753 9.54627 2.21041 9.68302 2.23242 9.84273C2.23242 9.95654 2.23242 9.95654 2.11888 9.97948C2.11888 9.97948 2.096 9.97948 2.096 9.95654C2.05023 9.88772 2.00534 9.86567 1.93669 9.86567C1.80028 9.86567 1.68673 9.88861 1.59521 9.95654C1.54945 10.0024 1.50456 10.0024 1.43591 9.95654C1.25373 9.86567 1.07154 9.84273 0.912244 9.81979C0.821592 9.81979 0.775825 9.81979 0.752942 9.86567C0.707177 9.91154 0.707177 9.95654 0.707177 10.0483V10.0942H0.684295H0.661412H0.615647C0.50211 10.0942 0.3877 10.163 0.365687 10.2768C0.342804 10.3677 0.365687 10.4824 0.456338 10.5503C0.479221 10.5503 0.479221 10.5733 0.479221 10.5962C0.502104 10.7559 0.61564 10.8247 0.707168 10.8697C0.752933 10.8926 0.79782 10.9156 0.843587 10.9606C0.86647 10.9835 0.889352 10.9835 0.912237 11.0064C0.93512 11.0294 0.980887 11.0523 1.00289 11.0523C1.04865 11.0753 1.09354 11.1211 1.16219 11.1432C1.25284 11.1891 1.32149 11.1891 1.41215 11.1432C1.45792 11.1203 1.4808 11.1203 1.52569 11.0973C1.59434 11.0744 1.66211 11.0744 1.70787 11.0973C1.68499 11.1203 1.66211 11.1203 1.63922 11.1203C1.57057 11.1203 1.5028 11.1661 1.45704 11.2111C1.41127 11.257 1.36639 11.28 1.29774 11.302H1.25197C1.18332 11.302 1.11555 11.3249 1.0469 11.3479C1.00113 11.3708 1.00113 11.3708 0.956249 11.302C0.910484 11.2332 0.865598 11.2111 0.774065 11.2332C0.705415 11.2561 0.683414 11.302 0.683414 11.3929C0.683414 11.4838 0.729179 11.5755 0.79695 11.6435C0.822473 11.6655 0.822473 11.6655 0.845356 11.6885C0.868239 11.7114 0.891121 11.7343 0.914006 11.7573C1.02754 11.894 1.11907 12.0308 1.20973 12.1455L1.39191 12.374C1.41479 12.4199 1.46056 12.4428 1.48256 12.4878C1.71051 12.7384 1.96047 12.8072 2.27908 12.6934C2.30196 12.6705 2.34773 12.6705 2.36973 12.6475C2.43838 12.6246 2.48327 12.6016 2.55192 12.5787C2.66545 12.5558 2.75699 12.5099 2.84764 12.4649C2.87052 12.4419 2.8934 12.4419 2.93829 12.419C2.98406 12.3961 3.02894 12.3502 3.02894 12.2822V12.2364V12.1226C3.05182 12.0317 3.02894 11.9629 2.98318 11.894V11.8711L3.00606 11.8482C3.09671 11.8023 3.1196 11.7114 3.09671 11.6197L3.16536 11.6426V11.6655V11.7564V11.8023C3.1196 11.962 3.1196 12.0079 3.23401 12.0758C3.14336 12.1667 3.12047 12.2355 3.18825 12.3722C3.21113 12.4181 3.23401 12.4631 3.2569 12.509C3.30266 12.5778 3.30266 12.6458 3.30266 12.7375C3.30266 12.7604 3.30266 12.8063 3.27978 12.8284C3.2569 12.9422 3.23401 13.034 3.18913 13.1478C3.14336 13.2387 3.12048 13.3304 3.14336 13.4442C3.18913 13.6269 3.18913 13.8324 3.18913 13.9921C3.18913 14.0151 3.18913 14.083 3.25778 14.1059V14.1289C3.18913 14.2427 3.18913 14.3345 3.25778 14.4712C3.28066 14.4942 3.28066 14.54 3.28066 14.5621C3.28066 14.6988 3.30354 14.8127 3.32642 14.9274V14.9503C3.34931 15.0412 3.37219 15.1329 3.37219 15.2238V15.3835V15.5661C3.39507 15.7488 3.44084 15.9543 3.46284 16.1361V16.159C3.48572 16.2958 3.53149 16.4096 3.59926 16.4784L3.62214 16.5014C3.66791 16.5472 3.69079 16.5702 3.66791 16.6152V16.661C3.66791 16.684 3.66791 16.684 3.69079 16.7069C3.69079 16.7528 3.71367 16.7757 3.71367 16.8207C3.73656 17.0492 3.82721 17.254 3.9865 17.3907C4.05515 17.4595 4.07715 17.5274 4.10004 17.6192C4.12292 17.7101 4.12292 17.8248 4.16869 17.9156C4.23734 18.0524 4.25934 18.1891 4.25934 18.3259C4.25934 18.5315 4.28222 18.7141 4.37288 18.8959C4.46353 19.0785 4.55506 19.2611 4.64571 19.4658C4.66859 19.5117 4.71436 19.5567 4.75924 19.6026C4.80501 19.6255 4.82789 19.6714 4.82789 19.7393C4.85078 19.8302 4.87366 19.8761 4.89654 19.9449C4.96519 20.0587 5.01008 20.1734 5.05584 20.2872C5.07873 20.356 5.10161 20.401 5.12449 20.4699C5.14738 20.5157 5.14738 20.5387 5.17026 20.5837C5.19314 20.6295 5.19314 20.6975 5.21602 20.7434C5.21602 20.7663 5.23891 20.8122 5.23891 20.8572C5.23891 20.9031 5.23891 20.926 5.26179 20.971C5.28467 21.0398 5.28467 21.0848 5.30755 21.1536C5.33044 21.1995 5.33044 21.2445 5.33044 21.2904C5.35332 21.3592 5.35332 21.4042 5.3762 21.473C5.39909 21.5868 5.42197 21.7236 5.46685 21.8383C5.5355 22.0668 5.64904 22.2265 5.83123 22.2944C5.94476 22.3403 6.0363 22.3853 6.14984 22.4541C6.1956 22.4771 6.26338 22.5 6.33202 22.5C6.35491 22.5 6.37779 22.5 6.42268 22.4771C6.53621 22.4312 6.65062 22.3862 6.76416 22.2715C6.80992 22.2256 6.80992 22.1577 6.78704 22.1118V22.0889C6.78704 22.043 6.76416 21.998 6.76416 21.9521C6.76416 21.8833 6.78704 21.8383 6.80992 21.7695V21.7465C6.8328 21.6777 6.87857 21.6556 6.94634 21.6556C7.08276 21.6786 7.21917 21.6327 7.33361 21.6098C7.42426 21.5868 7.47002 21.541 7.44714 21.4271C7.42426 21.3363 7.44714 21.2674 7.51579 21.2216C7.60644 21.1077 7.69798 20.9931 7.74374 20.8563C7.74374 20.8334 7.76662 20.8104 7.81239 20.8104C7.88104 20.8104 7.94881 20.8104 8.01746 20.8334C8.04034 20.8334 8.08611 20.8334 8.08611 20.8104C8.08611 20.8104 8.10899 20.7875 8.10899 20.7645V20.7416C8.10899 20.6728 8.13187 20.6278 8.10899 20.559C8.08611 20.4222 8.08611 20.3084 8.08611 20.1937C8.10899 20.0799 8.10899 19.9431 8.06323 19.8284C8.01746 19.7375 8.04034 19.6458 8.10899 19.532C8.19964 19.3952 8.26829 19.2585 8.33694 19.1438L8.35982 19.0979C8.40559 19.007 8.42847 18.9152 8.40559 18.8244C8.40559 18.8014 8.40559 18.7556 8.42847 18.7106C8.47424 18.6197 8.49712 18.5279 8.47424 18.4371C8.45135 18.3912 8.45135 18.3462 8.42847 18.2774C8.40559 18.2085 8.40559 18.1635 8.42847 18.1177C8.47424 18.0268 8.47424 17.935 8.40559 17.8671C8.35982 17.8212 8.35982 17.7762 8.3827 17.7074C8.42847 17.5706 8.42847 17.4339 8.35982 17.2742C8.33694 17.2054 8.31406 17.1604 8.33694 17.1145C8.3827 17.0236 8.3827 16.9548 8.3827 16.841C8.3827 16.7951 8.38271 16.7722 8.42847 16.7501H8.45135C8.47424 16.7501 8.47424 16.7501 8.49712 16.7272C8.52 16.7272 8.54288 16.7042 8.54288 16.7042C8.58865 16.6813 8.61153 16.6584 8.65642 16.6584H8.6793C8.70218 16.6813 8.70218 16.6813 8.72507 16.7042C8.74795 16.7272 8.77083 16.7501 8.79372 16.7501C8.83948 16.7731 8.88437 16.7731 8.93014 16.7731C8.95302 16.7731 8.9759 16.7501 8.99879 16.7272C9.02167 16.6813 9.02167 16.6363 9.04455 16.6134C9.06743 16.5675 9.06743 16.5225 9.09032 16.4766C9.09032 16.4537 9.1132 16.4307 9.1132 16.4307C9.15897 16.4078 9.18185 16.3848 9.18185 16.3399V16.294H9.22761C9.2505 16.294 9.2505 16.294 9.27338 16.3169C9.29626 16.3169 9.31915 16.3399 9.34203 16.3399C9.34203 16.3399 9.41068 16.3399 9.43268 16.3169C9.45556 16.271 9.50133 16.271 9.54622 16.271H9.61487H9.68352C9.79705 16.271 9.88859 16.2252 9.93348 16.1343C9.97924 16.0205 10.0021 15.9058 9.95636 15.792C9.93348 15.769 9.95636 15.7461 9.97924 15.7231L10.0021 15.7002C10.025 15.6773 10.0479 15.6773 10.0708 15.6543C10.1165 15.6084 10.1843 15.5634 10.2758 15.5405C10.458 15.4946 10.5716 15.4037 10.6402 15.2441C10.7089 15.1073 10.7995 15.0155 10.9588 14.9706H10.9817H11.0046C11.0952 14.9247 11.1868 14.8797 11.2546 14.7879C11.2774 14.765 11.3003 14.742 11.3232 14.7191C11.3461 14.6962 11.369 14.6732 11.3919 14.6282C11.3919 14.6053 11.4147 14.6053 11.4147 14.5823C11.4605 14.5365 11.5054 14.4685 11.5283 14.3997C11.574 14.263 11.6647 14.1491 11.7562 14.0574C11.8698 13.9436 12.0062 13.8289 12.1655 13.738C12.1884 13.7151 12.2341 13.7151 12.279 13.6921C12.3697 13.6692 12.4612 13.6462 12.5747 13.6233L12.6654 13.6004C12.756 13.5774 12.8018 13.5315 12.8476 13.4636C12.8705 13.4177 12.8933 13.3948 12.9162 13.3727C12.962 13.3269 13.0069 13.2819 13.0298 13.213C13.0298 13.1672 13.0526 13.1222 13.1204 13.0992C13.1433 13.0763 13.1662 13.0763 13.1891 13.0533C13.2348 13.0075 13.2797 12.9625 13.2797 12.9166C13.2797 12.8707 13.2797 12.8028 13.2339 12.7569C13.2111 12.734 13.2111 12.711 13.1882 12.6881L13.1653 12.6651C13.1424 12.6422 13.1424 12.6193 13.1424 12.5743C13.1424 12.5513 13.1653 12.5284 13.1882 12.5054C13.2111 12.5054 13.2111 12.4825 13.2339 12.4825C13.3026 12.4366 13.3475 12.3916 13.3704 12.3228C13.3704 12.2999 13.3932 12.2769 13.439 12.2769C13.5525 12.254 13.6441 12.254 13.7576 12.231H13.8483C13.8712 12.2769 13.9169 12.3219 13.9847 12.3219C14.0533 12.3219 14.1211 12.276 14.1211 12.2081H14.1898C14.2126 12.231 14.2355 12.254 14.2355 12.254H14.2584C14.2813 12.231 14.3042 12.254 14.3491 12.254H14.3719C14.3719 12.254 14.4177 12.254 14.4406 12.231C14.4635 12.2081 14.4635 12.2081 14.4864 12.231H14.5092C14.5779 12.254 14.6228 12.231 14.6457 12.1852C14.6685 12.1393 14.6685 12.0943 14.6457 12.0255C14.5999 11.9346 14.5999 11.9346 14.6685 11.8658C14.6914 11.8428 14.7143 11.797 14.7143 11.752C14.7143 11.729 14.6914 11.7061 14.6685 11.6831C14.5999 11.6373 14.5999 11.5923 14.5999 11.4776C14.5999 11.4087 14.577 11.3179 14.5312 11.2041C14.5084 11.1582 14.4855 11.1132 14.5084 11.0673C14.5312 11.0214 14.5312 10.9764 14.5084 10.9535C14.4855 10.9306 14.4626 10.9076 14.3948 10.8847H14.3719C14.4177 10.7938 14.3948 10.7479 14.3033 10.6791L14.2804 10.6562C14.2575 10.6103 14.2804 10.5873 14.3033 10.5423C14.3939 10.4735 14.3719 10.4285 14.3262 10.3597C14.3262 10.2909 14.3262 10.2459 14.2804 10.1771C14.2346 10.1083 14.1669 10.0862 14.0753 10.0633C14.0525 10.0633 14.0296 10.0403 14.0067 10.0174C13.9609 9.99444 13.938 9.94856 13.916 9.92651L13.8932 9.90357L13.8703 9.88063C13.8703 9.85769 13.8932 9.83475 13.8932 9.83475C13.9618 9.81181 14.0067 9.78887 14.0525 9.74387C14.0982 9.698 14.1211 9.67506 14.1211 9.60712V9.58418H14.1669C14.2355 9.58418 14.3033 9.58418 14.3491 9.56124C14.3948 9.56124 14.4397 9.51536 14.4397 9.47037C14.4626 9.42449 14.4397 9.37949 14.4168 9.35655C14.3939 9.33361 14.3711 9.33361 14.3482 9.31067C14.3482 9.2198 14.3024 9.19685 14.2118 9.19685H14.1211C14.0753 9.10598 14.0076 9.08304 13.9389 9.0601C13.916 9.0601 13.8932 9.03716 13.8703 9.03716C13.916 9.01422 13.9389 8.94629 13.916 8.87747L13.9389 8.85453C14.0076 8.80865 14.0296 8.76365 14.0525 8.69483V8.6719H14.0753C14.0753 8.6719 14.0982 8.6719 14.0982 8.69483C14.1211 8.71777 14.144 8.71777 14.1669 8.71777H14.1898C14.2126 8.74071 14.2584 8.76365 14.3033 8.76365C14.3939 8.76365 14.3939 8.74071 14.4168 8.67278C14.4168 8.69571 14.4397 8.69571 14.4397 8.71865C14.4626 8.76453 14.4855 8.83247 14.5304 8.85541C14.599 8.87835 14.6668 8.90129 14.7354 8.92423H14.8261C14.849 8.90129 14.849 8.85541 14.849 8.83335V8.81041H14.8718V8.83335C14.8718 8.85629 14.8947 8.90217 14.8947 8.92423C14.9176 8.97011 14.9176 8.99305 14.8947 9.0151C14.8261 9.10598 14.8261 9.24361 14.8718 9.3345C14.9176 9.44832 15.0083 9.51713 15.1218 9.54007C15.2811 9.56301 15.4175 9.58595 15.554 9.58595C15.6904 9.58595 15.8268 9.56301 15.9412 9.56301C15.987 9.56301 16.0099 9.56301 16.0548 9.54007H16.0776C16.1683 9.54007 16.2598 9.51714 16.3505 9.54007C16.4411 9.56301 16.5327 9.56301 16.6004 9.54007H16.6462C16.5555 9.60889 16.5327 9.69977 16.5098 9.76858C16.5098 9.79152 16.5098 9.79152 16.4869 9.81446V9.86034C16.464 9.97416 16.3734 10.0659 16.2369 10.0888C16.0776 10.1347 15.8954 10.2256 15.8726 10.4771V10.5V10.5688C15.8726 10.6597 15.8497 10.7515 15.8954 10.8194C15.9641 10.9332 16.0547 11.025 16.1454 11.0929C16.2361 11.1617 16.3733 11.1388 16.464 11.047C16.5098 11.0011 16.5098 10.9332 16.464 10.8873C16.464 10.8873 16.464 10.8644 16.4411 10.8644C16.4869 10.7956 16.5318 10.7047 16.5318 10.6138H16.6224V10.6368C16.6224 10.6597 16.6453 10.7056 16.6453 10.7276C16.6682 10.9103 16.6911 11.047 16.7817 11.1838C16.8046 11.2067 16.8046 11.2526 16.8046 11.2746V11.3205V11.3893C16.8046 11.4352 16.8275 11.5032 16.8275 11.572C16.8275 11.5949 16.8733 11.6408 16.8961 11.6628C16.9419 11.6858 17.0097 11.7087 17.0555 11.7317C17.1241 11.7546 17.169 11.7546 17.2148 11.6858C17.3054 11.549 17.3969 11.3893 17.3283 11.1608C17.3054 11.07 17.3054 11.0011 17.3512 10.9103C17.3741 10.8873 17.3741 10.8644 17.3969 10.8414C17.4427 10.7726 17.4656 10.6817 17.4427 10.5909C17.4427 10.522 17.4198 10.4541 17.4198 10.3853V10.3394H17.4427C17.4656 10.3165 17.4885 10.3165 17.4885 10.2935C17.4885 10.2706 17.4885 10.2706 17.5113 10.2706H17.5571C17.58 10.2706 17.6029 10.2935 17.6478 10.2935C17.6935 10.3165 17.7164 10.3165 17.7613 10.3394C17.852 10.3623 17.9206 10.3394 17.9664 10.2485C17.9893 10.2027 18.0121 10.1577 18.0121 10.1118C18.035 10.0209 18.0579 9.95208 18.0808 9.8612C18.1266 9.63269 18.1943 9.40507 18.2172 9.17656V9.15362C18.3536 9.0848 18.4223 8.94804 18.49 8.8113C18.5587 8.6516 18.5807 8.51484 18.5129 8.37808V8.35514C18.5129 8.30927 18.5129 8.28632 18.5358 8.26427C18.5587 8.24133 18.5816 8.21839 18.6045 8.19545C18.6273 8.17251 18.6273 8.14957 18.6502 8.14957L18.6731 8.12663C18.696 8.10369 18.7189 8.08076 18.7638 8.05781C18.8544 8.01194 18.9231 7.96694 18.9688 7.85224C18.9917 7.76136 19.0595 7.73842 19.151 7.71548C19.2645 7.71548 19.3332 7.69254 19.401 7.62461C19.4238 7.60167 19.4467 7.60167 19.4467 7.60167C19.4696 7.60167 19.4696 7.62461 19.4925 7.64755C19.4925 7.64755 19.5154 7.67049 19.5154 7.69343V7.71636C19.5383 7.76224 19.5611 7.78518 19.606 7.80724C19.6518 7.83018 19.6747 7.80724 19.7196 7.7843C19.7424 7.76136 19.7653 7.76136 19.7653 7.71548C19.7653 7.69254 19.7653 7.6696 19.7424 7.64666C19.7196 7.62372 19.6967 7.60078 19.6738 7.57784L19.6509 7.5549C19.5374 7.41815 19.5374 7.39521 19.6738 7.2814C19.8718 7.30787 19.9175 7.23906 19.9624 7.19407Z" fill="#68698A"/>
</svg>
