<svg width="20" height="21" viewBox="0 0 20 21" fill="none" xmlns="http://www.w3.org/2000/svg">
<path d="M15 4.5H20V6.5H18V19.5C18 19.7652 17.8946 20.0196 17.7071 20.2071C17.5196 20.3946 17.2652 20.5 17 20.5H3C2.73478 20.5 2.48043 20.3946 2.29289 20.2071C2.10536 20.0196 2 19.7652 2 19.5V6.5H0V4.5H5V1.5C5 1.23478 5.10536 0.98043 5.29289 0.792893C5.48043 0.605357 5.73478 0.5 6 0.5H14C14.2652 0.5 14.5196 0.605357 14.7071 0.792893C14.8946 0.98043 15 1.23478 15 1.5V4.5ZM16 6.5H4V18.5H16V6.5ZM7 2.5V4.5H13V2.5H7Z" fill="#FD4539"/>
</svg>
