<svg width="22" height="22" viewBox="0 0 22 22" fill="none" xmlns="http://www.w3.org/2000/svg">
<path d="M7.33333 0H4.58333C2.05608 0 0 2.05608 0 4.58333V7.33333C0 8.34442 0.82225 9.16667 1.83333 9.16667H7.33333C8.34442 9.16667 9.16667 8.34442 9.16667 7.33333V1.83333C9.16667 0.82225 8.34442 0 7.33333 0ZM1.83333 7.33333V4.58333C1.83333 3.06717 3.06717 1.83333 4.58333 1.83333H7.33333V7.33333H1.83333ZM12.8333 9.16667H18.3333C19.3444 9.16667 20.1667 8.34442 20.1667 7.33333V4.58333C20.1667 2.05608 18.1106 0 15.5833 0H12.8333C11.8223 0 11 0.82225 11 1.83333V7.33333C11 8.34442 11.8223 9.16667 12.8333 9.16667ZM12.8333 1.83333H15.5833C17.0995 1.83333 18.3333 3.06717 18.3333 4.58333V7.33333H12.8333V1.83333ZM7.33333 11H1.83333C0.82225 11 0 11.8223 0 12.8333V15.5833C0 18.1106 2.05608 20.1667 4.58333 20.1667H7.33333C8.34442 20.1667 9.16667 19.3444 9.16667 18.3333V12.8333C9.16667 11.8223 8.34442 11 7.33333 11ZM4.58333 18.3333C3.06717 18.3333 1.83333 17.0995 1.83333 15.5833V12.8333H7.33333V18.3333H4.58333ZM21.7314 20.4352L19.4031 18.1069C19.8834 17.3818 20.1667 16.5156 20.1667 15.5833C20.1667 13.0561 18.1106 11 15.5833 11C13.0561 11 11 13.0561 11 15.5833C11 18.1106 13.0561 20.1667 15.5833 20.1667C16.5156 20.1667 17.3818 19.8834 18.1069 19.4031L20.4352 21.7314C20.614 21.9102 20.8487 22 21.0833 22C21.318 22 21.5527 21.9102 21.7314 21.7314C22.0898 21.373 22.0898 20.7937 21.7314 20.4352ZM12.8333 15.5833C12.8333 14.0672 14.0672 12.8333 15.5833 12.8333C17.0995 12.8333 18.3333 14.0672 18.3333 15.5833C18.3333 17.0995 17.0995 18.3333 15.5833 18.3333C14.0672 18.3333 12.8333 17.0995 12.8333 15.5833Z" fill="#626BCC"/>
</svg>
