<svg width="19" height="15" viewBox="0 0 19 15" fill="none" xmlns="http://www.w3.org/2000/svg">
<path d="M7.87691 3.74205L5.16184 5.96398H2.28211V9.16102H5.16184L7.87691 11.383V3.74205ZM4.59117 10.7595H1.48285C1.27088 10.7595 1.06758 10.6753 0.917691 10.5254C0.767801 10.3755 0.683594 10.1722 0.683594 9.96027V5.16473C0.683594 4.95275 0.767801 4.74946 0.917691 4.59957C1.06758 4.44968 1.27088 4.36547 1.48285 4.36547H4.59117L8.82244 0.903083C8.88098 0.855085 8.95196 0.824705 9.0271 0.815479C9.10224 0.806253 9.17846 0.818561 9.24688 0.850969C9.3153 0.883378 9.3731 0.934554 9.41356 0.99854C9.45403 1.06253 9.47548 1.13669 9.47543 1.2124V13.9126C9.47548 13.9883 9.45403 14.0625 9.41356 14.1265C9.3731 14.1904 9.3153 14.2416 9.24688 14.274C9.17846 14.3064 9.10224 14.3187 9.0271 14.3095C8.95196 14.3003 8.88098 14.2699 8.82244 14.2219L4.59196 10.7595H4.59117ZM15.3947 14.0637L14.263 12.9319C15.0207 12.2578 15.6268 11.4306 16.0415 10.5051C16.4562 9.57959 16.67 8.57668 16.6688 7.5625C16.6697 6.49636 16.4333 5.44339 15.9765 4.48006C15.5197 3.51673 14.8541 2.66723 14.028 1.99327L15.1629 0.858325C16.1368 1.6828 16.9191 2.70979 17.4553 3.86769C17.9914 5.02558 18.2685 6.2865 18.2673 7.5625C18.2673 10.1385 17.1595 12.4556 15.3947 14.0637ZM12.563 11.2319L11.4264 10.0953C11.8144 9.79699 12.1286 9.41337 12.3447 8.97417C12.5608 8.53498 12.6729 8.05197 12.6725 7.5625C12.6725 6.41956 12.073 5.41649 11.1699 4.85142L12.32 3.70129C12.9254 4.14662 13.4175 4.72821 13.7564 5.399C14.0953 6.06979 14.2716 6.81094 14.271 7.5625C14.271 9.03473 13.6076 10.3519 12.563 11.2319Z" fill="#626BCC"/>
</svg>
