<svg width="20" height="21" viewBox="0 0 20 21" fill="none" xmlns="http://www.w3.org/2000/svg">
<path d="M17.1429 14.7857H19.0476V16.6905H0V14.7857H1.90476V8.11905C1.90476 6.09835 2.70748 4.16042 4.13633 2.73157C5.56518 1.30272 7.50311 0.5 9.52381 0.5C11.5445 0.5 13.4824 1.30272 14.9113 2.73157C16.3401 4.16042 17.1429 6.09835 17.1429 8.11905V14.7857ZM15.2381 14.7857V8.11905C15.2381 6.60352 14.6361 5.15007 13.5644 4.07844C12.4928 3.0068 11.0393 2.40476 9.52381 2.40476C8.00829 2.40476 6.55484 3.0068 5.4832 4.07844C4.41156 5.15007 3.80952 6.60352 3.80952 8.11905V14.7857H15.2381ZM6.66667 18.5952H12.381V20.5H6.66667V18.5952Z" fill="#68698A"/>
</svg>
