<svg width="25" height="23" viewBox="0 0 25 23" fill="none" xmlns="http://www.w3.org/2000/svg">
<path d="M23.098 1.32671C22.399 0.813328 21.4921 0.662072 20.6599 0.92105L10.1152 4.4619H2.80105C1.25463 4.4619 0 5.69378 0 7.21215V14.5461C0 16.0645 1.25463 17.2964 2.80105 17.2964H4.66842V20.0466C4.66842 21.565 5.92305 22.7969 7.46947 22.7969H11.2042C12.7506 22.7969 14.0052 21.565 14.0052 20.0466V18.2613L20.8527 19.9744L20.876 19.9802C21.0721 20.0237 21.2728 20.0466 21.4747 20.0466C22.0933 20.0455 22.6943 19.8369 23.1764 19.4553C23.8778 18.9018 24.2828 18.0642 24.2758 17.1806V3.66205C24.2804 2.74416 23.8438 1.87905 23.098 1.32671ZM1.86713 14.5461V7.21209C1.86713 6.70557 2.28494 6.29534 2.80081 6.29534H9.33659V15.4628H2.80081C2.28494 15.4628 1.86713 15.0526 1.86713 14.5461ZM12.1376 20.0466C12.1376 20.2895 12.0396 20.5233 11.8645 20.6952C11.6895 20.8671 11.4514 20.9633 11.204 20.9633H7.46924C6.95337 20.9633 6.53556 20.5531 6.53556 20.0466V17.2963H10.1535L12.1375 17.7936L12.1376 20.0466ZM22.4082 17.1806C22.414 17.506 22.2681 17.8166 22.0125 18.0229C21.8129 18.1821 21.5515 18.2452 21.2994 18.1936L11.204 15.6668V6.03405L21.2316 2.66511C21.4907 2.58719 21.772 2.63761 21.9855 2.80033C22.2586 3.00431 22.4162 3.32518 22.408 3.66208L22.4082 17.1806Z" fill="#3A3B4C"/>
</svg>
