<svg width="19" height="23" viewBox="0 0 19 23" fill="none" xmlns="http://www.w3.org/2000/svg">
                <title>Ask eVa</title>
                <path d="M13.9155 12.6323C14.2731 12.5048 14.5125 12.1637 14.5125 11.784C14.5125 11.4044 14.2722 11.0633 13.9164 10.9358L12.2805 10.3462C10.6647 9.76478 9.40473 8.50298 8.82255 6.88826L8.23292 5.25231C8.10453 4.89652 7.76433 4.65625 7.38651 4.65625H7.3856C7.00687 4.65625 6.66667 4.89558 6.53736 5.25231L5.94865 6.88826C5.36634 8.50402 4.10546 9.76492 2.4898 10.3462L0.855705 10.9358C0.498082 11.0642 0.257812 11.4044 0.257812 11.784C0.257812 12.1637 0.498059 12.5039 0.853874 12.6323L2.48982 13.2219C4.10558 13.8033 5.36555 15.0642 5.94773 16.6798L6.53736 18.3167C6.66575 18.6725 7.00687 18.9118 7.3856 18.9118H7.38651C7.76524 18.9118 8.10545 18.6716 8.23292 18.3158L8.82255 16.6798C9.40394 15.0641 10.6657 13.8041 12.2805 13.2219L13.9155 12.6323ZM11.7835 11.8409C9.75506 12.5717 8.17226 14.1536 7.44241 16.1819L7.38555 16.3406L7.3287 16.1819C6.59693 14.1535 5.01509 12.5707 2.98765 11.8409L2.829 11.784L2.98765 11.7272C5.01605 10.9963 6.59885 9.41449 7.3287 7.38613L7.38555 7.22749L7.44241 7.38613C8.17327 9.41454 9.7551 10.9973 11.7835 11.7272L11.9421 11.784L11.7835 11.8409Z" fill="#68698A"></path>
                <path d="M11.3955 5.53776L12.2235 5.8367C12.9406 6.0953 13.4982 6.65376 13.7568 7.36992L14.0548 8.19705C14.1712 8.52166 14.4812 8.739 14.825 8.739C15.1689 8.739 15.4798 8.52075 15.5953 8.19796L15.8943 7.36992C16.1529 6.65282 16.7113 6.09436 17.4275 5.8367L18.2564 5.53776C18.5783 5.4213 18.7966 5.11227 18.7975 4.76932C18.7984 4.42637 18.5829 4.11643 18.2564 3.99719L17.4275 3.70009C16.7113 3.44149 16.1528 2.88303 15.8943 2.16687L15.5953 1.33883C15.4789 1.01421 15.1698 0.796875 14.826 0.796875C14.4812 0.796875 14.1712 1.01512 14.0557 1.33791L13.7568 2.16596C13.4982 2.88306 12.9397 3.44059 12.2235 3.69918L11.3927 3.99811C11.0699 4.11549 10.8526 4.42543 10.8535 4.76932C10.8554 5.11319 11.0727 5.42222 11.3955 5.53776ZM14.8259 3.33146C15.1735 3.92752 15.6677 4.42085 16.262 4.76749C15.6659 5.11504 15.1726 5.60929 14.8259 6.20352C14.4784 5.60838 13.9841 5.11413 13.3899 4.76749C13.9851 4.41994 14.4784 3.9266 14.8259 3.33146Z" fill="#68698A"></path>
                <path d="M18.2555 18.0606L17.4275 17.7617C16.7113 17.5031 16.1528 16.9446 15.8942 16.2285L15.5953 15.4004C15.4788 15.0767 15.1689 14.8594 14.825 14.8594C14.4802 14.8594 14.1703 15.0776 14.0548 15.4004L13.7558 16.2285C13.4972 16.9456 12.9388 17.504 12.2226 17.7617L11.3955 18.0597C11.0718 18.1752 10.8544 18.4852 10.8535 18.8281C10.8526 19.1711 11.069 19.482 11.3946 19.6003L12.2226 19.8992C12.9397 20.1578 13.4982 20.7153 13.7558 21.4324L14.0538 22.2595C14.1721 22.5832 14.4812 22.8015 14.826 22.8015C15.1708 22.8015 15.4807 22.5833 15.5962 22.2605L15.8952 21.4324C16.1538 20.7162 16.7122 20.1578 17.4284 19.8992L18.2601 19.6003C18.582 19.482 18.7984 19.1729 18.7975 18.8291C18.7975 18.4852 18.5783 18.1771 18.2555 18.0606ZM14.826 20.2669C14.4784 19.6709 13.9842 19.1775 13.39 18.8309C13.9851 18.4833 14.4794 17.9891 14.826 17.3949C15.1735 17.99 15.6678 18.4842 16.262 18.8309C15.6678 19.1784 15.1735 19.6718 14.826 20.2669Z" fill="#68698A"></path>
              </svg>
              