<svg width="18" height="16" viewBox="0 0 18 16" fill="none" xmlns="http://www.w3.org/2000/svg">
<path d="M10.7711 5.53601H15.5839C15.9828 5.53601 16.3654 5.69447 16.6474 5.97653C16.9295 6.25858 17.0879 6.64113 17.0879 7.04001V8.62222C17.0881 8.81877 17.0498 9.01344 16.9751 9.19525L14.6477 14.8465C14.5909 14.9843 14.4945 15.1021 14.3707 15.185C14.2468 15.2679 14.1011 15.3121 13.9521 15.312H1.29595C1.0965 15.312 0.905228 15.2328 0.764201 15.0918C0.623174 14.9507 0.543945 14.7595 0.543945 14.56V7.04001C0.543945 6.84057 0.623174 6.6493 0.764201 6.50827C0.905228 6.36724 1.0965 6.28801 1.29595 6.28801H3.91441C4.0348 6.28804 4.15344 6.25917 4.26035 6.20382C4.36727 6.14846 4.45933 6.06825 4.52879 5.96992L8.62945 0.159214C8.68129 0.0857528 8.75773 0.0332991 8.84493 0.011363C8.93212 -0.010573 9.02428 -0.000539066 9.10471 0.0396455L10.4688 0.72171C10.8527 0.913592 11.1594 1.23105 11.338 1.62134C11.5165 2.01163 11.5561 2.45125 11.4502 2.86717L10.7711 5.53601ZM5.05595 7.48219V13.808H13.4483L15.5839 8.62222V7.04001H10.7711C10.5421 7.03998 10.3161 6.98763 10.1103 6.88695C9.90456 6.78627 9.72453 6.63993 9.58394 6.45908C9.44336 6.27824 9.34594 6.06767 9.29912 5.84345C9.2523 5.61923 9.25731 5.38727 9.31377 5.16528L9.99283 2.49718C10.0141 2.41396 10.0062 2.32596 9.97048 2.24784C9.93478 2.16972 9.87339 2.10618 9.79655 2.06779L9.29948 1.81963L5.75756 6.83697C5.56956 7.10318 5.32892 7.32126 5.05595 7.48219ZM3.55195 7.79201H2.04795V13.808H3.55195V7.79201Z" fill="#626BCC"/>
</svg>
