<svg width="17" height="16" viewBox="0 0 17 16" fill="none" xmlns="http://www.w3.org/2000/svg">
<path d="M8.73735 1.75612H15.941C16.1635 1.75612 16.3769 1.84452 16.5343 2.00186C16.6916 2.15921 16.78 2.37261 16.78 2.59512V14.3411C16.78 14.5636 16.6916 14.777 16.5343 14.9344C16.3769 15.0917 16.1635 15.1801 15.941 15.1801H0.839C0.616483 15.1801 0.40308 15.0917 0.245737 14.9344C0.0883944 14.777 0 14.5636 0 14.3411V0.917125C0 0.694608 0.0883944 0.481205 0.245737 0.323862C0.40308 0.166519 0.616483 0.078125 0.839 0.078125H7.05935L8.73735 1.75612ZM1.678 1.75612V13.5021H15.102V3.43412H8.04265L6.36465 1.75612H1.678ZM7.551 5.11212H9.229V11.8241H7.551V5.11212ZM10.907 7.62912H12.585V11.8241H10.907V7.62912ZM4.195 9.30713H5.873V11.8241H4.195V9.30713Z" fill="#68698A"/>
</svg>
