<svg width="30" height="30" viewBox="0 0 30 30" fill="none" xmlns="http://www.w3.org/2000/svg">
<path d="M25.8334 11.4327H24.1841V10.1727C24.1841 5.11487 20.0644 1 15.0006 1C9.93691 0.998834 5.81721 5.11368 5.81721 10.1715V11.4315H4.1679C2.42164 11.4315 1 12.8502 1 14.5957V18.2148C1 19.959 2.42038 21.379 4.1679 21.379H7.8262C8.7992 21.379 9.58998 20.5879 9.58998 19.6172V13.1945C9.58998 12.2226 8.79804 11.4328 7.8262 11.4328H6.75155V10.1727C6.75155 5.62955 10.452 1.93343 15.0005 1.93343C19.549 1.93343 23.2495 5.62955 23.2495 10.1727V11.4328H22.1748C21.2018 11.4328 20.4111 12.2238 20.4111 13.1945V19.6172C20.4111 20.5891 21.203 21.379 22.1748 21.379H23.2366C23.1105 24.0099 20.9355 26.1124 18.2713 26.1124H17.3765C17.1581 25.0005 16.1769 24.1581 15.0007 24.1581C13.6644 24.1581 12.5769 25.2443 12.5769 26.5791C12.5769 27.9138 13.6644 29 15.0007 29C16.1769 29 17.1581 28.1576 17.3765 27.0458H18.2713C21.4508 27.0458 24.0452 24.5245 24.1711 21.379H25.8321C27.5784 21.379 29 19.9602 29 18.2148V14.5957C29 12.8515 27.5796 11.4315 25.8321 11.4315L25.8334 11.4327ZM1.93452 18.2148V14.5957C1.93452 13.366 2.93674 12.365 4.1679 12.365H5.81721V20.4445H4.1679C2.93674 20.4445 1.93452 19.4434 1.93452 18.2137V18.2148ZM8.65456 13.1943V19.6171C8.65456 20.0744 8.28311 20.4454 7.82524 20.4454H6.7506V12.3659H7.82524C8.28311 12.3659 8.65456 12.737 8.65456 13.1943ZM15.0008 28.0663C14.1797 28.0663 13.5115 27.399 13.5115 26.5788C13.5115 25.7586 14.1797 25.0912 15.0008 25.0912C15.822 25.0912 16.4901 25.7586 16.4901 26.5788C16.4901 27.399 15.822 28.0663 15.0008 28.0663ZM21.3471 19.6171V13.1943C21.3471 12.737 21.7185 12.366 22.1764 12.366H23.251V20.4455H22.1764C21.7185 20.4455 21.3471 20.0744 21.3471 19.6171ZM28.0671 18.2147C28.0671 19.4444 27.0649 20.4454 25.8337 20.4454H24.1844V12.3659H25.8337C27.0649 12.3659 28.0671 13.367 28.0671 14.5967V18.2158V18.2147Z" fill="#626BCC" stroke="#626BCC"/>
</svg>
