<svg width="22" height="22" viewBox="0 0 22 22" fill="none" xmlns="http://www.w3.org/2000/svg">
<path d="M22.0003 11C22.0003 17.0656 17.0659 22 11.0003 22C9.93146 22 8.87454 21.8469 7.85796 21.5453L8.37954 19.7872C9.22654 20.0383 10.1084 20.1667 10.9994 20.1667C16.0539 20.1667 20.166 16.0545 20.166 11C20.166 5.9455 16.0548 1.83333 11.0003 1.83333C10.1084 1.83333 9.22746 1.96167 8.38046 2.21283L7.85887 0.454667C8.87546 0.153083 9.93237 0 11.0012 0C17.0668 0 22.0003 4.93442 22.0003 11ZM10.0836 16.5H11.917V8.14825L14.568 10.7388L15.8485 9.42792L12.4404 6.09675C11.6704 5.32675 10.321 5.33408 9.56754 6.08942L6.15204 9.42792L7.43262 10.7388L10.0836 8.14917V16.5ZM2.65129 3.83808L4.04279 5.0325C4.61296 4.36792 5.27479 3.7895 6.00996 3.31008L5.00896 1.77375C4.12896 2.34758 3.33512 3.0415 2.65129 3.83808ZM0.109375 9.44533L1.92438 9.70108C2.04629 8.84033 2.29013 8.00158 2.65038 7.20958L0.982042 6.45058C0.549375 7.40208 0.256042 8.41042 0.109375 9.44533ZM0.109375 12.5547C0.256042 13.5896 0.549375 14.5979 0.982042 15.5494L2.65038 14.7904C2.29013 13.9984 2.04629 13.1606 1.92438 12.2989L0.109375 12.5547ZM4.05013 16.9767L2.66046 18.1729C3.34246 18.9649 4.13171 19.6561 5.00896 20.2263L6.00904 18.6899C5.27846 18.2133 4.61938 17.6376 4.05013 16.9767Z" fill="#626BCC"/>
</svg>
