<svg width="15" height="17" viewBox="0 0 15 17" fill="none" xmlns="http://www.w3.org/2000/svg">
<path d="M8.40039 8.5H10.8004L7.60039 11.7L4.40039 8.5H6.80039V5.3H8.40039V8.5ZM10.0004 2.1H2.00039V14.9H13.2004V5.3H10.0004V2.1ZM0.400391 1.2936C0.400391 0.8552 0.757991 0.5 1.19959 0.5H10.8004L14.8004 4.5V15.6944C14.8011 15.7995 14.7812 15.9036 14.7416 16.001C14.7021 16.0983 14.6438 16.1869 14.57 16.2617C14.4963 16.3365 14.4085 16.3961 14.3117 16.437C14.2149 16.4778 14.111 16.4993 14.006 16.5H1.19479C0.984693 16.4985 0.783605 16.4145 0.634965 16.266C0.486325 16.1175 0.402066 15.9165 0.400391 15.7064V1.2936Z" fill="#68698A"/>
</svg>
