<svg width="19" height="21" viewBox="0 0 19 21" fill="none" xmlns="http://www.w3.org/2000/svg">
<path d="M17.1992 20.8984H1.19922C0.934002 20.8984 0.679648 20.7931 0.492112 20.6055C0.304576 20.418 0.199219 20.1637 0.199219 19.8984V1.89844C0.199219 1.63322 0.304576 1.37887 0.492112 1.19133C0.679648 1.00379 0.934002 0.898438 1.19922 0.898438H17.1992C17.4644 0.898438 17.7188 1.00379 17.9063 1.19133C18.0939 1.37887 18.1992 1.63322 18.1992 1.89844V19.8984C18.1992 20.1637 18.0939 20.418 17.9063 20.6055C17.7188 20.7931 17.4644 20.8984 17.1992 20.8984ZM16.1992 18.8984V2.89844H2.19922V18.8984H16.1992ZM5.19922 5.89844H13.1992V7.89844H5.19922V5.89844ZM5.19922 9.89844H13.1992V11.8984H5.19922V9.89844ZM5.19922 13.8984H13.1992V15.8984H5.19922V13.8984Z" fill="#68698A"/>
</svg>
