<svg width="16" height="17" viewBox="0 0 16 17" fill="none" xmlns="http://www.w3.org/2000/svg">
<path d="M16 11.2956L10.6667 16.6253L0.890666 16.6289C0.655543 16.6298 0.429661 16.5374 0.262654 16.3719C0.0956467 16.2064 0.00117608 15.9814 0 15.7462V1.51157C0 1.02446 0.395555 0.628906 0.882666 0.628906H15.1173C15.6044 0.628906 16 1.03424 16 1.51957V11.2956ZM14.2222 2.40668H1.77778V14.8511H8.88889V10.4067C8.88891 10.189 8.96885 9.97882 9.11352 9.81613C9.2582 9.65343 9.45755 9.54949 9.67377 9.52401L9.77777 9.51779L14.2222 9.5169V2.40668ZM13.4853 11.2947L10.6667 11.2956V14.1125L13.4853 11.2947Z" fill="#68698A"/>
</svg>
