<svg width="16" height="17" viewBox="0 0 16 17" fill="none" xmlns="http://www.w3.org/2000/svg">
<path d="M5.40712 6.8369C5.76908 6.49399 6.0019 6.03689 6.06643 5.54248L6.40276 2.96951L8.68114 4.20968C9.11921 4.44838 9.62615 4.52884 10.1166 4.43751L12.667 3.96181L12.1913 6.51225C12.1 7.00271 12.1805 7.50965 12.4192 7.94771L13.6593 10.2261L11.0864 10.5624C10.5923 10.6271 10.1355 10.8599 9.79278 11.2217L8.00847 13.1054L6.89349 10.7627C6.67948 10.3125 6.31699 9.94974 5.86697 9.73536L3.5235 8.62038L5.40712 6.8369ZM5.38626 11.4796L7.23316 15.3604C7.2681 15.4337 7.32038 15.4975 7.38547 15.5462C7.45057 15.5948 7.52653 15.6269 7.6068 15.6396C7.68707 15.6524 7.76923 15.6454 7.84619 15.6193C7.92315 15.5931 7.9926 15.5487 8.04853 15.4897L11.0046 12.3693C11.0836 12.286 11.1887 12.2324 11.3025 12.2174L15.5647 11.6599C15.6452 11.6493 15.7219 11.6192 15.7883 11.5724C15.8546 11.5255 15.9085 11.4632 15.9454 11.3908C15.9823 11.3184 16.001 11.2382 16 11.157C15.9989 11.0758 15.9781 10.996 15.9394 10.9246L13.8847 7.14903C13.8301 7.04806 13.8118 6.93138 13.8329 6.81854L14.6199 2.59312C14.6349 2.51314 14.6301 2.43072 14.606 2.353C14.582 2.27528 14.5393 2.20459 14.4818 2.14706C14.4243 2.08953 14.3536 2.04688 14.2759 2.02281C14.1981 1.99874 14.1157 1.99397 14.0357 2.00892L9.81031 2.79592C9.69747 2.81706 9.58079 2.7988 9.47982 2.74417L5.70423 0.689462C5.63278 0.650717 5.55297 0.629946 5.4717 0.628944C5.39043 0.627942 5.31013 0.646739 5.23775 0.683711C5.16537 0.720683 5.10307 0.774719 5.05624 0.841153C5.00941 0.907586 4.97946 0.98442 4.96897 1.06502L4.41148 5.32633C4.39649 5.44012 4.34287 5.5453 4.25959 5.62427L1.13913 8.58032C1.08017 8.63625 1.03571 8.7057 1.00959 8.78266C0.983474 8.85962 0.97648 8.94178 0.989214 9.02205C1.00195 9.10232 1.03403 9.17828 1.08269 9.24338C1.13134 9.30848 1.19511 9.36075 1.26849 9.39569L5.14924 11.2426C5.25313 11.292 5.33682 11.3757 5.38626 11.4796ZM4.7211 13.0878L3.54102 11.9077L-5.53131e-05 15.448L1.18086 16.6289L4.7211 13.0878Z" fill="#68698A"/>
</svg>
