<svg width="17" height="17" viewBox="0 0 17 17" fill="none" xmlns="http://www.w3.org/2000/svg">
<path d="M14.4 4.43451L12.8 6.03451V2.22891H5.60002V6.22891H1.60002V15.0289H12.8V12.8233L14.4 11.2233V15.8353C14.3998 16.0459 14.316 16.2477 14.1671 16.3965C14.0181 16.5453 13.8162 16.6289 13.6056 16.6289H0.79442C0.689362 16.6282 0.585477 16.6068 0.488696 16.5659C0.391916 16.525 0.304136 16.4654 0.230369 16.3906C0.156601 16.3158 0.0982912 16.2272 0.0587678 16.1299C0.0192444 16.0325 -0.000718243 15.9284 1.97384e-05 15.8233V5.42891L4.80242 0.628906H13.5984C14.04 0.628906 14.4 0.992906 14.4 1.42251V4.43451ZM15.0224 6.07451L16.1536 7.20651L9.93122 13.4289L8.79842 13.4273L8.80002 12.2977L15.0224 6.07531V6.07451Z" fill="#68698A"/>
</svg>
