<svg width="16" height="17" viewBox="0 0 16 17" fill="none" xmlns="http://www.w3.org/2000/svg">
<path d="M8 16.6289C3.5816 16.6289 0 13.0473 0 8.62891C0 4.21051 3.5816 0.628906 8 0.628906C12.4184 0.628906 16 4.21051 16 8.62891C16 13.0473 12.4184 16.6289 8 16.6289ZM8 15.0289C9.69739 15.0289 11.3253 14.3546 12.5255 13.1544C13.7257 11.9542 14.4 10.3263 14.4 8.62891C14.4 6.93152 13.7257 5.30366 12.5255 4.10342C11.3253 2.90319 9.69739 2.22891 8 2.22891C6.30261 2.22891 4.67475 2.90319 3.47452 4.10342C2.27428 5.30366 1.6 6.93152 1.6 8.62891C1.6 10.3263 2.27428 11.9542 3.47452 13.1544C4.67475 14.3546 6.30261 15.0289 8 15.0289ZM4 9.42891H11.2V11.0289H8V13.4289L4 9.42891ZM8 6.22891V3.82891L12 7.82891H4.8V6.22891H8Z" fill="#68698A"/>
</svg>
