<svg width="20" height="16" viewBox="0 0 20 16" fill="none" xmlns="http://www.w3.org/2000/svg">
<path d="M10.3835 0C15.1764 0 19.1639 3.44889 20.0004 8C19.1648 12.5511 15.1764 16 10.3835 16C5.5906 16 1.60305 12.5511 0.766602 8C1.60216 3.44889 5.5906 0 10.3835 0ZM10.3835 14.2222C12.1964 14.2218 13.9554 13.6061 15.3727 12.4757C16.79 11.3453 17.7816 9.76735 18.1853 8C17.7801 6.23405 16.7879 4.65778 15.3707 3.52891C13.9535 2.40004 12.1953 1.78536 10.3835 1.78536C8.57167 1.78536 6.81344 2.40004 5.39627 3.52891C3.9791 4.65778 2.98684 6.23405 2.58171 8C2.98535 9.76735 3.97698 11.3453 5.39429 12.4757C6.81159 13.6061 8.57063 14.2218 10.3835 14.2222ZM10.3835 12C9.32263 12 8.30521 11.5786 7.55506 10.8284C6.80492 10.0783 6.38349 9.06087 6.38349 8C6.38349 6.93913 6.80492 5.92172 7.55506 5.17157C8.30521 4.42143 9.32263 4 10.3835 4C11.4444 4 12.4618 4.42143 13.2119 5.17157C13.9621 5.92172 14.3835 6.93913 14.3835 8C14.3835 9.06087 13.9621 10.0783 13.2119 10.8284C12.4618 11.5786 11.4444 12 10.3835 12ZM10.3835 10.2222C10.9729 10.2222 11.5381 9.9881 11.9548 9.57135C12.3716 9.1546 12.6057 8.58937 12.6057 8C12.6057 7.41063 12.3716 6.8454 11.9548 6.42865C11.5381 6.0119 10.9729 5.77778 10.3835 5.77778C9.79412 5.77778 9.22889 6.0119 8.81214 6.42865C8.3954 6.8454 8.16127 7.41063 8.16127 8C8.16127 8.58937 8.3954 9.1546 8.81214 9.57135C9.22889 9.9881 9.79412 10.2222 10.3835 10.2222Z" fill="#68698A"/>
</svg>
