<svg width="18" height="17" viewBox="0 0 18 17" fill="none" xmlns="http://www.w3.org/2000/svg">
<path d="M10.7498 6.4002H15.5498C15.9476 6.4002 16.3292 6.55823 16.6105 6.83954C16.8918 7.12084 17.0498 7.50237 17.0498 7.9002V9.4782C17.05 9.67422 17.0118 9.86838 16.9373 10.0497L14.6161 15.6859C14.5594 15.8234 14.4633 15.9409 14.3397 16.0235C14.2162 16.1062 14.0709 16.1503 13.9223 16.1502H1.2998C1.10089 16.1502 0.910127 16.0712 0.769475 15.9305C0.628822 15.7899 0.549805 15.5991 0.549805 15.4002V7.9002C0.549805 7.70128 0.628822 7.51052 0.769475 7.36987C0.910127 7.22921 1.10089 7.1502 1.2998 7.1502H3.9113C4.03138 7.15023 4.1497 7.12143 4.25633 7.06622C4.36296 7.01101 4.45477 6.93101 4.52405 6.83295L8.6138 1.0377C8.6655 0.964431 8.74175 0.912117 8.82871 0.890239C8.91567 0.868361 9.00759 0.878369 9.0878 0.918446L10.4483 1.5987C10.8312 1.79007 11.1371 2.10668 11.3151 2.49593C11.4932 2.88518 11.5327 3.32364 11.4271 3.73845L10.7498 6.4002ZM5.0498 8.3412V14.6502H13.4198L15.5498 9.4782V7.9002H10.7498C10.5214 7.90016 10.2959 7.84795 10.0907 7.74754C9.88553 7.64713 9.70597 7.50117 9.56576 7.32081C9.42555 7.14045 9.32839 6.93044 9.28169 6.70681C9.23499 6.48319 9.23999 6.25185 9.2963 6.03045L9.97355 3.36945C9.99475 3.28644 9.98689 3.19868 9.95127 3.12077C9.91566 3.04285 9.85444 2.97948 9.7778 2.9412L9.28205 2.6937L5.74955 7.6977C5.56205 7.9632 5.32205 8.1807 5.0498 8.3412ZM3.5498 8.6502H2.0498V14.6502H3.5498V8.6502Z" fill="#3A3B4C"/>
</svg>
