<svg width="18" height="18" viewBox="0 0 18 18" fill="none" xmlns="http://www.w3.org/2000/svg">
<path d="M16.1674 1.74564V13.6456C16.1675 13.7241 16.1448 13.8008 16.102 13.8666C16.0592 13.9323 15.9982 13.9842 15.9265 14.0159L8.89206 17.1289L1.85763 14.0167C1.78563 13.9849 1.72449 13.9328 1.68169 13.8667C1.6389 13.8007 1.61633 13.7235 1.61674 13.6448V1.74564H0V0.128906H17.7841V1.74564H16.1674ZM3.23348 1.74564V12.8567L8.89206 15.3626L14.5506 12.8567V1.74564H3.23348ZM5.65858 4.97912H12.1255V6.59586H5.65858V4.97912ZM5.65858 8.2126H12.1255V9.82933H5.65858V8.2126Z" fill="#68698A"/>
</svg>
