<svg width="22" height="22" viewBox="0 0 22 22" fill="none" xmlns="http://www.w3.org/2000/svg">
<path d="M13.2006 22C12.6482 21.998 12.1111 21.813 11.6688 21.4724L9.16163 19.4273L6.67466 21.4507C6.23372 21.7944 5.69722 21.9832 5.1442 21.9894C4.59117 21.9955 4.05085 21.8186 3.60284 21.4847C3.15513 21.1594 2.82139 20.6939 2.65127 20.1576C2.48115 19.6213 2.48374 19.0428 2.65866 18.5081L3.52584 15.4163L1.0682 13.6053C0.625783 13.2751 0.296328 12.8091 0.127114 12.2742C-0.0421009 11.7393 -0.0423775 11.1629 0.126324 10.6278C0.295025 10.0927 0.624032 9.62638 1.06614 9.29574C1.50824 8.9651 2.04071 8.78714 2.58715 8.78739H5.73322L6.69208 5.58428C6.86378 5.05102 7.19417 4.58693 7.63641 4.25781C8.07865 3.92869 8.6103 3.75123 9.15598 3.75061C9.70167 3.74998 10.2337 3.92621 10.6766 4.25432C11.1196 4.58242 11.451 5.04575 11.6239 5.57862L12.5882 8.78739H15.7352C16.2811 8.78671 16.8133 8.96393 17.2554 9.29367C17.6975 9.62341 18.0269 10.0887 18.1965 10.623C18.366 11.1573 18.3669 11.7331 18.1991 12.268C18.0313 12.8028 17.7034 13.2693 17.2624 13.6006L14.8084 15.4163L15.6765 18.5392C15.8444 19.0713 15.8421 19.6447 15.6698 20.1753C15.4975 20.7058 15.1644 21.1655 14.7195 21.4866C14.2784 21.8183 13.7468 21.998 13.2006 22ZM9.15797 17.2812C9.3643 17.2814 9.56455 17.3532 9.72631 17.4851L12.7807 19.9709C12.9058 20.0679 13.0588 20.1189 13.2153 20.1158C13.3718 20.1127 13.5228 20.0557 13.6442 19.9539C13.7791 19.8632 13.8799 19.7278 13.9299 19.5701C13.9799 19.4124 13.9762 19.2418 13.9192 19.0866L12.8687 15.2993C12.8172 15.1127 12.8229 14.9142 12.8849 14.731C12.9469 14.5478 13.0622 14.3886 13.2152 14.2753L16.1853 12.0754C16.3139 11.9787 16.4095 11.8425 16.4581 11.6863C16.5067 11.5301 16.506 11.362 16.4559 11.2063C16.4059 11.0506 16.3092 10.9153 16.1796 10.8198C16.0501 10.7243 15.8945 10.6735 15.7352 10.6749H11.9172C11.722 10.6751 11.5318 10.6112 11.3743 10.4923C11.2168 10.3735 11.1003 10.206 11.0418 10.0143L9.87482 6.14487C9.82368 5.99072 9.72676 5.85703 9.59777 5.7627C9.46879 5.66837 9.31426 5.61817 9.15604 5.61922C8.99783 5.62026 8.84393 5.67249 8.71613 5.76851C8.58833 5.86454 8.49308 5.9995 8.44387 6.15431L7.28517 10.0143C7.2266 10.206 7.1101 10.3735 6.95264 10.4923C6.79517 10.6112 6.60497 10.6751 6.40974 10.6749H2.58715C2.42837 10.6751 2.27369 10.7269 2.14521 10.823C2.01673 10.919 1.92101 11.0544 1.87171 11.2098C1.82241 11.3652 1.82206 11.5327 1.8707 11.6883C1.91934 11.8439 2.01449 11.9798 2.14256 12.0764L5.11721 14.2697C5.27126 14.3832 5.38738 14.543 5.4496 14.7272C5.51181 14.9114 5.51706 15.111 5.46463 15.2984L4.40861 19.0593C4.3462 19.2173 4.33876 19.3927 4.38754 19.5557C4.43632 19.7188 4.53832 19.8594 4.67628 19.9539C4.80422 20.0525 4.95971 20.1058 5.1195 20.1058C5.27929 20.1058 5.43478 20.0525 5.56272 19.9539L8.59329 17.4888C8.75432 17.3552 8.95477 17.2819 9.16163 17.2812H9.15797ZM18.334 6.09391L19.6916 7.12166C19.8179 7.21761 19.9706 7.26981 20.1276 7.27074C20.2846 7.27168 20.4378 7.2213 20.5652 7.12686C20.6926 7.03243 20.7876 6.8988 20.8365 6.74523C20.8855 6.59166 20.8858 6.42606 20.8375 6.27228L20.3131 4.60088L21.6937 3.56275C21.8207 3.46797 21.9152 3.33419 21.9637 3.18061C22.0122 3.02704 22.0121 2.8616 21.9635 2.70806C21.9149 2.55452 21.8203 2.4208 21.6932 2.32612C21.5662 2.23143 21.4132 2.18065 21.2564 2.18109H19.5569L19.0408 0.523851C18.9912 0.371268 18.8963 0.238592 18.7694 0.144586C18.6426 0.0505795 18.4903 0 18.334 0C18.1777 0 18.0254 0.0505795 17.8986 0.144586C17.7717 0.238592 17.6768 0.371268 17.6272 0.523851L17.1111 2.18109H15.4125C15.2558 2.18073 15.1031 2.23147 14.9761 2.32604C14.8492 2.4206 14.7546 2.55413 14.7059 2.70747C14.6573 2.8608 14.657 3.02607 14.7053 3.17955C14.7535 3.33304 14.8477 3.46685 14.9743 3.56181L16.3549 4.59994L15.8305 6.27134C15.7792 6.42521 15.7783 6.59215 15.828 6.74659C15.8777 6.90104 15.9752 7.03445 16.1055 7.12638C16.2324 7.22216 16.3858 7.27341 16.5431 7.27256C16.7004 7.27171 16.8533 7.21881 16.9791 7.12166L18.334 6.09391Z" fill="#626BCC"/>
</svg>
