<svg width="16" height="17" viewBox="0 0 16 17" fill="none" xmlns="http://www.w3.org/2000/svg">
<path d="M1.52381 11.2956V2.15272H0V0.628906H2.28571C2.48778 0.628906 2.68158 0.709178 2.82446 0.852063C2.96735 0.994948 3.04762 1.18874 3.04762 1.39081V10.5337H12.5242L14.048 4.43843H4.57143V2.91462H15.0248C15.1406 2.91462 15.2549 2.94103 15.3589 2.99183C15.463 3.04263 15.5541 3.11649 15.6254 3.20779C15.6966 3.29909 15.7461 3.40544 15.7701 3.51874C15.7941 3.63205 15.792 3.74933 15.7638 3.86167L13.859 11.4807C13.8178 11.6455 13.7226 11.7917 13.5887 11.8962C13.4548 12.0007 13.2898 12.0575 13.12 12.0575H2.28571C2.08364 12.0575 1.88985 11.9772 1.74697 11.8343C1.60408 11.6914 1.52381 11.4976 1.52381 11.2956ZM3.04762 16.6289C2.64348 16.6289 2.25589 16.4684 1.97012 16.1826C1.68435 15.8968 1.52381 15.5092 1.52381 15.1051C1.52381 14.701 1.68435 14.3134 1.97012 14.0276C2.25589 13.7418 2.64348 13.5813 3.04762 13.5813C3.45176 13.5813 3.83935 13.7418 4.12511 14.0276C4.41088 14.3134 4.57143 14.701 4.57143 15.1051C4.57143 15.5092 4.41088 15.8968 4.12511 16.1826C3.83935 16.4684 3.45176 16.6289 3.04762 16.6289ZM12.1905 16.6289C11.7863 16.6289 11.3987 16.4684 11.113 16.1826C10.8272 15.8968 10.6667 15.5092 10.6667 15.1051C10.6667 14.701 10.8272 14.3134 11.113 14.0276C11.3987 13.7418 11.7863 13.5813 12.1905 13.5813C12.5946 13.5813 12.9822 13.7418 13.268 14.0276C13.5537 14.3134 13.7143 14.701 13.7143 15.1051C13.7143 15.5092 13.5537 15.8968 13.268 16.1826C12.9822 16.4684 12.5946 16.6289 12.1905 16.6289Z" fill="#68698A"/>
</svg>
