<svg width="23" height="19" viewBox="0 0 23 19" fill="none" xmlns="http://www.w3.org/2000/svg">
<path d="M22.5 17.9054C22.4982 18.1681 22.3931 18.4194 22.2075 18.6052C22.0219 18.791 21.7706 18.8963 21.508 18.8984H3.492C3.22881 18.8982 2.9765 18.7934 2.79049 18.6072C2.60448 18.421 2.5 18.1686 2.5 17.9054V16.8984H20.5V5.19844L12.5 12.3984L2.5 3.39844V1.89844C2.5 1.63322 2.60536 1.37887 2.79289 1.19133C2.98043 1.00379 3.23478 0.898438 3.5 0.898438H21.5C21.7652 0.898438 22.0196 1.00379 22.2071 1.19133C22.3946 1.37887 22.5 1.63322 22.5 1.89844V17.9054ZM4.934 2.89844L12.5 9.70844L20.066 2.89844H4.934ZM0.5 12.8984H8.5V14.8984H0.5V12.8984ZM0.5 7.89844H5.5V9.89844H0.5V7.89844Z" fill="#68698A"/>
</svg>
