<svg width="22" height="22" viewBox="0 0 22 22" fill="none" xmlns="http://www.w3.org/2000/svg">
<path d="M4.58333 0.916667C4.58333 1.42267 4.17358 1.83333 3.66667 1.83333C2.65558 1.83333 1.83333 2.65558 1.83333 3.66667C1.83333 4.17267 1.42358 4.58333 0.916667 4.58333C0.40975 4.58333 0 4.17267 0 3.66667C0 1.6445 1.6445 0 3.66667 0C4.17358 0 4.58333 0.410667 4.58333 0.916667ZM0.916667 11.9167C1.42358 11.9167 1.83333 11.506 1.83333 11V7.33333C1.83333 6.82733 1.42358 6.41667 0.916667 6.41667C0.40975 6.41667 0 6.82733 0 7.33333V11C0 11.506 0.40975 11.9167 0.916667 11.9167ZM3.66667 16.5C2.65558 16.5 1.83333 15.6778 1.83333 14.6667C1.83333 14.1597 1.42358 13.75 0.916667 13.75C0.40975 13.75 0 14.1597 0 14.6667C0 16.6888 1.6445 18.3333 3.66667 18.3333C4.17358 18.3333 4.58333 17.9236 4.58333 17.4167C4.58333 16.9097 4.17358 16.5 3.66667 16.5ZM14.6667 1.83333C15.6778 1.83333 16.5 2.65558 16.5 3.66667C16.5 4.17267 16.9097 4.58333 17.4167 4.58333C17.9236 4.58333 18.3333 4.17267 18.3333 3.66667C18.3333 1.6445 16.6888 0 14.6667 0C14.1597 0 13.75 0.410667 13.75 0.916667C13.75 1.42267 14.1597 1.83333 14.6667 1.83333ZM7.33333 1.83333H11C11.5069 1.83333 11.9167 1.42267 11.9167 0.916667C11.9167 0.410667 11.5069 0 11 0H7.33333C6.82642 0 6.41667 0.410667 6.41667 0.916667C6.41667 1.42267 6.82642 1.83333 7.33333 1.83333ZM17.875 14.6667H16.5V13.2917C16.5 12.7847 16.0903 12.375 15.5833 12.375C15.0764 12.375 14.6667 12.7847 14.6667 13.2917V14.6667H13.2917C12.7847 14.6667 12.375 15.0764 12.375 15.5833C12.375 16.0903 12.7847 16.5 13.2917 16.5H14.6667V17.875C14.6667 18.3819 15.0764 18.7917 15.5833 18.7917C16.0903 18.7917 16.5 18.3819 16.5 17.875V16.5H17.875C18.3819 16.5 18.7917 16.0903 18.7917 15.5833C18.7917 15.0764 18.3819 14.6667 17.875 14.6667ZM22 15.5833C22 19.1208 19.1208 22 15.5833 22C13.0304 22 10.8277 20.4976 9.79458 18.3333H7.33333C6.82642 18.3333 6.41667 17.9236 6.41667 17.4167C6.41667 16.9097 6.82642 16.5 7.33333 16.5H9.24C9.19692 16.1993 9.16667 15.895 9.16667 15.5833C9.16667 12.0459 12.0459 9.16667 15.5833 9.16667C15.895 9.16667 16.1993 9.19692 16.5 9.24V7.33333C16.5 6.82733 16.9097 6.41667 17.4167 6.41667C17.9236 6.41667 18.3333 6.82733 18.3333 7.33333V9.79458C20.4976 10.8268 22 13.0304 22 15.5833ZM20.1667 15.5833C20.1667 13.0561 18.1106 11 15.5833 11C13.0561 11 11 13.0561 11 15.5833C11 18.1106 13.0561 20.1667 15.5833 20.1667C18.1106 20.1667 20.1667 18.1106 20.1667 15.5833Z" fill="#626BCC"/>
</svg>
