<svg width="18" height="21" viewBox="0 0 18 21" fill="none" xmlns="http://www.w3.org/2000/svg">
<path d="M3.94055 6.59782C6.15566 2.25041 10.5291 -0.200859 14.7899 0.0909556C17.5304 3.36649 18.1179 8.34547 15.9028 12.6929C15.5445 13.3961 15.1299 14.0491 14.6686 14.6503L15.5287 17.0603C15.5641 17.16 15.5656 17.2688 15.5328 17.3695C15.5 17.4701 15.4348 17.5571 15.3473 17.6169L11.2237 20.4397C11.1622 20.4819 11.0916 20.5091 11.0177 20.5192C10.9438 20.5294 10.8686 20.5221 10.798 20.498C10.7274 20.474 10.6634 20.4338 10.611 20.3806C10.5587 20.3275 10.5195 20.2628 10.4965 20.1919L9.56025 17.3105C9.4817 17.0686 9.31029 16.8678 9.08372 16.7523L4.66454 14.5006C4.43792 14.3852 4.17474 14.3645 3.93288 14.4432L1.05146 15.3794C0.98054 15.4025 0.905205 15.4088 0.831443 15.3977C0.757681 15.3866 0.687527 15.3584 0.626559 15.3154C0.565591 15.2725 0.515491 15.2159 0.480243 15.1501C0.444995 15.0844 0.425571 15.0113 0.423515 14.9368L0.283454 9.94144C0.280371 9.83559 0.312418 9.7317 0.374593 9.64597C0.436768 9.56025 0.525572 9.49752 0.627148 9.46757L3.08235 8.74683C3.29844 8.02067 3.58224 7.30103 3.94055 6.59782ZM2.28653 12.9618L3.3403 12.6194C4.06586 12.3835 4.8554 12.4455 5.53526 12.7917L9.95444 15.0434C10.6342 15.3899 11.1484 15.9922 11.384 16.7179L11.7264 17.7716L13.3491 16.6612L12.862 15.2937C12.7543 14.9916 12.7239 14.6674 12.7739 14.3506C12.8238 14.0339 12.9523 13.7347 13.1477 13.4804C13.5427 12.967 13.893 12.4126 14.1939 11.8222C15.8787 8.51546 15.6674 4.71617 13.8225 1.98953C10.5322 2.09965 7.33428 4.16185 5.64944 7.46855C5.3486 8.05897 5.10595 8.66827 4.92239 9.29046C4.83154 9.598 4.66503 9.87786 4.4381 10.1044C4.21116 10.331 3.93103 10.497 3.62334 10.5874L2.23111 10.9963L2.28653 12.9618ZM9.92166 9.64535C9.46843 9.41442 9.12551 9.01291 8.96832 8.52914C8.81113 8.04536 8.85256 7.51897 9.08349 7.06574C9.31442 6.61252 9.71593 6.26959 10.1997 6.1124C10.6835 5.95522 11.2099 5.99664 11.6631 6.22757C12.1163 6.4585 12.4593 6.86002 12.6164 7.34379C12.7736 7.82756 12.7322 8.35396 12.5013 8.80719C12.2703 9.26041 11.8688 9.60334 11.3851 9.76052C10.9013 9.91771 10.3749 9.87628 9.92166 9.64535Z" fill="#626BCC"/>
</svg>
