<svg width="20" height="24" viewBox="0 0 20 24" fill="none" xmlns="http://www.w3.org/2000/svg">
<path d="M10.1875 2.59091C9.35571 2.59091 8.55797 2.92135 7.96978 3.50953C7.3816 4.09771 7.05117 4.89546 7.05117 5.72727V9.90909C7.05117 10.7409 7.3816 11.5387 7.96978 12.1268C8.55797 12.715 9.35571 13.0455 10.1875 13.0455C11.0193 13.0455 11.8171 12.715 12.4053 12.1268C12.9935 11.5387 13.3239 10.7409 13.3239 9.90909V5.72727C13.3239 4.89546 12.9935 4.09771 12.4053 3.50953C11.8171 2.92135 11.0193 2.59091 10.1875 2.59091ZM10.1875 0.5C10.874 0.5 11.5537 0.635207 12.1879 0.897902C12.8221 1.1606 13.3984 1.54564 13.8838 2.03103C14.3692 2.51643 14.7542 3.09268 15.0169 3.72688C15.2796 4.36108 15.4148 5.04082 15.4148 5.72727V9.90909C15.4148 11.2954 14.8641 12.625 13.8838 13.6053C12.9035 14.5856 11.5739 15.1364 10.1875 15.1364C8.80117 15.1364 7.47159 14.5856 6.49129 13.6053C5.51098 12.625 4.96026 11.2954 4.96026 9.90909V5.72727C4.96026 4.34091 5.51098 3.01134 6.49129 2.03103C7.47159 1.05073 8.80117 0.5 10.1875 0.5ZM0.835938 10.9545H2.94253C3.19583 12.695 4.0673 14.2861 5.3975 15.4367C6.7277 16.5873 8.42769 17.2205 10.1865 17.2205C11.9453 17.2205 13.6453 16.5873 14.9755 15.4367C16.3057 14.2861 17.1771 12.695 17.4304 10.9545H19.5381C19.3004 13.0755 18.349 15.0527 16.84 16.5619C15.331 18.0711 13.3539 19.0227 11.233 19.2607V23.5H9.14207V19.2607C7.02099 19.0229 5.04367 18.0714 3.53444 16.5622C2.02521 15.053 1.07369 13.0756 0.835938 10.9545Z" fill="#68698A"/>
</svg>
