<svg width="25" height="20" viewBox="0 0 25 20" fill="none" xmlns="http://www.w3.org/2000/svg">
<path d="M5.12303 0.617188H19.377C19.5348 0.617166 19.6904 0.654483 19.831 0.726089C19.9716 0.797696 20.0933 0.901558 20.186 1.02919L24.009 6.28519C24.077 6.37871 24.1105 6.49289 24.1037 6.6083C24.097 6.72371 24.0504 6.83322 23.972 6.91819L12.617 19.2192C12.5271 19.3164 12.4022 19.374 12.2698 19.3792C12.1375 19.3845 12.0084 19.337 11.911 19.2472C11.904 19.2412 8.11103 15.1322 0.528033 6.91819C0.449637 6.83322 0.403106 6.72371 0.39636 6.6083C0.389614 6.49289 0.42307 6.37871 0.491033 6.28519L4.31403 1.02919C4.40681 0.901558 4.52848 0.797696 4.66908 0.726089C4.80969 0.654483 4.96524 0.617166 5.12303 0.617188ZM5.63303 2.61719L2.83303 6.46719L12.25 16.6672L21.667 6.46719L18.867 2.61719H5.63303Z" fill="#626BCC"/>
</svg>
