<svg width="15" height="17" viewBox="0 0 15 17" fill="none" xmlns="http://www.w3.org/2000/svg">
<path d="M0.8 0.628906H13.6C13.8122 0.628906 14.0157 0.713192 14.1657 0.863221C14.3157 1.01325 14.4 1.21673 14.4 1.42891V15.8289C14.4 16.0411 14.3157 16.2446 14.1657 16.3946C14.0157 16.5446 13.8122 16.6289 13.6 16.6289H0.8C0.587827 16.6289 0.384344 16.5446 0.234315 16.3946C0.0842854 16.2446 0 16.0411 0 15.8289V1.42891C0 1.21673 0.0842854 1.01325 0.234315 0.863221C0.384344 0.713192 0.587827 0.628906 0.8 0.628906ZM1.6 2.22891V15.0289H12.8V2.22891H1.6ZM3.2 3.82891H11.2V7.02891H3.2V3.82891ZM3.2 8.62891H4.8V10.2289H3.2V8.62891ZM3.2 11.8289H4.8V13.4289H3.2V11.8289ZM6.4 8.62891H8V10.2289H6.4V8.62891ZM6.4 11.8289H8V13.4289H6.4V11.8289ZM9.6 8.62891H11.2V13.4289H9.6V8.62891Z" fill="#68698A"/>
</svg>
