<svg width="15" height="17" viewBox="0 0 15 17" fill="none" xmlns="http://www.w3.org/2000/svg">
<path d="M0 13.8289V3.02891C0 2.39239 0.252856 1.78194 0.702944 1.33185C1.15303 0.881763 1.76348 0.628906 2.4 0.628906H13.6C13.8122 0.628906 14.0157 0.713192 14.1657 0.863221C14.3157 1.01325 14.4 1.21673 14.4 1.42891V15.8289C14.4 16.0411 14.3157 16.2446 14.1657 16.3946C14.0157 16.5446 13.8122 16.6289 13.6 16.6289H2.8C2.05739 16.6289 1.3452 16.3339 0.820101 15.8088C0.294999 15.2837 0 14.5715 0 13.8289ZM12.8 15.0289V12.6289H2.8C2.48174 12.6289 2.17652 12.7553 1.95147 12.9804C1.72643 13.2054 1.6 13.5106 1.6 13.8289C1.6 14.1472 1.72643 14.4524 1.95147 14.6774C2.17652 14.9025 2.48174 15.0289 2.8 15.0289H12.8ZM5.6 2.22891H2.4C2.18783 2.22891 1.98434 2.31319 1.83431 2.46322C1.68429 2.61325 1.6 2.81673 1.6 3.02891V11.2985C1.97495 11.1205 2.38492 11.0284 2.8 11.0289H12.8V2.22891H11.2V8.62891L8.4 7.02891L5.6 8.62891V2.22891Z" fill="#68698A"/>
</svg>
