<svg width="22" height="22" viewBox="0 0 22 22" fill="none" xmlns="http://www.w3.org/2000/svg">
<path d="M15.0288 9.2785L10.2694 6.67242C9.6525 6.325 8.91917 6.33142 8.30958 6.688C7.69817 7.0455 7.33425 7.68075 7.33425 8.38842V13.6125C7.33425 14.3202 7.69817 14.9554 8.30958 15.3129C8.62125 15.4953 8.96408 15.5852 9.306 15.5852C9.63417 15.5852 9.96233 15.5018 10.2603 15.334L15.0379 12.7178C15.6677 12.364 16.0426 11.7223 16.0426 11.0009C16.0426 10.2795 15.6677 9.63783 15.0297 9.27942L15.0288 9.2785ZM14.1478 11.1146L9.37017 13.7317C9.35275 13.7408 9.29958 13.7702 9.23542 13.7308C9.16758 13.6913 9.16758 13.6327 9.16758 13.6134V8.38933C9.16758 8.37008 9.16758 8.31142 9.23542 8.272C9.26017 8.25733 9.28308 8.25275 9.30325 8.25275C9.33625 8.25275 9.36283 8.26742 9.37933 8.27658L14.1387 10.8836C14.1561 10.8937 14.2083 10.923 14.2083 11.0028C14.2083 11.0825 14.1552 11.1118 14.1478 11.1173V11.1146ZM11 0C4.93442 0 0 4.93442 0 11C0 17.0656 4.93442 22 11 22C17.0656 22 22 17.0656 22 11C22 4.93442 17.0656 0 11 0ZM11 20.1667C5.9455 20.1667 1.83333 16.0545 1.83333 11C1.83333 5.9455 5.9455 1.83333 11 1.83333C16.0545 1.83333 20.1667 5.9455 20.1667 11C20.1667 16.0545 16.0545 20.1667 11 20.1667Z" fill="#626BCC"/>
</svg>
