<svg width="22" height="22" viewBox="0 0 22 22" fill="none" xmlns="http://www.w3.org/2000/svg">
<path d="M14.8648 8.48711C14.8614 9.93433 13.9317 11.2178 12.557 11.6724C11.8034 11.9275 11.2961 12.6349 11.2972 13.4315V13.836V13.8349C11.2972 14.3273 10.897 14.7261 10.4054 14.7261C9.91258 14.7261 9.51348 14.3273 9.51348 13.8349V13.4304V13.4315C9.49118 11.8607 10.5012 10.4613 11.9985 9.98447C12.644 9.77056 13.0799 9.16671 13.081 8.48711C13.081 7.33848 12.149 6.40817 10.9996 6.40817C9.85014 6.40817 8.91813 7.33845 8.91813 8.48711C8.91813 8.97956 8.51902 9.3784 8.02624 9.3784C7.53458 9.3784 7.13435 8.97956 7.13435 8.48711C7.13435 6.3547 8.86461 4.62563 10.9996 4.62563C13.1345 4.62563 14.8648 6.35473 14.8648 8.48711ZM10.4054 15.9149C10.0442 15.9149 9.71862 16.1321 9.58149 16.4653C9.44324 16.7984 9.51906 17.1816 9.77436 17.4367C10.0297 17.6908 10.4132 17.7676 10.7465 17.6295C11.0798 17.4913 11.2972 17.1671 11.2972 16.8062C11.2972 16.57 11.2025 16.3427 11.0352 16.1756C10.868 16.0085 10.6417 15.9149 10.4054 15.9149ZM21.9999 11.0072C22.0032 14.6115 20.2373 17.9892 17.273 20.0427C14.3085 22.0972 10.5238 22.5662 7.14691 21.2983L1.59382 21.988H1.48679C1.23038 21.9902 0.987338 21.881 0.817866 21.6894C0.649524 21.4978 0.571483 21.2426 0.606042 20.9897L1.2248 16.0342C-0.322631 13.036 -0.408481 9.49428 0.994023 6.42597C2.39652 3.35767 5.13009 1.10278 8.41108 0.308469C11.6921 -0.484762 15.156 0.27059 17.8071 2.35843C20.4583 4.44515 22.0044 7.63376 21.9999 11.0072ZM20.2161 11.0072C20.2183 8.15957 18.9028 5.47128 16.652 3.7255C14.4011 1.97858 11.4691 1.3714 8.70978 2.07886C5.94939 2.78633 3.67298 4.72933 2.54136 7.34301C1.40979 9.95561 1.55135 12.9449 2.92488 15.4393C3.00961 15.6087 3.04306 15.7992 3.02076 15.9864L2.50903 20.0863L7.14684 19.5036H7.26613C7.3765 19.5036 7.48687 19.5281 7.58721 19.5749C8.67419 20.0027 9.83142 20.2244 10.9998 20.2289C13.4447 20.2255 15.7891 19.2529 17.5172 17.5238C19.2453 15.7947 20.2161 13.4506 20.2161 11.0072Z" fill="#626BCC"/>
</svg>
