<svg width="17" height="16" viewBox="0 0 17 16" fill="none" xmlns="http://www.w3.org/2000/svg">
<path d="M6.3168 9.776H1.504C1.10512 9.776 0.722567 9.61754 0.440512 9.33549C0.158458 9.05343 8.00351e-07 8.67089 8.00351e-07 8.272V6.68979C-0.000201954 6.49325 0.0381204 6.29857 0.112801 6.11677L2.44099 0.46624C2.4976 0.328438 2.59387 0.210556 2.71758 0.127548C2.84129 0.0445404 2.98686 0.000146994 3.13584 0H15.792C15.9914 0 16.1827 0.0792283 16.3237 0.220256C16.4648 0.361283 16.544 0.552557 16.544 0.752V8.272C16.544 8.47144 16.4648 8.66272 16.3237 8.80374C16.1827 8.94477 15.9914 9.024 15.792 9.024H13.1735C13.0531 9.02397 12.9345 9.05284 12.8276 9.1082C12.7207 9.16355 12.6286 9.24377 12.5592 9.3421L8.4585 15.152C8.40666 15.2255 8.33021 15.278 8.24302 15.2999C8.15583 15.3218 8.06366 15.3118 7.98323 15.2716L6.6191 14.5888C6.23521 14.3969 5.92852 14.0795 5.75 13.6892C5.57147 13.2989 5.53186 12.8593 5.63774 12.4433L6.3168 9.776ZM12.032 7.82982V1.504H3.63968L1.504 6.68979V8.272H6.3168C6.54586 8.27203 6.77189 8.32438 6.97764 8.42506C7.18338 8.52574 7.36342 8.67209 7.504 8.85293C7.64459 9.03377 7.74201 9.24434 7.78883 9.46856C7.83565 9.69279 7.83064 9.92474 7.77418 10.1467L7.09512 12.8148C7.07387 12.8981 7.08175 12.9861 7.11746 13.0642C7.15317 13.1423 7.21455 13.2058 7.29139 13.2442L7.78847 13.4924L11.3304 8.47504C11.5184 8.20883 11.759 7.99075 12.032 7.82982ZM13.536 7.52H15.04V1.504H13.536V7.52Z" fill="#626BCC"/>
</svg>
