<svg width="16" height="16" viewBox="0 0 16 16" fill="none" xmlns="http://www.w3.org/2000/svg">
<path d="M3.84789 4.03344V1.02544C3.84789 0.825995 3.92712 0.634721 4.06815 0.493693C4.20917 0.352666 4.40045 0.273438 4.59989 0.273438H14.3759C14.5753 0.273438 14.7666 0.352666 14.9076 0.493693C15.0487 0.634721 15.1279 0.825995 15.1279 1.02544V10.8014C15.1279 11.0009 15.0487 11.1922 14.9076 11.3332C14.7666 11.4742 14.5753 11.5534 14.3759 11.5534H11.3679V14.5562C11.3679 14.9743 11.0302 15.3134 10.6106 15.3134H0.845155C0.745682 15.3135 0.647166 15.294 0.555246 15.256C0.463325 15.218 0.379806 15.1622 0.309468 15.0919C0.23913 15.0215 0.183354 14.938 0.145333 14.8461C0.107312 14.7542 0.0877921 14.6556 0.087891 14.5562L0.090147 4.7907C0.090147 4.37259 0.427795 4.03344 0.847411 4.03344H3.84789ZM5.35189 4.03344H10.6106C11.0287 4.03344 11.3679 4.37109 11.3679 4.7907V10.0494H13.6239V1.77744H5.35189V4.03344ZM1.59415 5.53744L1.59189 13.8094H9.86389V5.53744H1.59415Z" fill="#626BCC"/>
</svg>
