<svg width="21" height="20" viewBox="0 0 21 20" fill="none" xmlns="http://www.w3.org/2000/svg">
<path d="M2.65601 12.523L6.05801 9.121L8.88601 11.95L12.043 8.793L10.25 7H15.25V12L13.457 10.207L8.88601 14.778L6.05801 11.95L3.58301 14.424C4.70642 16.1149 6.43063 17.3154 8.40624 17.7823C10.3818 18.2493 12.4611 17.9477 14.2226 16.9387C15.9842 15.9297 17.2962 14.2888 17.8929 12.3484C18.4897 10.4081 18.3264 8.31341 17.4363 6.48893C16.5461 4.66446 14.9956 3.24663 13.0991 2.52274C11.2025 1.79886 9.1016 1.82307 7.22219 2.59047C5.34279 3.35787 3.82541 4.81106 2.97754 6.65556C2.12967 8.50006 2.01473 10.5979 2.65601 12.524V12.523ZM1.11801 14.081L1.10801 14.071L1.11201 14.067C0.541937 12.787 0.248212 11.4012 0.250008 10C0.250008 4.477 4.72701 0 10.25 0C15.773 0 20.25 4.477 20.25 10C20.25 15.523 15.773 20 10.25 20C6.18001 20 2.68001 17.57 1.11801 14.081Z" fill="#626BCC"/>
</svg>
