<svg width="15" height="17" viewBox="0 0 15 17" fill="none" xmlns="http://www.w3.org/2000/svg">
<path d="M11.2 0.628906V2.22891H13.6056C14.044 2.22891 14.4 2.58491 14.4 3.02331V15.8345C14.4 16.2729 14.044 16.6289 13.6056 16.6289H0.7944C0.356 16.6289 0 16.2729 0 15.8345V3.02331C0 2.58491 0.356 2.22891 0.7944 2.22891H3.2V0.628906H11.2ZM3.2 3.82891H1.6V15.0289H12.8V3.82891H11.2V5.42891H3.2V3.82891ZM4.8 11.8289V13.4289H3.2V11.8289H4.8ZM4.8 9.42891V11.0289H3.2V9.42891H4.8ZM4.8 7.02891V8.62891H3.2V7.02891H4.8ZM9.6 2.22891H4.8V3.82891H9.6V2.22891Z" fill="#68698A"/>
</svg>
