<svg width="16" height="17" viewBox="0 0 16 17" fill="none" xmlns="http://www.w3.org/2000/svg">
<path d="M8 0.628906C12.4184 0.628906 16 4.21051 16 8.62891C16 13.0473 12.4184 16.6289 8 16.6289C3.5816 16.6289 0 13.0473 0 8.62891C0 4.21051 3.5816 0.628906 8 0.628906ZM8 2.22891C4.4656 2.22891 1.6 5.09451 1.6 8.62891C1.6 12.1633 4.4656 15.0289 8 15.0289C11.5344 15.0289 14.4 12.1633 14.4 8.62891C14.4 5.09451 11.5344 2.22891 8 2.22891ZM8 3.02891C8.8144 3.02891 9.588 3.20251 10.2864 3.51531L9.036 4.76491C8.7056 4.67691 8.3584 4.62891 8 4.62891C5.7912 4.62891 4 6.42011 4 8.62891C4 9.73291 4.448 10.7329 5.1712 11.4577L4.04 12.5889L3.9152 12.4601C2.976 11.4585 2.4 10.1105 2.4 8.62891C2.4 5.53611 4.9072 3.02891 8 3.02891ZM13.1136 6.34331C13.4256 7.04091 13.6 7.81531 13.6 8.62891C13.6 10.1753 12.9728 11.5753 11.96 12.5889L10.8288 11.4577C11.552 10.7329 12 9.73291 12 8.62891C12 8.27051 11.9528 7.92331 11.864 7.59291L13.1136 6.34331ZM11.3936 4.10331L12.5256 5.23451L9.5464 8.21531C9.5816 8.34731 9.6 8.48571 9.6 8.62891C9.6 9.51291 8.884 10.2289 8 10.2289C7.116 10.2289 6.4 9.51291 6.4 8.62891C6.4 7.74491 7.116 7.02891 8 7.02891C8.1432 7.02891 8.2816 7.04731 8.4136 7.08251L11.3944 4.10331H11.3936Z" fill="#626BCC"/>
</svg>
