<svg width="20" height="20" viewBox="0 0 20 20" fill="none" xmlns="http://www.w3.org/2000/svg">
<path d="M1.70212 14.7499C1.27939 14.0554 0.950786 13.3129 0.724121 12.5401C1.21743 12.3018 1.63172 11.9384 1.92115 11.4903C2.21059 11.0421 2.36389 10.5267 2.36409 10.0009C2.3643 9.4751 2.21141 8.95951 1.92232 8.51116C1.63324 8.0628 1.21924 7.69916 0.726121 7.46045C1.17816 5.90765 2.03885 4.48973 3.22712 3.34026C3.69121 3.6269 4.22974 3.78597 4.7831 3.79986C5.33646 3.81374 5.88307 3.68191 6.36245 3.41895C6.84183 3.15599 7.23527 2.77215 7.49925 2.30992C7.76322 1.84769 7.88743 1.32508 7.85812 0.799937C9.50023 0.396774 11.2234 0.397428 12.8651 0.801837C12.8361 1.32697 12.9605 1.8495 13.2247 2.3116C13.4889 2.7737 13.8825 3.15736 14.3619 3.42012C14.8414 3.68288 15.3881 3.81449 15.9414 3.8004C16.4947 3.7863 17.0332 3.62705 17.4971 3.34026C18.0761 3.90077 18.5901 4.53822 19.0221 5.24978C19.4551 5.96134 19.7791 6.70329 20.0001 7.4595C19.5068 7.69786 19.0925 8.06121 18.8031 8.50936C18.5137 8.95751 18.3604 9.47299 18.3601 9.99876C18.3599 10.5245 18.5128 11.0401 18.8019 11.4885C19.091 11.9368 19.505 12.3005 19.9981 12.5392C19.5461 14.092 18.6854 15.5099 17.4971 16.6594C17.033 16.3727 16.4945 16.2137 15.9411 16.1998C15.3878 16.1859 14.8412 16.3177 14.3618 16.5807C13.8824 16.8437 13.489 17.2275 13.225 17.6897C12.961 18.152 12.8368 18.6746 12.8661 19.1997C11.224 19.6029 9.50089 19.6022 7.85912 19.1978C7.88817 18.6727 7.76372 18.1502 7.49954 17.688C7.23537 17.2259 6.84176 16.8423 6.36229 16.5795C5.88282 16.3168 5.33618 16.1852 4.78285 16.1992C4.22952 16.2133 3.69108 16.3726 3.22712 16.6594C2.63611 16.0865 2.12372 15.4449 1.70212 14.7499ZM7.36212 14.9361C8.42775 15.52 9.22897 16.457 9.61212 17.5676C10.1111 17.6122 10.6121 17.6132 11.1111 17.5685C11.4945 16.4578 12.2961 15.5207 13.3621 14.937C14.4273 14.3515 15.6826 14.1604 16.8871 14.4003C17.1771 14.0127 17.4271 13.5994 17.6351 13.1672C16.8146 12.2964 16.3612 11.1685 16.3621 9.99982C16.3621 8.80281 16.8321 7.68465 17.6351 6.83249C17.4257 6.40038 17.1746 5.98759 16.8851 5.59938C15.6814 5.83908 14.4269 5.64828 13.3621 5.06358C12.2965 4.47967 11.4953 3.5426 11.1121 2.43205C10.6131 2.3874 10.1121 2.38645 9.61312 2.4311C9.22972 3.5418 8.42812 4.4789 7.36212 5.06263C6.2969 5.64813 5.0416 5.83928 3.83712 5.59938C3.54769 5.98726 3.29725 6.40011 3.08912 6.83249C3.90969 7.70323 4.363 8.83111 4.36212 9.99982C4.36212 11.1968 3.89212 12.315 3.08912 13.1672C3.29859 13.5993 3.54966 14.0121 3.83912 14.4003C5.04284 14.1606 6.29733 14.3514 7.36212 14.9361ZM10.3621 12.8498C9.56647 12.8498 8.80341 12.5496 8.2408 12.0151C7.67819 11.4806 7.36212 10.7557 7.36212 9.99982C7.36212 9.24395 7.67819 8.51903 8.2408 7.98455C8.80341 7.45007 9.56647 7.1498 10.3621 7.1498C11.1578 7.1498 11.9208 7.45007 12.4834 7.98455C13.0461 8.51903 13.3621 9.24395 13.3621 9.99982C13.3621 10.7557 13.0461 11.4806 12.4834 12.0151C11.9208 12.5496 11.1578 12.8498 10.3621 12.8498ZM10.3621 10.9498C10.6273 10.9498 10.8817 10.8497 11.0692 10.6716C11.2568 10.4934 11.3621 10.2518 11.3621 9.99982C11.3621 9.74786 11.2568 9.50623 11.0692 9.32806C10.8817 9.1499 10.6273 9.04981 10.3621 9.04981C10.0969 9.04981 9.84255 9.1499 9.65501 9.32806C9.46748 9.50623 9.36212 9.74786 9.36212 9.99982C9.36212 10.2518 9.46748 10.4934 9.65501 10.6716C9.84255 10.8497 10.0969 10.9498 10.3621 10.9498Z" fill="#68698A"/>
</svg>
