<svg width="23" height="20" viewBox="0 0 23 20" fill="none" xmlns="http://www.w3.org/2000/svg">
<path d="M11.6304 18.1066C9.85402 18.1066 8.11749 17.5799 6.64037 16.5931C5.16326 15.6063 4.01189 14.2037 3.33181 12.5626C2.65174 10.9215 2.47351 9.11563 2.81964 7.37327C3.16577 5.6309 4.02073 4.03028 5.27644 2.77376C6.53214 1.51723 8.1322 0.661226 9.87433 0.313952C11.6165 -0.0333217 13.4225 0.143732 15.064 0.822729C16.7055 1.50173 18.1089 2.65218 19.0966 4.12865C20.0844 5.60511 20.6122 7.3413 20.6134 9.11771C20.6118 11.5002 19.6651 13.7848 17.981 15.47C16.2969 17.1552 14.0129 18.1034 11.6304 18.1066ZM11.6304 1.31718C10.0862 1.31718 8.57669 1.77517 7.29281 2.63321C6.00892 3.49125 5.00836 4.71079 4.41768 6.13757C3.827 7.56435 3.67276 9.13426 3.97445 10.6487C4.27613 12.1632 5.02021 13.5541 6.11254 14.6456C7.20488 15.7372 8.5964 16.4802 10.1111 16.7807C11.6258 17.0813 13.1956 16.9258 14.6219 16.3341C16.0482 15.7423 17.267 14.7409 18.1241 13.4563C18.9812 12.1718 19.438 10.6619 19.4368 9.11771C19.4337 7.04828 18.6103 5.06449 17.147 3.60118C15.6836 2.13787 13.6999 1.31441 11.6304 1.3113V1.31718Z" fill="#68698A"/>
<path d="M12.5309 14.3695H10.7308C10.464 14.3718 10.1995 14.3214 9.95228 14.2211C9.7051 14.1208 9.48019 13.9727 9.29048 13.7851C9.10077 13.5976 8.95001 13.3744 8.84686 13.1284C8.74371 12.8824 8.69022 12.6185 8.68945 12.3517V11.9164C8.68945 11.7604 8.75143 11.6107 8.86175 11.5004C8.97208 11.3901 9.12171 11.3281 9.27773 11.3281H13.9839C14.14 11.3281 14.2896 11.3901 14.3999 11.5004C14.5102 11.6107 14.5722 11.7604 14.5722 11.9164V12.3517C14.5714 12.6185 14.5179 12.8824 14.4148 13.1284C14.3117 13.3744 14.1609 13.5976 13.9712 13.7851C13.7815 13.9727 13.5566 14.1208 13.3094 14.2211C13.0622 14.3214 12.7976 14.3718 12.5309 14.3695ZM9.9013 12.5047C9.93817 12.6978 10.0411 12.8722 10.1924 12.9978C10.3438 13.1233 10.5341 13.1923 10.7308 13.193H12.5309C12.7279 13.1935 12.9188 13.1249 13.0703 12.9991C13.2219 12.8733 13.3245 12.6984 13.3604 12.5047H9.9013Z" fill="#68698A"/>
<path d="M7.8996 9.70317C7.50537 9.70783 7.11865 9.59519 6.78858 9.37956C6.45851 9.16393 6.2 8.85505 6.04589 8.49216C5.89178 8.12927 5.84903 7.72875 5.92308 7.34151C5.99712 6.95426 6.18461 6.59778 6.46173 6.31734C6.73885 6.0369 7.09308 5.84518 7.47942 5.76653C7.86575 5.68788 8.26675 5.72586 8.63145 5.87564C8.99615 6.02541 9.30809 6.28023 9.52763 6.60771C9.74718 6.93518 9.86441 7.32054 9.86444 7.71479C9.86447 8.23809 9.65822 8.74031 9.2904 9.11253C8.92258 9.48475 8.42286 9.69697 7.8996 9.70317ZM7.8996 6.90886C7.73787 6.90417 7.57842 6.94792 7.44173 7.03449C7.30504 7.12106 7.19733 7.2465 7.13243 7.39472C7.06753 7.54293 7.0484 7.70716 7.0775 7.86632C7.10659 8.02548 7.18259 8.17232 7.29572 8.28799C7.40886 8.40366 7.55398 8.48288 7.71246 8.5155C7.87094 8.54811 8.03555 8.53262 8.18516 8.47102C8.33478 8.40942 8.46257 8.30451 8.55215 8.16977C8.64172 8.03503 8.68899 7.87659 8.68789 7.71479C8.68339 7.50714 8.59889 7.30924 8.45202 7.16237C8.30515 7.0155 8.10725 6.93101 7.8996 6.92651V6.90886Z" fill="#68698A"/>
<path d="M15.3585 9.70331C14.9652 9.70331 14.5808 9.58669 14.2538 9.3682C13.9268 9.14972 13.672 8.83918 13.5215 8.47585C13.371 8.11252 13.3316 7.71273 13.4083 7.32702C13.485 6.94132 13.6744 6.58702 13.9525 6.30894C14.2306 6.03086 14.5849 5.84149 14.9706 5.76477C15.3563 5.68805 15.7561 5.72743 16.1194 5.87792C16.4827 6.02842 16.7933 6.28327 17.0118 6.61026C17.2302 6.93724 17.3469 7.32167 17.3469 7.71493C17.3469 7.97605 17.2954 8.23461 17.1955 8.47585C17.0956 8.71709 16.9491 8.93629 16.7645 9.12093C16.5798 9.30556 16.3606 9.45202 16.1194 9.55195C15.8782 9.65187 15.6196 9.70331 15.3585 9.70331ZM15.3585 6.909C15.1977 6.909 15.0405 6.95677 14.9069 7.04623C14.7732 7.1357 14.6692 7.26284 14.6079 7.41152C14.5467 7.56021 14.5309 7.72374 14.5627 7.88137C14.5945 8.03901 14.6724 8.18365 14.7866 8.29694C14.9007 8.41024 15.0459 8.48709 15.2037 8.51775C15.3616 8.54841 15.525 8.53149 15.6733 8.46914C15.8215 8.40679 15.9479 8.30183 16.0364 8.16755C16.1249 8.03328 16.1715 7.87574 16.1703 7.71493C16.1657 7.50324 16.0779 7.30187 15.926 7.15436C15.7741 7.00685 15.5702 6.92505 15.3585 6.92665V6.909Z" fill="#68698A"/>
<path d="M3.3579 11.1015H1.12246C0.966435 11.1015 0.816805 11.0396 0.706482 10.9292C0.596158 10.8189 0.53418 10.6693 0.53418 10.5133V6.78359C0.53418 6.62757 0.596158 6.47794 0.706482 6.36762C0.816805 6.25729 0.966435 6.19531 1.12246 6.19531H3.5638C3.71982 6.19531 3.86945 6.25729 3.97977 6.36762C4.09009 6.47794 4.15207 6.62757 4.15207 6.78359C4.15207 6.93961 4.09009 7.08924 3.97977 7.19956C3.86945 7.30988 3.71982 7.37186 3.5638 7.37186H1.71073V9.92498H3.3579C3.51392 9.92498 3.66355 9.98696 3.77387 10.0973C3.8842 10.2076 3.94618 10.3572 3.94618 10.5133C3.94618 10.6693 3.8842 10.8189 3.77387 10.9292C3.66355 11.0396 3.51392 11.1015 3.3579 11.1015Z" fill="#68698A"/>
<path d="M22.1361 11.1015H19.9006C19.7446 11.1015 19.595 11.0396 19.4846 10.9292C19.3743 10.8189 19.3123 10.6693 19.3123 10.5133C19.3123 10.3572 19.3743 10.2076 19.4846 10.0973C19.595 9.98696 19.7446 9.92498 19.9006 9.92498H21.5478V7.37186H19.6947C19.5387 7.37186 19.3891 7.30988 19.2787 7.19956C19.1684 7.08924 19.1064 6.93961 19.1064 6.78359C19.1064 6.62757 19.1684 6.47794 19.2787 6.36762C19.3891 6.25729 19.5387 6.19531 19.6947 6.19531H22.1361C22.2921 6.19531 22.4417 6.25729 22.552 6.36762C22.6624 6.47794 22.7243 6.62757 22.7243 6.78359V10.5133C22.7243 10.6693 22.6624 10.8189 22.552 10.9292C22.4417 11.0396 22.2921 11.1015 22.1361 11.1015Z" fill="#68698A"/>
<path d="M11.6296 6.28155C10.4212 6.28306 9.25849 5.81966 8.38237 4.98735C7.50625 4.15503 6.98387 3.01759 6.92345 1.81066C6.91997 1.7334 6.93174 1.65622 6.9581 1.58352C6.98445 1.51081 7.02486 1.44401 7.07703 1.38693C7.1292 1.32984 7.1921 1.28359 7.26214 1.25082C7.33218 1.21804 7.408 1.19938 7.48525 1.19591C7.5625 1.19243 7.63969 1.20421 7.71239 1.23056C7.78509 1.25691 7.85189 1.29732 7.90898 1.34949C7.96606 1.40166 8.01231 1.46456 8.04509 1.5346C8.07786 1.60465 8.09652 1.68046 8.1 1.75771C8.1874 2.62843 8.59513 3.43563 9.24407 4.0227C9.89302 4.60977 10.7369 4.93484 11.612 4.93484C12.4871 4.93484 13.331 4.60977 13.9799 4.0227C14.6289 3.43563 15.0366 2.62843 15.124 1.75771C15.131 1.60169 15.1997 1.45485 15.315 1.34949C15.4303 1.24413 15.5827 1.18889 15.7388 1.19591C15.8948 1.20293 16.0416 1.27164 16.147 1.38693C16.2523 1.50222 16.3076 1.65464 16.3006 1.81066C16.2405 3.01151 15.723 4.14383 14.8544 4.97522C13.9858 5.80662 12.832 6.27403 11.6296 6.28155Z" fill="#68698A"/>
<path d="M15.5922 19.8675H7.66229C7.50627 19.8675 7.35664 19.8055 7.24631 19.6952C7.13599 19.5849 7.07401 19.4352 7.07401 19.2792C7.07401 19.1232 7.01203 18.9736 6.90171 18.8632C6.79139 18.7529 6.64176 18.6909 6.48574 18.6909C6.32972 18.6909 6.18009 18.629 6.06976 18.5186C5.95944 18.4083 5.89746 18.2587 5.89746 18.1027V15.9555C5.89746 15.7994 5.95944 15.6498 6.06976 15.5395C6.18009 15.4292 6.32972 15.3672 6.48574 15.3672H6.75046C6.90648 15.3672 7.05611 15.4292 7.16643 15.5395C7.27676 15.6498 7.33874 15.7994 7.33874 15.9555C7.33823 16.0524 7.31381 16.1476 7.26763 16.2328C7.22144 16.318 7.15494 16.3904 7.07401 16.4437V17.6203C7.32182 17.7074 7.54706 17.8487 7.73331 18.0339C7.91955 18.2192 8.0621 18.4436 8.15056 18.6909H15.104C15.1919 18.4459 15.333 18.2234 15.5171 18.0393C15.7012 17.8552 15.9237 17.7141 16.1687 17.6262V16.4496C16.0878 16.3963 16.0213 16.3239 15.9751 16.2387C15.929 16.1535 15.9045 16.0582 15.904 15.9613C15.904 15.8053 15.966 15.6557 16.0763 15.5454C16.1866 15.435 16.3363 15.3731 16.4923 15.3731H16.757C16.913 15.3731 17.0627 15.435 17.173 15.5454C17.2833 15.6557 17.3453 15.8053 17.3453 15.9613V18.1027C17.3453 18.2587 17.2833 18.4083 17.173 18.5186C17.0627 18.629 16.913 18.6909 16.757 18.6909C16.601 18.6909 16.4514 18.7529 16.3411 18.8632C16.2307 18.9736 16.1687 19.1232 16.1687 19.2792C16.1688 19.4332 16.1084 19.5811 16.0006 19.6911C15.8928 19.8011 15.7462 19.8644 15.5922 19.8675Z" fill="#68698A"/>
</svg>
