<svg width="22" height="21" viewBox="0 0 22 21" fill="none" xmlns="http://www.w3.org/2000/svg">
<path d="M10.7314 2.90214C8.49799 2.90214 6.35606 3.78935 4.77681 5.36861C3.19756 6.94786 2.31034 9.08979 2.31034 11.3232H5.46824C6.02659 11.3232 6.56207 11.545 6.95688 11.9398C7.3517 12.3346 7.5735 12.8701 7.5735 13.4285V18.6916C7.5735 19.25 7.3517 19.7854 6.95688 20.1803C6.56207 20.5751 6.02659 20.7969 5.46824 20.7969H2.31034C1.75199 20.7969 1.21651 20.5751 0.821695 20.1803C0.426882 19.7854 0.205078 19.25 0.205078 18.6916V11.3232C0.205078 5.50951 4.91771 0.796875 10.7314 0.796875C16.5451 0.796875 21.2577 5.50951 21.2577 11.3232V18.6916C21.2577 19.25 21.0359 19.7854 20.6411 20.1803C20.2463 20.5751 19.7108 20.7969 19.1524 20.7969H15.9946C15.4362 20.7969 14.9007 20.5751 14.5059 20.1803C14.1111 19.7854 13.8893 19.25 13.8893 18.6916V13.4285C13.8893 12.8701 14.1111 12.3346 14.5059 11.9398C14.9007 11.545 15.4362 11.3232 15.9946 11.3232H19.1524C19.1524 9.08979 18.2652 6.94786 16.686 5.36861C15.1067 3.78935 12.9648 2.90214 10.7314 2.90214ZM2.31034 13.4285V18.6916H5.46824V13.4285H2.31034ZM15.9946 13.4285V18.6916H19.1524V13.4285H15.9946Z" fill="#68698A"/>
</svg>
