<svg width="18" height="18" viewBox="0 0 18 18" fill="none" xmlns="http://www.w3.org/2000/svg">
<path d="M3.45383 5.36842L5.74195 7.65654L4.46617 8.93233L0 4.46617L4.46617 0L5.74195 1.27579L3.45383 3.56391H9.92481C11.8392 3.56391 13.6751 4.32438 15.0287 5.67803C16.3824 7.03167 17.1429 8.86761 17.1429 10.782C17.1429 12.6963 16.3824 14.5322 15.0287 15.8859C13.6751 17.2395 11.8392 18 9.92481 18H1.80451V16.1955H9.92481C11.3606 16.1955 12.7375 15.6251 13.7528 14.6099C14.768 13.5947 15.3383 12.2177 15.3383 10.782C15.3383 9.3462 14.768 7.96924 13.7528 6.95401C12.7375 5.93877 11.3606 5.36842 9.92481 5.36842H3.45383Z" fill="#3A3B4C"/>
</svg>
