<svg width="21" height="20" viewBox="0 0 21 20" fill="none" xmlns="http://www.w3.org/2000/svg">
<path d="M13.8333 0C14.3593 0 14.7857 0.426395 14.7857 0.952381V1.90476H19.5476V7.61905H17.6251L20.2401 14.8037C20.4079 15.2332 20.5 15.7006 20.5 16.1895C20.5 18.2935 18.7944 19.9991 16.6905 19.9991C14.9157 19.9991 13.4244 18.7855 13.0012 17.1429H8.95141C8.52851 18.7859 7.03699 20 5.2619 20C3.41001 20 1.86674 18.6786 1.52356 16.9272C0.915204 16.6092 0.5 15.9721 0.5 15.2381V5.71429C0.5 5.1883 0.926395 4.7619 1.45238 4.7619H8.11905C8.64503 4.7619 9.07143 5.1883 9.07143 5.71429V10.4762C9.07143 11.0022 9.49782 11.4286 10.0238 11.4286H11.9286C12.4546 11.4286 12.881 11.0022 12.881 10.4762V1.90476H10.0238V0H13.8333ZM5.2619 14.2857C4.20993 14.2857 3.35714 15.1385 3.35714 16.1905C3.35714 17.2424 4.20993 18.0952 5.2619 18.0952C6.31388 18.0952 7.16667 17.2424 7.16667 16.1905C7.16667 15.1385 6.31388 14.2857 5.2619 14.2857ZM16.6905 14.2848C15.6385 14.2848 14.7857 15.1376 14.7857 16.1895C14.7857 17.2415 15.6385 18.0943 16.6905 18.0943C17.7424 18.0943 18.5952 17.2415 18.5952 16.1895C18.5952 15.9606 18.5549 15.7412 18.4809 15.5379L18.4653 15.4966C18.1881 14.7873 17.498 14.2848 16.6905 14.2848ZM15.5981 7.61905H14.7857V10.4762C14.7857 12.0541 13.5065 13.3333 11.9286 13.3333H10.0238C8.44585 13.3333 7.16667 12.0541 7.16667 10.4762H2.40476V13.6706C3.1028 12.8798 4.1241 12.381 5.2619 12.381C7.03699 12.381 8.52851 13.595 8.95141 15.2381H13.0007C13.4233 13.5945 14.9151 12.38 16.6905 12.38C16.916 12.38 17.137 12.3996 17.3517 12.4372L15.5981 7.61905ZM7.16667 6.66667H2.40476V8.57143H7.16667V6.66667ZM17.6429 3.80952H14.7857V5.71429H17.6429V3.80952Z" fill="#3A3B4C"/>
</svg>
