<svg width="17" height="17" viewBox="0 0 17 17" fill="none" xmlns="http://www.w3.org/2000/svg">
<path d="M12.9524 5.20034H16.7619V6.72414H12.9524V5.20034ZM11.4286 9.00986H16.7619V10.5337H11.4286V9.00986ZM13.7143 12.8194H16.7619V14.3432H13.7143V12.8194ZM0 16.6289C0 15.0123 0.642175 13.462 1.78525 12.3189C2.92833 11.1758 4.47868 10.5337 6.09524 10.5337C7.7118 10.5337 9.26214 11.1758 10.4052 12.3189C11.5483 13.462 12.1905 15.0123 12.1905 16.6289H10.6667C10.6667 15.4165 10.185 14.2537 9.32773 13.3964C8.47042 12.5391 7.30766 12.0575 6.09524 12.0575C4.88282 12.0575 3.72006 12.5391 2.86275 13.3964C2.00544 14.2537 1.52381 15.4165 1.52381 16.6289H0ZM6.09524 9.77176C3.56952 9.77176 1.52381 7.72605 1.52381 5.20034C1.52381 2.67462 3.56952 0.628906 6.09524 0.628906C8.62095 0.628906 10.6667 2.67462 10.6667 5.20034C10.6667 7.72605 8.62095 9.77176 6.09524 9.77176ZM6.09524 8.24795C7.77905 8.24795 9.14286 6.88414 9.14286 5.20034C9.14286 3.51653 7.77905 2.15272 6.09524 2.15272C4.41143 2.15272 3.04762 3.51653 3.04762 5.20034C3.04762 6.88414 4.41143 8.24795 6.09524 8.24795Z" fill="#68698A"/>
</svg>
