<svg width="20" height="22" viewBox="0 0 20 22" fill="none" xmlns="http://www.w3.org/2000/svg">
<path d="M1.27909 0.405664L19.7411 10.5597C19.8195 10.6028 19.8849 10.6662 19.9304 10.7433C19.9759 10.8203 19.9999 10.9082 19.9999 10.9977C19.9999 11.0872 19.9759 11.175 19.9304 11.252C19.8849 11.3291 19.8195 11.3925 19.7411 11.4357L1.27909 21.5897C1.20296 21.6315 1.11723 21.6529 1.03036 21.6515C0.943484 21.6502 0.858458 21.6262 0.783663 21.582C0.708867 21.5378 0.646882 21.4749 0.603819 21.3994C0.560756 21.3239 0.538101 21.2385 0.538086 21.1517V0.843664C0.538101 0.756779 0.560756 0.671397 0.603819 0.595934C0.646882 0.520472 0.708867 0.457533 0.783663 0.413321C0.858458 0.36911 0.943484 0.345152 1.03036 0.34381C1.11723 0.342467 1.20296 0.363786 1.27909 0.405664ZM2.53809 11.9977V18.6147L16.3881 10.9977L2.53809 3.38066V9.99766H7.53809V11.9977H2.53809Z" fill="#68698A"/>
</svg>
