<svg width="16" height="17" viewBox="0 0 16 17" fill="none" xmlns="http://www.w3.org/2000/svg">
<path d="M12 2.1H15.2C15.4122 2.1 15.6157 2.18429 15.7657 2.33431C15.9157 2.48434 16 2.68783 16 2.9V15.7C16 15.9122 15.9157 16.1157 15.7657 16.2657C15.6157 16.4157 15.4122 16.5 15.2 16.5H0.8C0.587827 16.5 0.384344 16.4157 0.234315 16.2657C0.0842854 16.1157 0 15.9122 0 15.7V2.9C0 2.68783 0.0842854 2.48434 0.234315 2.33431C0.384344 2.18429 0.587827 2.1 0.8 2.1H4V0.5H5.6V2.1H10.4V0.5H12V2.1ZM10.4 3.7H5.6V5.3H4V3.7H1.6V6.9H14.4V3.7H12V5.3H10.4V3.7ZM14.4 8.5H1.6V14.9H14.4V8.5Z" fill="#68698A"/>
</svg>
