<svg width="16" height="16" viewBox="0 0 16 16" fill="none" xmlns="http://www.w3.org/2000/svg">
<path d="M2.87175 2.10306C4.2363 0.920661 5.98202 0.270926 7.78758 0.273445C11.9409 0.273445 15.3076 3.64015 15.3076 7.79344C15.3076 9.39972 14.8037 10.8887 13.9465 12.1099L11.5476 7.79344H13.8036C13.8037 6.61403 13.4571 5.46059 12.8069 4.47657C12.1568 3.49254 11.2317 2.72132 10.1467 2.25882C9.06179 1.79631 7.86482 1.66292 6.70467 1.87522C5.54451 2.08752 4.47235 2.63615 3.6215 3.4529L2.87175 2.10306ZM12.7034 13.4838C11.3389 14.6662 9.59314 15.316 7.78758 15.3134C3.63428 15.3134 0.267578 11.9467 0.267578 7.79344C0.267578 6.18717 0.771418 4.69821 1.6287 3.47696L4.02758 7.79344H1.77158C1.77148 8.97286 2.11806 10.1263 2.76823 11.1103C3.4184 12.0944 4.34347 12.8656 5.42842 13.3281C6.51337 13.7906 7.71034 13.924 8.87049 13.7117C10.0306 13.4994 11.1028 12.9507 11.9537 12.134L12.7034 13.4838Z" fill="#626BCC"/>
</svg>
