<svg width="21" height="21" viewBox="0 0 21 21" fill="none" xmlns="http://www.w3.org/2000/svg">
<path d="M4.19922 17.8984H1.19922C0.934002 17.8984 0.679648 17.7931 0.492112 17.6055C0.304576 17.418 0.199219 17.1637 0.199219 16.8984V6.89844C0.199219 6.63322 0.304576 6.37887 0.492112 6.19133C0.679648 6.00379 0.934002 5.89844 1.19922 5.89844H4.19922V1.89844C4.19922 1.63322 4.30458 1.37887 4.49211 1.19133C4.67965 1.00379 4.934 0.898438 5.19922 0.898438H15.1992C15.4644 0.898438 15.7188 1.00379 15.9063 1.19133C16.0939 1.37887 16.1992 1.63322 16.1992 1.89844V5.89844H19.1992C19.4644 5.89844 19.7188 6.00379 19.9063 6.19133C20.0939 6.37887 20.1992 6.63322 20.1992 6.89844V16.8984C20.1992 17.1637 20.0939 17.418 19.9063 17.6055C19.7188 17.7931 19.4644 17.8984 19.1992 17.8984H16.1992V19.8984C16.1992 20.1637 16.0939 20.418 15.9063 20.6055C15.7188 20.7931 15.4644 20.8984 15.1992 20.8984H5.19922C4.934 20.8984 4.67965 20.7931 4.49211 20.6055C4.30458 20.418 4.19922 20.1637 4.19922 19.8984V17.8984ZM4.19922 15.8984V14.8984C4.19922 14.6332 4.30458 14.3789 4.49211 14.1913C4.67965 14.0038 4.934 13.8984 5.19922 13.8984H15.1992C15.4644 13.8984 15.7188 14.0038 15.9063 14.1913C16.0939 14.3789 16.1992 14.6332 16.1992 14.8984V15.8984H18.1992V7.89844H2.19922V15.8984H4.19922ZM6.19922 2.89844V5.89844H14.1992V2.89844H6.19922ZM6.19922 15.8984V18.8984H14.1992V15.8984H6.19922ZM3.19922 8.89844H6.19922V10.8984H3.19922V8.89844Z" fill="#68698A"/>
</svg>
