<svg width="24" height="24" viewBox="0 0 24 24" fill="none" xmlns="http://www.w3.org/2000/svg">
<path d="M11.6 23.8006C5.2 23.8006 0 18.6006 0 12.2006C0 5.80059 5.2 0.600586 11.6 0.600586C18 0.600586 23.2 5.80059 23.2 12.2006C23.2 18.6006 18 23.8006 11.6 23.8006ZM11.6 2.10059C6 2.10059 1.5 6.60059 1.5 12.2006C1.5 17.8006 6 22.3006 11.6 22.3006C17.2 22.3006 21.7 17.8006 21.7 12.2006C21.7 6.60059 17.2 2.10059 11.6 2.10059Z" fill="white"/>
<path d="M9.7 16.5004L6.5 13.3004L7.6 12.3004L9.7 14.4004L15.6 8.40039L16.7 9.50039L9.7 16.5004Z" fill="white"/>
</svg>
