<svg width="1300" height="40" viewBox="0 0 1300 40" fill="none" xmlns="http://www.w3.org/2000/svg">
<path d="M0 14C0 6.26801 6.26801 0 14 0H1286C1293.73 0 1300 6.26801 1300 14V40H0V14Z" fill="#F3F4FB"/>
<path d="M20.9834 14.9922V25H19.7188V16.5713L17.1689 17.501V16.3594L20.7852 14.9922H20.9834ZM31.4287 21.6504V22.6895H24.2373V21.9443L28.6943 15.0469H29.7266L28.6191 17.043L25.6729 21.6504H31.4287ZM30.041 15.0469V25H28.7764V15.0469H30.041Z" fill="#334155"/>
<path d="M46.1663 19.168L43.9997 21.5013L41.833 19.168" stroke="#98A2B3" stroke-width="1.5" stroke-linecap="round" stroke-linejoin="round"/>
<path d="M60 0V40" stroke="#EAECF0"/>
<path d="M82.1663 16.832V15.832H73.833V16.832M77.9997 15.9987V24.1654M77.9997 24.1654H77.1663M77.9997 24.1654H78.833" stroke="#101828" stroke-width="1.5" stroke-linecap="round" stroke-linejoin="round"/>
<rect x="98" y="12" width="16" height="16" rx="8" fill="#334155"/>
<path d="M124 0V40" stroke="#EAECF0"/>
<path d="M138.5 15.168H142.333C143.714 15.168 144.833 16.2873 144.833 17.668C144.833 19.0487 143.714 20.168 142.333 20.168H138.5V15.168Z" stroke="#667085" stroke-width="1.5" stroke-linecap="round" stroke-linejoin="round"/>
<path d="M138.5 20.168H143.167C144.455 20.168 145.5 21.2126 145.5 22.5013C145.5 23.79 144.455 24.8346 143.167 24.8346H138.5V20.168Z" stroke="#667085" stroke-width="1.5" stroke-linecap="round" stroke-linejoin="round"/>
<path d="M171.334 15.168H169.834M171.334 15.168H172.834M171.334 15.168L168.667 24.8346M168.667 24.8346H167.167M168.667 24.8346H170.167" stroke="#667085" stroke-width="1.5" stroke-linecap="round" stroke-linejoin="round"/>
<path d="M193.167 24.832H202.834" stroke="#667085" stroke-width="1.5" stroke-linecap="round" stroke-linejoin="round"/>
<path d="M200.834 15.168V19.3346C200.834 20.8994 199.565 22.168 198 22.168C196.436 22.168 195.167 20.8994 195.167 19.3346V15.168" stroke="#667085" stroke-width="1.5" stroke-linecap="round" stroke-linejoin="round"/>
<path d="M221.167 20.1654H230.834M230.167 17.4987V17.332C230.167 16.2275 229.272 15.332 228.167 15.332H223.834C222.729 15.332 221.834 16.2275 221.834 17.332V18.1654C221.834 19.2699 222.729 20.1654 223.834 20.1654H228M221.834 22.4987V22.832C221.834 23.9366 222.729 24.832 223.834 24.832H228.167C229.272 24.832 230.167 23.9366 230.167 22.832V21.832" stroke="#667085" stroke-width="1.5" stroke-linecap="round" stroke-linejoin="round"/>
<path d="M244 0V40" stroke="#EAECF0"/>
<path d="M257.167 15.832H263.5M257.167 24.1654H263.5M257.167 19.9987H266.834" stroke="#667085" stroke-width="1.5" stroke-linecap="round" stroke-linejoin="round"/>
<path d="M287.167 15.832H292.834M287.167 24.1654H292.834M285.167 19.9987H294.834" stroke="#667085" stroke-width="1.5" stroke-linecap="round" stroke-linejoin="round"/>
<path d="M316.5 15.832H322.834M316.5 24.1654H322.834M313.167 19.9987H322.834" stroke="#667085" stroke-width="1.5" stroke-linecap="round" stroke-linejoin="round"/>
<path d="M336 0V40" stroke="#EAECF0"/>
<path d="M349.167 16.168L350.167 15.168V18.8346M350.167 18.8346H349.167M350.167 18.8346H350.834M354.834 21.5013H353.771C353.284 21.5013 353.012 20.9586 353.271 20.5729C353.303 20.5254 353.348 20.4887 353.395 20.457L354.595 19.6586C354.643 19.6269 354.688 19.5901 354.72 19.5431C355.017 19.1132 354.715 18.5013 354.169 18.5013H353.167M357.167 21.8346H358.131C358.954 21.8346 359.1 23.093 358.34 23.3051C358.304 23.3153 358.265 23.3194 358.227 23.3208L357.834 23.3346L358.227 23.3485C358.265 23.3498 358.304 23.3539 358.34 23.3642C359.1 23.5763 358.954 24.8346 358.131 24.8346H357.167" stroke="#667085" stroke-width="1.5" stroke-linecap="round" stroke-linejoin="round"/>
<path d="M380.5 16.0013H386.167M380.5 20.0013H386.167M380.5 24.0013H386.167M378.334 16.0013C378.334 16.1854 378.184 16.3346 378 16.3346C377.816 16.3346 377.667 16.1854 377.667 16.0013C377.667 15.8172 377.816 15.668 378 15.668C378.184 15.668 378.334 15.8172 378.334 16.0013ZM378.334 20.0013C378.334 20.1854 378.184 20.3346 378 20.3346C377.816 20.3346 377.667 20.1854 377.667 20.0013C377.667 19.8172 377.816 19.668 378 19.668C378.184 19.668 378.334 19.8172 378.334 20.0013ZM378.334 24.0013C378.334 24.1854 378.184 24.3346 378 24.3346C377.816 24.3346 377.667 24.1854 377.667 24.0013C377.667 23.8172 377.816 23.668 378 23.668C378.184 23.668 378.334 23.8172 378.334 24.0013Z" stroke="#667085" stroke-width="1.5" stroke-linecap="round" stroke-linejoin="round"/>
<path d="M400 0V40" stroke="#EAECF0"/>
<path d="M413.167 22.668L414.998 20.3391C415.517 19.6787 416.51 19.6571 417.057 20.2943L418.667 22.168M417.277 20.55C417.968 19.6704 418.932 18.4243 418.995 18.3433L419.001 18.3347C419.521 17.6786 420.511 17.6585 421.057 18.2943L422.667 20.168M414.5 15.168H421.5C422.237 15.168 422.834 15.7649 422.834 16.5013V23.5013C422.834 24.2377 422.237 24.8346 421.5 24.8346H414.5C413.764 24.8346 413.167 24.2377 413.167 23.5013V16.5013C413.167 15.7649 413.764 15.168 414.5 15.168Z" stroke="#667085" stroke-width="1.5" stroke-linecap="round" stroke-linejoin="round"/>
<path d="M449.167 20.8336L450 20.0003C451.105 18.8957 451.105 17.1049 450 16.0003C448.896 14.8957 447.105 14.8957 446 16.0003L445.167 16.8336M442.834 19.167L442 20.0003C440.896 21.1049 440.896 22.8957 442 24.0003C443.105 25.1049 444.896 25.1049 446 24.0003L446.834 23.167M447.5 18.5003L444.5 21.5003" stroke="#667085" stroke-width="1.5" stroke-linecap="round" stroke-linejoin="round"/>
</svg>
